<svg width="707" height="377" viewBox="0 0 707 377" fill="none" xmlns="http://www.w3.org/2000/svg">
<rect width="707" height="377" fill="#F6F5F1" fill-opacity="0.67"/>
<rect x="435" width="272" height="377" fill="#FAE0DF" fill-opacity="0.74"/>
<circle cx="115.5" cy="121.5" r="97" fill="url(#paint0_radial)" stroke="#898B8A" stroke-width="7"/>
<path d="M138.567 139.688C145.564 144.628 146.621 155.247 139.956 160.915C135.061 165.089 128.035 164.724 123.618 160.789C119.864 157.939 117.8 152.687 119.086 147.745C121.313 139.283 131.07 134.374 138.567 139.688Z" fill="#3FA9F5"/>
<path d="M116.872 165.545C117.079 165.885 117.128 166.208 117.152 166.538C117.614 167.644 117.449 169.051 116.11 169.849C102.268 178.076 85.8809 181.987 69.903 178.5C59.3565 176.186 48.1974 169.317 48.1675 157.221C48.1578 136.269 75.8392 140.487 75.7354 153.903C83.2647 157.12 93.1588 157.727 98.2886 150.325C102.799 143.813 99.9563 138.766 95.3221 134.675C84.4593 128.64 67.1341 127.142 57.7938 123.234C48.7739 119.484 42.0117 114 38.5272 104.714C29.8841 81.5749 48.1515 64.1213 69.1913 57.8977C83.6878 53.6232 117.327 58.6076 112.807 80.7332C109.987 94.5699 91.5316 96.223 86.5525 84.5988C83.3618 82.9609 80.1937 81.4215 76.2924 81.6248C69.9184 81.9603 65.2032 86.3515 64.3893 92.2167C66.3868 97.0715 70.5426 100.654 77.5801 103.081C85.3257 105.784 93.3735 106.327 101.279 108.27C112.464 111.004 122.389 117.333 124.807 128.929C126.477 130.014 126.664 133.171 124.621 134.159C112.037 140.236 109.68 154.174 116.872 165.545Z" fill="#4D4D4D"/>
<path d="M183.621 77.5474C180.555 63.0334 166.304 53.7527 151.79 56.8182C139.362 59.4432 130.472 70.4153 130.481 83.1174C130.484 83.7226 130.513 84.342 130.57 84.9971C121.724 85.9801 115.349 93.9481 116.332 102.794C117.243 110.994 124.199 117.181 132.449 117.13L134.329 117.12C134.283 116.526 134.234 115.935 134.23 115.33C134.163 102.474 144.531 91.9975 157.387 91.9305C170.243 91.8635 180.719 102.231 180.786 115.087C180.79 115.692 180.746 116.284 180.706 116.878L182.586 116.869C193.453 116.842 202.24 108.011 202.213 97.1443C202.187 86.7175 194.032 78.1213 183.621 77.5474Z" fill="#4D4D4D"/>
<path d="M157.611 134.905C168.489 134.849 177.262 125.984 177.205 115.106C177.148 104.228 168.284 95.4551 157.406 95.5118C146.528 95.5685 137.755 104.433 137.812 115.311C137.868 126.189 146.733 134.962 157.611 134.905Z" fill="#4CAF50"/>
<path d="M157.574 127.743C156.585 127.748 155.779 126.951 155.774 125.962L155.662 104.474C155.657 103.485 156.454 102.679 157.443 102.674C158.432 102.669 159.238 103.467 159.243 104.456L159.355 125.943C159.36 126.932 158.563 127.738 157.574 127.743Z" fill="#FAFAFA"/>
<path d="M157.574 127.743C157.098 127.746 156.641 127.561 156.303 127.227L149.103 120.101C148.413 119.394 148.426 118.26 149.134 117.569C149.825 116.895 150.925 116.89 151.622 117.556L157.551 123.42L163.415 117.495C164.123 116.804 165.257 116.818 165.947 117.526C166.621 118.216 166.627 119.316 165.96 120.014L158.835 127.213C158.501 127.55 158.048 127.74 157.574 127.743Z" fill="#FAFAFA"/>
<path d="M179.888 143.112C180.513 143.737 180.845 144.602 180.795 145.486C180.747 146.365 180.326 147.187 179.64 147.739L168.992 155.615C168.784 155.296 168.545 154.999 168.273 154.726C168.001 154.454 167.704 154.216 167.385 154.008L175.261 143.36C175.814 142.673 176.634 142.252 177.514 142.204C178.396 142.156 179.263 142.486 179.888 143.112ZM178.567 146.66C179.181 146.046 179.181 145.048 178.567 144.434C178.268 144.136 177.874 143.972 177.453 143.972C177.032 143.972 176.636 144.136 176.339 144.434C175.725 145.048 175.725 146.046 176.339 146.66C176.647 146.967 177.05 147.121 177.453 147.121C177.856 147.121 178.259 146.967 178.567 146.66Z" fill="#4D4D4D"/>
<path d="M167.426 155.575C168.993 157.142 169.217 159.808 168.058 163.082C166.809 166.609 164.094 170.565 160.192 174.549L148.45 162.807C152.434 158.905 156.39 156.19 159.918 154.941C163.191 153.782 165.857 154.008 167.426 155.575Z" fill="#BDC3C7"/>
<path d="M180.736 142.263C181.602 143.131 182.061 144.329 181.994 145.552C181.925 146.777 181.337 147.917 180.38 148.682C180.374 148.687 180.368 148.692 180.363 148.696L169.542 156.699C170.234 158.513 170.124 160.841 169.188 163.482C167.837 167.302 164.873 171.57 160.619 175.824C160.506 175.936 160.354 176 160.195 176C160.035 176 159.883 175.936 159.77 175.824L147.175 163.229C146.942 162.995 146.942 162.615 147.175 162.381C151.429 158.126 155.698 155.164 159.517 153.811C162.159 152.875 164.486 152.766 166.3 153.457L174.303 142.637C174.308 142.631 174.312 142.625 174.317 142.619C175.083 141.662 176.224 141.074 177.447 141.007C178.673 140.939 179.87 141.397 180.736 142.263ZM180.795 145.486C180.845 144.602 180.513 143.737 179.888 143.112C179.263 142.486 178.396 142.156 177.514 142.204C176.634 142.253 175.814 142.673 175.261 143.36L167.385 154.008C167.704 154.216 168.001 154.454 168.273 154.726C168.545 154.999 168.784 155.296 168.992 155.615L179.64 147.739C180.326 147.187 180.747 146.365 180.795 145.486ZM168.058 163.082C169.217 159.808 168.993 157.142 167.426 155.575C165.857 154.008 163.191 153.783 159.918 154.941C156.39 156.19 152.434 158.905 148.45 162.807L160.192 174.549C164.094 170.565 166.809 166.609 168.058 163.082Z" fill="black"/>
<path d="M178.567 144.434C179.181 145.048 179.181 146.046 178.567 146.66C178.259 146.967 177.856 147.121 177.453 147.121C177.05 147.121 176.647 146.967 176.339 146.66C175.725 146.046 175.725 145.048 176.339 144.434C176.636 144.136 177.032 143.972 177.453 143.972C177.874 143.972 178.268 144.136 178.567 144.434ZM177.733 145.827C177.888 145.672 177.888 145.421 177.733 145.267C177.658 145.192 177.559 145.15 177.453 145.15C177.347 145.15 177.248 145.192 177.172 145.267C177.018 145.421 177.018 145.672 177.172 145.827C177.327 145.981 177.578 145.981 177.733 145.827Z" fill="black"/>
<g filter="url(#filter0_d)">
<rect x="76.5" y="257.5" width="329" height="98" rx="7.5" fill="white" stroke="#47848F" stroke-width="9"/>
<path fill-rule="evenodd" clip-rule="evenodd" d="M172.141 318.513H185.867C186.257 318.513 186.588 318.182 186.588 317.792C186.588 317.402 186.257 317.071 185.867 317.071H175.92C174.263 317.071 172.92 315.728 172.92 314.071V311.63C172.92 309.973 174.263 308.63 175.92 308.63H184.367C184.757 308.63 185.088 308.299 185.088 307.909C185.088 307.519 184.757 307.189 184.367 307.189H175.92C174.263 307.189 172.92 305.845 172.92 304.189V301.929C172.92 300.272 174.263 298.929 175.92 298.929H185.716C186.105 298.929 186.436 298.598 186.436 298.208C186.436 297.818 186.105 297.487 185.716 297.487H172.116C171.909 297.49 171.712 297.573 171.566 297.719C171.42 297.866 171.337 298.063 171.334 298.269V317.733C171.337 317.94 171.42 318.137 171.566 318.283C171.712 318.429 171.909 318.512 172.116 318.515L172.141 318.513ZM196.122 317.731C196.125 317.937 196.208 318.134 196.354 318.281C196.5 318.427 196.697 318.51 196.904 318.513H209.429C209.819 318.513 210.15 318.182 210.15 317.792C210.15 317.402 209.819 317.071 209.429 317.071H200.681C199.024 317.071 197.681 315.728 197.681 314.071V298.145C197.678 297.938 197.595 297.741 197.449 297.595C197.303 297.449 197.106 297.365 196.899 297.363C196.693 297.365 196.496 297.449 196.35 297.595C196.204 297.741 196.12 297.938 196.117 298.145L196.122 317.731ZM220.129 318.514C220.13 318.513 220.131 318.513 220.132 318.513H233.88C234.27 318.513 234.601 318.182 234.601 317.792C234.601 317.402 234.27 317.071 233.88 317.071H223.933C222.276 317.071 220.933 315.728 220.933 314.071V311.63C220.933 309.973 222.276 308.63 223.933 308.63H232.379C232.769 308.63 233.1 308.299 233.1 307.909C233.1 307.519 232.769 307.189 232.379 307.189H223.933C222.276 307.189 220.933 305.845 220.933 304.189V301.929C220.933 300.272 222.276 298.929 223.933 298.929H233.728C234.118 298.929 234.449 298.598 234.449 298.208C234.449 297.818 234.118 297.487 233.728 297.487H220.128C219.922 297.49 219.724 297.573 219.578 297.719C219.432 297.866 219.349 298.063 219.346 298.269V317.733C219.349 317.94 219.432 318.137 219.578 318.283C219.724 318.428 219.921 318.512 220.126 318.515C220.128 318.515 220.129 318.515 220.129 318.514V318.514ZM253.624 318.874C253.629 318.875 253.634 318.875 253.64 318.875C257.149 318.873 259.459 317.582 261.592 315.602C261.712 315.482 261.833 315.301 261.833 315.058C261.833 314.669 261.47 314.31 261.085 314.31C260.844 314.31 260.663 314.431 260.541 314.551C258.557 316.443 256.544 317.463 253.695 317.463C248.679 317.463 244.803 313.315 244.803 308.002V307.943C244.803 302.657 248.618 298.541 253.643 298.541C256.59 298.541 258.6 299.684 260.341 301.275C260.461 301.395 260.672 301.486 260.885 301.486C261.307 301.486 261.697 301.123 261.697 300.704C261.697 300.432 261.547 300.223 261.395 300.073C259.355 298.328 257.156 297.127 253.675 297.127C247.607 297.127 243.162 302.052 243.162 308V308.061C243.162 314.097 247.601 318.869 253.608 318.873C253.613 318.873 253.619 318.874 253.624 318.874V318.874ZM276.74 317.855C276.743 318.062 276.827 318.259 276.973 318.405C277.119 318.551 277.316 318.635 277.522 318.637C277.729 318.635 277.926 318.551 278.072 318.405C278.218 318.259 278.301 318.062 278.304 317.855V301.929C278.304 300.272 279.648 298.929 281.304 298.929H285.032C285.422 298.929 285.753 298.598 285.753 298.208C285.753 297.818 285.422 297.487 285.032 297.487H270.011C269.621 297.487 269.29 297.818 269.29 298.208C269.29 298.598 269.621 298.929 270.011 298.929H273.738C275.395 298.929 276.738 300.272 276.738 301.928L276.74 317.855ZM295.01 317.855C295.013 318.062 295.096 318.259 295.242 318.405C295.388 318.551 295.585 318.635 295.792 318.637C295.998 318.635 296.195 318.551 296.341 318.405C296.487 318.259 296.571 318.062 296.574 317.855V312.804C296.574 311.147 297.917 309.804 299.574 309.804H301.977C302.908 309.804 303.786 310.236 304.354 310.974L309.913 318.191C310.094 318.431 310.303 318.613 310.604 318.613C311.026 318.613 311.416 318.223 311.416 317.801C311.416 317.62 311.325 317.438 311.176 317.257L308.366 313.613C306.957 311.786 308.232 309.065 309.842 307.411C310.796 306.431 311.357 305.126 311.357 303.498V303.467C311.357 301.964 310.756 300.554 309.766 299.561C308.503 298.299 306.434 297.489 303.872 297.489H295.821C295.615 297.492 295.417 297.576 295.271 297.722C295.125 297.868 295.042 298.065 295.039 298.271L295.01 317.855ZM299.596 308.394C297.94 308.394 296.596 307.051 296.596 305.394V301.933C296.596 300.276 297.94 298.933 299.596 298.933H303.775C307.59 298.933 309.813 300.706 309.813 303.53V303.589C309.813 306.622 307.2 308.394 303.687 308.394H299.596ZM330.998 318.875C330.999 318.877 331.001 318.878 331.003 318.878C337.348 318.876 341.603 313.74 341.603 308.005V307.946C341.603 302.211 337.428 297.134 331.059 297.134C324.689 297.134 320.451 302.265 320.451 308V308.061C320.451 313.795 324.625 318.871 330.992 318.873C330.994 318.873 330.996 318.874 330.998 318.875V318.875ZM331.059 317.467C331.059 317.466 331.058 317.466 331.058 317.466C325.861 317.465 322.078 313.199 322.078 308.005V307.946C322.078 302.748 325.802 298.543 331 298.543C336.197 298.543 339.98 302.809 339.98 308.005V308.066C339.98 313.263 336.257 317.467 331.06 317.468C331.059 317.468 331.059 317.467 331.059 317.467V317.467ZM351.554 317.887C351.554 318.309 351.885 318.635 352.302 318.635C352.719 318.635 353.05 318.304 353.05 317.887V308.404C353.05 305.558 356.643 304.311 358.406 306.546L367.498 318.078C367.738 318.379 367.978 318.588 368.28 318.588H368.4C368.763 318.588 369.03 318.286 369.03 317.926V298.092C369.03 297.671 368.699 297.344 368.282 297.344C367.865 297.344 367.534 297.675 367.534 298.092V307.182C367.534 310.027 363.944 311.274 362.18 309.042L353.333 297.845C353.123 297.573 352.88 297.392 352.551 297.392H352.311C352.105 297.395 351.907 297.478 351.761 297.624C351.615 297.77 351.532 297.968 351.529 298.174L351.554 317.887ZM129.86 291.453C129.859 291.453 129.857 291.453 129.856 291.453C122.282 290.094 116.292 291.517 113.905 295.653C112.124 298.736 112.636 302.83 115.141 307.204C115.354 307.576 115.83 307.703 116.201 307.492C116.573 307.281 116.7 306.803 116.489 306.431C114.232 302.492 113.769 298.961 115.252 296.431C117.235 292.997 122.578 291.707 129.582 292.986C130.003 293.063 130.409 292.759 130.488 292.36C130.567 291.962 130.263 291.534 129.865 291.454C129.863 291.453 129.862 291.453 129.86 291.453V291.453ZM119.081 312.506C119.081 312.513 119.083 312.521 119.088 312.526C122.147 315.889 126.126 319.043 130.64 321.661C141.633 328.008 153.307 329.703 159.096 325.771C159.449 325.528 159.542 325.045 159.323 324.692C159.103 324.338 158.597 324.245 158.244 324.465C153.082 327.983 141.969 326.374 131.44 320.294C127.036 317.751 123.183 314.696 120.232 311.45C119.944 311.133 119.452 311.11 119.135 311.398C118.82 311.683 118.795 312.169 119.075 312.486C119.08 312.492 119.082 312.499 119.081 312.506V312.506ZM157.281 311.592C157.28 311.592 157.28 311.591 157.28 311.59C162.265 305.731 163.971 299.837 161.589 295.712C159.837 292.675 156.131 291.073 151.208 291.009C150.755 291.005 150.426 291.349 150.421 291.775C150.417 292.201 150.761 292.557 151.187 292.562C155.617 292.618 158.81 294.001 160.247 296.488C162.226 299.915 160.683 305.169 156.099 310.586C155.823 310.913 155.864 311.402 156.19 311.681C156.515 311.959 157.003 311.917 157.282 311.593C157.283 311.592 157.282 311.591 157.281 311.592V311.592ZM144.528 291.732C140.04 292.693 135.269 294.572 130.683 297.217C119.339 303.791 111.938 313.424 112.965 320.428C113.026 320.852 113.423 321.147 113.871 321.108C114.32 321.07 114.59 320.65 114.551 320.201C113.638 313.984 120.653 304.829 131.506 298.562C135.953 295.993 140.577 294.173 144.879 293.249C145.299 293.158 145.566 292.745 145.475 292.326C145.385 291.907 144.972 291.639 144.553 291.73L144.528 291.732ZM126.149 325.273C126.149 325.281 126.151 325.29 126.154 325.298C128.748 332.533 132.989 336.986 137.755 336.986C141.235 336.986 144.455 334.613 146.965 330.413C147.187 330.046 147.067 329.567 146.699 329.347C146.332 329.128 145.854 329.245 145.634 329.613C143.379 333.366 140.607 335.409 137.755 335.409C133.789 335.409 130.008 331.431 127.61 324.737C127.465 324.334 127.02 324.125 126.617 324.268C126.217 324.409 126.009 324.849 126.144 325.249C126.146 325.257 126.148 325.265 126.149 325.273V325.273ZM149.817 323.867C149.831 323.867 149.844 323.858 149.848 323.844C151.185 319.558 151.881 314.616 151.881 309.469C151.881 296.599 147.377 285.503 140.96 282.654C140.568 282.48 140.108 282.656 139.936 283.049C139.763 283.441 139.938 283.901 140.33 284.073C146.053 286.612 150.303 297.143 150.303 309.467C150.303 314.471 149.605 319.263 148.309 323.402C148.18 323.81 148.409 324.247 148.819 324.377C149.221 324.503 149.648 324.285 149.786 323.889C149.791 323.876 149.803 323.867 149.817 323.867V323.867Z" fill="#47848F"/>
<path fill-rule="evenodd" clip-rule="evenodd" d="M-nan -nanL164.475 323.107C164.475 322.121 164.083 321.175 163.386 320.478C162.688 319.781 161.742 319.389 160.756 319.389C159.77 319.389 158.824 319.781 158.127 320.478C157.43 321.175 157.038 322.121 157.038 323.107C157.038 324.094 157.43 325.039 158.127 325.737C158.824 326.434 159.77 326.826 160.756 326.826C161.742 326.826 162.688 326.434 163.386 325.737C164.083 325.039 164.475 324.094 164.475 323.107L-nan -nanL-nan -nanZM162.922 323.107C162.922 324.302 161.952 325.272 160.757 325.272C159.563 325.272 158.593 324.302 158.593 323.107C158.593 321.913 159.563 320.943 160.757 320.943C161.952 320.943 162.922 321.913 162.922 323.107Z" fill="#47848F"/>
<path d="M-nan -nanL114.708 326.827C115.694 326.827 116.64 326.435 117.337 325.738C118.034 325.04 118.426 324.095 118.426 323.108C118.426 322.122 118.034 321.176 117.337 320.479C116.64 319.782 115.694 319.39 114.708 319.39C113.722 319.39 112.776 319.782 112.078 320.479C111.381 321.176 110.989 322.122 110.989 323.108C110.989 324.095 111.381 325.04 112.078 325.738C112.776 326.435 113.722 326.827 114.708 326.827L-nan -nanL-nan -nanZM114.708 325.274C113.513 325.274 112.543 324.304 112.543 323.11C112.543 321.915 113.513 320.945 114.708 320.945C115.902 320.945 116.872 321.915 116.872 323.11C116.872 324.304 115.902 325.274 114.708 325.274Z" fill="#47848F"/>
<path d="M-nan -nanL137.757 286.449C138.744 286.449 139.689 286.057 140.387 285.359C141.084 284.662 141.476 283.716 141.476 282.73C141.476 281.744 141.084 280.798 140.387 280.101C139.689 279.403 138.744 279.012 137.757 279.012C136.771 279.012 135.825 279.403 135.128 280.101C134.431 280.798 134.039 281.744 134.039 282.73C134.039 283.716 134.431 284.662 135.128 285.359C135.825 286.057 136.771 286.449 137.757 286.449L-nan -nanL-nan -nanZM137.757 284.896C136.563 284.896 135.593 283.926 135.593 282.731C135.593 281.537 136.563 280.567 137.757 280.567C138.952 280.567 139.922 281.537 139.922 282.731C139.922 283.926 138.952 284.896 137.757 284.896Z" fill="#47848F"/>
</g>
<g filter="url(#filter1_ddd)">
<path d="M459.835 86.22C457.035 85.2867 455.005 84.155 453.745 82.825C452.508 81.495 451.89 79.885 451.89 77.995C451.89 75.8717 452.602 74.1917 454.025 72.955C455.448 71.7183 457.443 71.1 460.01 71.1C462.18 71.1 464.07 71.345 465.68 71.835C466.24 71.9983 466.683 72.3367 467.01 72.85C467.36 73.34 467.535 73.8883 467.535 74.495V74.81C467.535 75.2533 467.337 75.6033 466.94 75.86C466.543 76.0933 466.135 76.1283 465.715 75.965C463.965 75.2883 462.18 74.95 460.36 74.95C459.193 74.95 458.307 75.2183 457.7 75.755C457.093 76.2917 456.79 77.0383 456.79 77.995C456.79 79.675 457.887 80.8767 460.08 81.6C463.23 82.6033 465.412 83.7467 466.625 85.03C467.862 86.3133 468.48 87.97 468.48 90C468.48 94.9 465.458 97.35 459.415 97.35C457.525 97.35 455.81 97.0583 454.27 96.475C453.71 96.265 453.267 95.9033 452.94 95.39C452.637 94.8767 452.485 94.305 452.485 93.675V93.255C452.485 92.8117 452.672 92.4967 453.045 92.31C453.418 92.1 453.803 92.0883 454.2 92.275C455.74 93.045 457.362 93.43 459.065 93.43C462.028 93.43 463.51 92.31 463.51 90.07C463.51 89.16 463.23 88.4133 462.67 87.83C462.11 87.2233 461.165 86.6867 459.835 86.22ZM483.224 97.35C479.538 97.35 476.609 96.2183 474.439 93.955C472.293 91.6683 471.219 88.425 471.219 84.225C471.219 80.0717 472.258 76.8517 474.334 74.565C476.434 72.255 479.363 71.1 483.119 71.1C484.846 71.1 486.293 71.205 487.459 71.415C488.019 71.5083 488.486 71.7883 488.859 72.255C489.233 72.7217 489.419 73.2467 489.419 73.83V74.11C489.419 74.6 489.209 74.985 488.789 75.265C488.393 75.545 487.961 75.6267 487.494 75.51C486.351 75.2067 485.068 75.055 483.644 75.055C481.334 75.055 479.514 75.8483 478.184 77.435C476.878 79.0217 476.224 81.285 476.224 84.225C476.224 87.1417 476.901 89.405 478.254 91.015C479.631 92.6017 481.463 93.395 483.749 93.395C485.289 93.395 486.608 93.255 487.704 92.975C488.171 92.8583 488.603 92.94 488.999 93.22C489.419 93.5 489.629 93.885 489.629 94.375V94.62C489.629 95.2033 489.443 95.7283 489.069 96.195C488.719 96.6383 488.253 96.9067 487.669 97C486.339 97.2333 484.858 97.35 483.224 97.35ZM499.807 75.44V83.035C499.807 83.2217 499.912 83.315 500.122 83.315H501.872C506.025 83.315 508.102 81.8333 508.102 78.87C508.102 76.2333 506.177 74.915 502.327 74.915C501.627 74.915 500.892 74.9733 500.122 75.09C499.912 75.1367 499.807 75.2533 499.807 75.44ZM496.972 97C496.435 97 495.969 96.8017 495.572 96.405C495.175 96.0083 494.977 95.5417 494.977 95.005V73.62C494.977 73.06 495.164 72.5583 495.537 72.115C495.91 71.6717 496.377 71.4267 496.937 71.38C498.92 71.1933 500.834 71.1 502.677 71.1C506.107 71.1 508.674 71.7417 510.377 73.025C512.08 74.285 512.932 76.07 512.932 78.38C512.932 80.0367 512.477 81.495 511.567 82.755C510.68 84.015 509.479 84.9017 507.962 85.415C507.939 85.415 507.927 85.4267 507.927 85.45C507.927 85.4967 507.939 85.52 507.962 85.52C509.082 86.22 510.039 87.5967 510.832 89.65L512.932 95.145C513.095 95.5883 513.037 96.0083 512.757 96.405C512.5 96.8017 512.139 97 511.672 97H510.587C509.98 97 509.432 96.8367 508.942 96.51C508.452 96.16 508.102 95.705 507.892 95.145L505.932 89.755C505.512 88.635 505.034 87.9 504.497 87.55C503.96 87.2 503.039 87.025 501.732 87.025H500.122C499.912 87.025 499.807 87.13 499.807 87.34V95.005C499.807 95.5417 499.609 96.0083 499.212 96.405C498.839 96.8017 498.384 97 497.847 97H496.972ZM519.855 97C519.318 97 518.851 96.8017 518.455 96.405C518.058 96.0083 517.86 95.5417 517.86 95.005V73.445C517.86 72.9083 518.058 72.4417 518.455 72.045C518.851 71.6483 519.318 71.45 519.855 71.45H521.255C521.791 71.45 522.258 71.6483 522.655 72.045C523.051 72.4417 523.25 72.9083 523.25 73.445V95.005C523.25 95.5417 523.051 96.0083 522.655 96.405C522.258 96.8017 521.791 97 521.255 97H519.855ZM534.294 85.66V93.01C534.294 93.1967 534.399 93.3133 534.609 93.36C535.426 93.4767 536.196 93.535 536.919 93.535C538.856 93.535 540.268 93.185 541.154 92.485C542.064 91.7617 542.519 90.665 542.519 89.195C542.519 87.8883 541.994 86.9317 540.944 86.325C539.918 85.695 538.203 85.38 535.799 85.38H534.574C534.388 85.38 534.294 85.4733 534.294 85.66ZM534.294 75.44V81.425C534.294 81.635 534.388 81.74 534.574 81.74H535.589C537.759 81.74 539.323 81.4483 540.279 80.865C541.259 80.2583 541.749 79.3717 541.749 78.205C541.749 77.085 541.353 76.2567 540.559 75.72C539.766 75.1833 538.471 74.915 536.674 74.915C535.858 74.915 535.158 74.9617 534.574 75.055C534.388 75.1017 534.294 75.23 534.294 75.44ZM531.424 97.07C530.864 97.0233 530.398 96.79 530.024 96.37C529.651 95.9267 529.464 95.4133 529.464 94.83V73.62C529.464 73.0367 529.651 72.535 530.024 72.115C530.398 71.6717 530.876 71.4267 531.459 71.38C533.186 71.1933 534.854 71.1 536.464 71.1C542.998 71.1 546.264 73.235 546.264 77.505C546.264 78.9283 545.786 80.165 544.829 81.215C543.873 82.265 542.613 82.9417 541.049 83.245C541.026 83.245 541.014 83.2567 541.014 83.28C541.014 83.3267 541.026 83.35 541.049 83.35C542.963 83.63 544.456 84.3417 545.529 85.485C546.626 86.605 547.174 87.9933 547.174 89.65C547.174 92.2167 546.334 94.1417 544.654 95.425C542.974 96.7083 540.361 97.35 536.814 97.35C535.041 97.35 533.244 97.2567 531.424 97.07ZM555.999 75.51V92.94C555.999 93.1033 556.092 93.2083 556.279 93.255C557.026 93.3717 557.726 93.43 558.379 93.43C561.109 93.43 563.116 92.695 564.399 91.225C565.682 89.7317 566.324 87.2817 566.324 83.875C566.324 80.8183 565.671 78.5783 564.364 77.155C563.057 75.7317 561.062 75.02 558.379 75.02C557.726 75.02 557.026 75.0783 556.279 75.195C556.092 75.2417 555.999 75.3467 555.999 75.51ZM553.129 97.105C552.546 97.035 552.067 96.79 551.694 96.37C551.321 95.9267 551.134 95.4133 551.134 94.83V73.62C551.134 73.0367 551.321 72.535 551.694 72.115C552.067 71.6717 552.546 71.415 553.129 71.345C554.622 71.1817 556.291 71.1 558.134 71.1C562.287 71.1 565.461 72.185 567.654 74.355C569.871 76.525 570.979 79.6983 570.979 83.875C570.979 88.355 569.871 91.7267 567.654 93.99C565.461 96.23 562.287 97.35 558.134 97.35C556.291 97.35 554.622 97.2683 553.129 97.105ZM457.63 127.51V144.94C457.63 145.103 457.723 145.208 457.91 145.255C458.657 145.372 459.357 145.43 460.01 145.43C462.74 145.43 464.747 144.695 466.03 143.225C467.313 141.732 467.955 139.282 467.955 135.875C467.955 132.818 467.302 130.578 465.995 129.155C464.688 127.732 462.693 127.02 460.01 127.02C459.357 127.02 458.657 127.078 457.91 127.195C457.723 127.242 457.63 127.347 457.63 127.51ZM454.76 149.105C454.177 149.035 453.698 148.79 453.325 148.37C452.952 147.927 452.765 147.413 452.765 146.83V125.62C452.765 125.037 452.952 124.535 453.325 124.115C453.698 123.672 454.177 123.415 454.76 123.345C456.253 123.182 457.922 123.1 459.765 123.1C463.918 123.1 467.092 124.185 469.285 126.355C471.502 128.525 472.61 131.698 472.61 135.875C472.61 140.355 471.502 143.727 469.285 145.99C467.092 148.23 463.918 149.35 459.765 149.35C457.922 149.35 456.253 149.268 454.76 149.105ZM493.626 136.225C493.626 130.158 491.409 127.125 486.976 127.125C482.543 127.125 480.326 130.158 480.326 136.225C480.326 142.292 482.543 145.325 486.976 145.325C491.409 145.325 493.626 142.292 493.626 136.225ZM495.481 145.885C493.404 148.195 490.569 149.35 486.976 149.35C483.383 149.35 480.536 148.195 478.436 145.885C476.359 143.575 475.321 140.355 475.321 136.225C475.321 132.095 476.359 128.875 478.436 126.565C480.536 124.255 483.383 123.1 486.976 123.1C490.569 123.1 493.404 124.255 495.481 126.565C497.581 128.875 498.631 132.095 498.631 136.225C498.631 140.355 497.581 143.575 495.481 145.885ZM505.17 147.04L500.69 125.41C500.574 124.897 500.679 124.442 501.005 124.045C501.355 123.648 501.787 123.45 502.3 123.45H503.315C503.899 123.45 504.4 123.637 504.82 124.01C505.24 124.383 505.497 124.85 505.59 125.41L508.495 143.82C508.495 143.843 508.507 143.855 508.53 143.855C508.577 143.855 508.6 143.843 508.6 143.82L511.4 125.41C511.494 124.85 511.75 124.383 512.17 124.01C512.59 123.637 513.092 123.45 513.675 123.45H515.775C516.359 123.45 516.86 123.637 517.28 124.01C517.7 124.383 517.957 124.85 518.05 125.41L520.885 143.82C520.885 143.843 520.897 143.855 520.92 143.855C520.944 143.855 520.955 143.843 520.955 143.82L523.86 125.41C523.954 124.85 524.21 124.383 524.63 124.01C525.05 123.637 525.552 123.45 526.135 123.45H527.01C527.524 123.45 527.944 123.648 528.27 124.045C528.597 124.442 528.714 124.897 528.62 125.41L524.14 147.04C524.024 147.6 523.744 148.067 523.3 148.44C522.857 148.813 522.344 149 521.76 149H519.905C519.322 149 518.809 148.813 518.365 148.44C517.945 148.067 517.689 147.6 517.595 147.04L514.69 128.63C514.69 128.607 514.679 128.595 514.655 128.595C514.632 128.595 514.62 128.607 514.62 128.63L511.715 147.04C511.622 147.6 511.354 148.067 510.91 148.44C510.49 148.813 509.989 149 509.405 149H507.55C506.967 149 506.454 148.813 506.01 148.44C505.567 148.067 505.287 147.6 505.17 147.04ZM534.603 149C534.066 149 533.6 148.802 533.203 148.405C532.83 148.008 532.643 147.542 532.643 147.005V125.445C532.643 124.908 532.83 124.442 533.203 124.045C533.6 123.648 534.066 123.45 534.603 123.45H535.373C536.703 123.45 537.683 124.033 538.313 125.2L546.958 140.81C546.958 140.833 546.97 140.845 546.993 140.845C547.016 140.845 547.028 140.833 547.028 140.81V125.445C547.028 124.908 547.226 124.442 547.623 124.045C548.02 123.648 548.486 123.45 549.023 123.45H549.793C550.33 123.45 550.785 123.648 551.158 124.045C551.555 124.442 551.753 124.908 551.753 125.445V147.005C551.753 147.542 551.555 148.008 551.158 148.405C550.785 148.802 550.33 149 549.793 149H549.023C547.693 149 546.713 148.417 546.083 147.25L537.438 131.64C537.438 131.617 537.426 131.605 537.403 131.605C537.38 131.605 537.368 131.617 537.368 131.64V147.005C537.368 147.542 537.17 148.008 536.773 148.405C536.376 148.802 535.91 149 535.373 149H534.603ZM559.246 149C558.71 149 558.243 148.802 557.846 148.405C557.473 148.008 557.286 147.542 557.286 147.005V125.445C557.286 124.908 557.473 124.442 557.846 124.045C558.243 123.648 558.71 123.45 559.246 123.45H560.366C560.903 123.45 561.37 123.648 561.766 124.045C562.163 124.442 562.361 124.908 562.361 125.445V144.625C562.361 144.835 562.455 144.94 562.641 144.94H571.636C572.173 144.94 572.628 145.138 573.001 145.535C573.398 145.908 573.596 146.363 573.596 146.9V147.005C573.596 147.542 573.398 148.008 573.001 148.405C572.628 148.802 572.173 149 571.636 149H559.246ZM593.225 136.225C593.225 130.158 591.009 127.125 586.575 127.125C582.142 127.125 579.925 130.158 579.925 136.225C579.925 142.292 582.142 145.325 586.575 145.325C591.009 145.325 593.225 142.292 593.225 136.225ZM595.08 145.885C593.004 148.195 590.169 149.35 586.575 149.35C582.982 149.35 580.135 148.195 578.035 145.885C575.959 143.575 574.92 140.355 574.92 136.225C574.92 132.095 575.959 128.875 578.035 126.565C580.135 124.255 582.982 123.1 586.575 123.1C590.169 123.1 593.004 124.255 595.08 126.565C597.18 128.875 598.23 132.095 598.23 136.225C598.23 140.355 597.18 143.575 595.08 145.885ZM609.924 127.79L606.844 138.78C606.821 138.85 606.832 138.92 606.879 138.99C606.926 139.06 606.984 139.095 607.054 139.095H612.864C612.934 139.095 612.992 139.06 613.039 138.99C613.086 138.92 613.097 138.85 613.074 138.78L609.994 127.79C609.994 127.767 609.982 127.755 609.959 127.755C609.936 127.755 609.924 127.767 609.924 127.79ZM600.859 149C600.369 149 599.984 148.802 599.704 148.405C599.424 148.008 599.366 147.577 599.529 147.11L606.774 125.34C606.984 124.78 607.322 124.325 607.789 123.975C608.279 123.625 608.816 123.45 609.399 123.45H610.659C611.266 123.45 611.802 123.625 612.269 123.975C612.759 124.325 613.097 124.78 613.284 125.34L620.529 147.11C620.692 147.577 620.634 148.008 620.354 148.405C620.074 148.802 619.689 149 619.199 149H617.939C617.379 149 616.854 148.825 616.364 148.475C615.897 148.102 615.582 147.635 615.419 147.075L614.299 143.12C614.276 142.933 614.147 142.84 613.914 142.84H606.004C605.794 142.84 605.666 142.933 605.619 143.12L604.499 147.075C604.359 147.635 604.044 148.102 603.554 148.475C603.087 148.825 602.562 149 601.979 149H600.859ZM628.87 127.51V144.94C628.87 145.103 628.964 145.208 629.15 145.255C629.897 145.372 630.597 145.43 631.25 145.43C633.98 145.43 635.987 144.695 637.27 143.225C638.554 141.732 639.195 139.282 639.195 135.875C639.195 132.818 638.542 130.578 637.235 129.155C635.929 127.732 633.934 127.02 631.25 127.02C630.597 127.02 629.897 127.078 629.15 127.195C628.964 127.242 628.87 127.347 628.87 127.51ZM626 149.105C625.417 149.035 624.939 148.79 624.565 148.37C624.192 147.927 624.005 147.413 624.005 146.83V125.62C624.005 125.037 624.192 124.535 624.565 124.115C624.939 123.672 625.417 123.415 626 123.345C627.494 123.182 629.162 123.1 631.005 123.1C635.159 123.1 638.332 124.185 640.525 126.355C642.742 128.525 643.85 131.698 643.85 135.875C643.85 140.355 642.742 143.727 640.525 145.99C638.332 148.23 635.159 149.35 631.005 149.35C629.162 149.35 627.494 149.268 626 149.105ZM649.789 149C649.253 149 648.786 148.802 648.389 148.405C647.993 148.008 647.794 147.542 647.794 147.005V125.445C647.794 124.908 647.993 124.442 648.389 124.045C648.786 123.648 649.253 123.45 649.789 123.45H661.689C662.226 123.45 662.693 123.648 663.089 124.045C663.486 124.442 663.684 124.908 663.684 125.445C663.684 125.982 663.486 126.448 663.089 126.845C662.693 127.218 662.226 127.405 661.689 127.405H653.009C652.799 127.405 652.694 127.51 652.694 127.72V133.355C652.694 133.565 652.799 133.67 653.009 133.67H661.094C661.631 133.67 662.074 133.857 662.424 134.23C662.798 134.603 662.984 135.047 662.984 135.56C662.984 136.073 662.798 136.517 662.424 136.89C662.074 137.24 661.631 137.415 661.094 137.415H653.009C652.799 137.415 652.694 137.52 652.694 137.73V144.73C652.694 144.94 652.799 145.045 653.009 145.045H661.689C662.226 145.045 662.693 145.243 663.089 145.64C663.486 146.013 663.684 146.468 663.684 147.005C663.684 147.542 663.486 148.008 663.089 148.405C662.693 148.802 662.226 149 661.689 149H649.789ZM673.679 127.44V135.035C673.679 135.222 673.784 135.315 673.994 135.315H675.744C679.897 135.315 681.974 133.833 681.974 130.87C681.974 128.233 680.049 126.915 676.199 126.915C675.499 126.915 674.764 126.973 673.994 127.09C673.784 127.137 673.679 127.253 673.679 127.44ZM670.844 149C670.307 149 669.841 148.802 669.444 148.405C669.047 148.008 668.849 147.542 668.849 147.005V125.62C668.849 125.06 669.036 124.558 669.409 124.115C669.782 123.672 670.249 123.427 670.809 123.38C672.792 123.193 674.706 123.1 676.549 123.1C679.979 123.1 682.546 123.742 684.249 125.025C685.952 126.285 686.804 128.07 686.804 130.38C686.804 132.037 686.349 133.495 685.439 134.755C684.552 136.015 683.351 136.902 681.834 137.415C681.811 137.415 681.799 137.427 681.799 137.45C681.799 137.497 681.811 137.52 681.834 137.52C682.954 138.22 683.911 139.597 684.704 141.65L686.804 147.145C686.967 147.588 686.909 148.008 686.629 148.405C686.372 148.802 686.011 149 685.544 149H684.459C683.852 149 683.304 148.837 682.814 148.51C682.324 148.16 681.974 147.705 681.764 147.145L679.804 141.755C679.384 140.635 678.906 139.9 678.369 139.55C677.832 139.2 676.911 139.025 675.604 139.025H673.994C673.784 139.025 673.679 139.13 673.679 139.34V147.005C673.679 147.542 673.481 148.008 673.084 148.405C672.711 148.802 672.256 149 671.719 149H670.844Z" fill="black"/>
</g>
<path d="M468.375 209C467.992 209 467.658 208.858 467.375 208.575C467.108 208.292 466.975 207.958 466.975 207.575V192.175C466.975 191.792 467.108 191.458 467.375 191.175C467.658 190.892 467.992 190.75 468.375 190.75H468.925C469.875 190.75 470.575 191.167 471.025 192L477.2 203.15C477.2 203.167 477.208 203.175 477.225 203.175C477.242 203.175 477.25 203.167 477.25 203.15V192.175C477.25 191.792 477.392 191.458 477.675 191.175C477.958 190.892 478.292 190.75 478.675 190.75H479.225C479.608 190.75 479.933 190.892 480.2 191.175C480.483 191.458 480.625 191.792 480.625 192.175V207.575C480.625 207.958 480.483 208.292 480.2 208.575C479.933 208.858 479.608 209 479.225 209H478.675C477.725 209 477.025 208.583 476.575 207.75L470.4 196.6C470.4 196.583 470.392 196.575 470.375 196.575C470.358 196.575 470.35 196.583 470.35 196.6V207.575C470.35 207.958 470.208 208.292 469.925 208.575C469.642 208.858 469.308 209 468.925 209H468.375ZM491.978 199.225C491.494 198.525 490.761 198.175 489.778 198.175C488.794 198.175 488.053 198.525 487.553 199.225C487.069 199.908 486.828 201 486.828 202.5C486.828 204 487.069 205.1 487.553 205.8C488.053 206.483 488.794 206.825 489.778 206.825C490.761 206.825 491.494 206.483 491.978 205.8C492.478 205.1 492.728 204 492.728 202.5C492.728 201 492.478 199.908 491.978 199.225ZM494.428 207.5C493.328 208.667 491.778 209.25 489.778 209.25C487.778 209.25 486.219 208.667 485.103 207.5C484.003 206.317 483.453 204.65 483.453 202.5C483.453 200.35 484.003 198.692 485.103 197.525C486.219 196.342 487.778 195.75 489.778 195.75C491.778 195.75 493.328 196.342 494.428 197.525C495.544 198.692 496.103 200.35 496.103 202.5C496.103 204.65 495.544 206.317 494.428 207.5ZM504.352 198.25C502.435 198.25 501.477 199.667 501.477 202.5C501.477 203.917 501.735 204.983 502.252 205.7C502.769 206.4 503.469 206.75 504.352 206.75C505.135 206.75 505.81 206.492 506.377 205.975C506.944 205.458 507.227 204.867 507.227 204.2V200.8C507.227 200.133 506.944 199.542 506.377 199.025C505.81 198.508 505.135 198.25 504.352 198.25ZM503.352 209.25C501.869 209.25 500.635 208.65 499.652 207.45C498.669 206.233 498.177 204.583 498.177 202.5C498.177 200.35 498.644 198.692 499.577 197.525C500.527 196.342 501.785 195.75 503.352 195.75C504.769 195.75 506.019 196.267 507.102 197.3C507.119 197.317 507.135 197.325 507.152 197.325C507.169 197.325 507.177 197.317 507.177 197.3V191.675C507.177 191.292 507.319 190.958 507.602 190.675C507.885 190.392 508.219 190.25 508.602 190.25H509.102C509.485 190.25 509.819 190.392 510.102 190.675C510.385 190.958 510.527 191.292 510.527 191.675V207.575C510.527 207.958 510.385 208.292 510.102 208.575C509.819 208.858 509.485 209 509.102 209H508.827C508.427 209 508.085 208.867 507.802 208.6C507.535 208.317 507.394 207.975 507.377 207.575L507.352 207.4C507.352 207.383 507.344 207.375 507.327 207.375C507.31 207.375 507.294 207.383 507.277 207.4C506.177 208.633 504.869 209.25 503.352 209.25ZM519.413 198.075C518.563 198.075 517.904 198.317 517.438 198.8C516.988 199.267 516.704 200.025 516.588 201.075C516.588 201.208 516.654 201.275 516.788 201.275H521.688C521.821 201.275 521.888 201.208 521.888 201.075C521.821 199.075 520.996 198.075 519.413 198.075ZM520.038 209.25C517.854 209.25 516.171 208.683 514.988 207.55C513.821 206.4 513.238 204.717 513.238 202.5C513.238 200.3 513.763 198.625 514.813 197.475C515.863 196.325 517.379 195.75 519.363 195.75C523.063 195.75 524.963 197.85 525.063 202.05C525.079 202.45 524.938 202.783 524.638 203.05C524.338 203.317 523.988 203.45 523.588 203.45H516.763C516.613 203.45 516.554 203.525 516.588 203.675C516.704 204.792 517.071 205.608 517.688 206.125C518.321 206.625 519.238 206.875 520.438 206.875C521.188 206.875 522.021 206.75 522.938 206.5C523.238 206.417 523.513 206.467 523.763 206.65C524.029 206.833 524.163 207.083 524.163 207.4C524.163 207.783 524.046 208.125 523.813 208.425C523.596 208.708 523.304 208.883 522.938 208.95C522.004 209.15 521.038 209.25 520.038 209.25ZM526.497 214.475C526.114 214.492 525.797 214.367 525.547 214.1C525.28 213.85 525.147 213.542 525.147 213.175C525.147 212.825 525.28 212.517 525.547 212.25C525.814 211.983 526.13 211.833 526.497 211.8C527.614 211.733 528.33 211.5 528.647 211.1C528.98 210.7 529.147 209.917 529.147 208.75V197.425C529.147 197.042 529.289 196.708 529.572 196.425C529.855 196.142 530.189 196 530.572 196H531.247C531.63 196 531.955 196.142 532.222 196.425C532.505 196.708 532.647 197.042 532.647 197.425V208.75C532.647 210.867 532.23 212.325 531.397 213.125C530.58 213.925 528.947 214.375 526.497 214.475ZM531.247 190.25C531.63 190.25 531.955 190.392 532.222 190.675C532.505 190.958 532.647 191.292 532.647 191.675V191.825C532.647 192.208 532.505 192.542 532.222 192.825C531.955 193.108 531.63 193.25 531.247 193.25H530.572C530.189 193.25 529.855 193.108 529.572 192.825C529.289 192.542 529.147 192.208 529.147 191.825V191.675C529.147 191.292 529.289 190.958 529.572 190.675C529.855 190.392 530.189 190.25 530.572 190.25H531.247ZM541.317 203.75C539.567 203.367 538.317 202.842 537.567 202.175C536.834 201.508 536.467 200.642 536.467 199.575C536.467 198.375 536.909 197.442 537.792 196.775C538.692 196.092 540.017 195.75 541.767 195.75C542.867 195.75 543.959 195.85 545.042 196.05C545.409 196.117 545.701 196.3 545.917 196.6C546.151 196.883 546.267 197.217 546.267 197.6C546.267 197.917 546.142 198.175 545.892 198.375C545.642 198.558 545.359 198.608 545.042 198.525C544.109 198.292 543.126 198.175 542.092 198.175C540.592 198.175 539.842 198.592 539.842 199.425C539.842 199.825 539.984 200.158 540.267 200.425C540.551 200.692 541.034 200.9 541.717 201.05C543.634 201.433 544.942 201.95 545.642 202.6C546.359 203.25 546.717 204.2 546.717 205.45C546.717 206.65 546.267 207.583 545.367 208.25C544.467 208.917 543.159 209.25 541.442 209.25C540.326 209.25 539.184 209.117 538.017 208.85C537.651 208.767 537.351 208.575 537.117 208.275C536.884 207.958 536.767 207.6 536.767 207.2C536.767 206.883 536.892 206.642 537.142 206.475C537.409 206.308 537.692 206.267 537.992 206.35C539.076 206.65 540.101 206.8 541.067 206.8C542.584 206.8 543.342 206.35 543.342 205.45C543.342 205.017 543.192 204.675 542.892 204.425C542.609 204.175 542.084 203.95 541.317 203.75ZM470.425 230.6V236.625C470.425 236.742 470.492 236.817 470.625 236.85C471.258 236.933 471.875 236.975 472.475 236.975C473.825 236.975 474.85 236.683 475.55 236.1C476.267 235.5 476.625 234.65 476.625 233.55C476.625 231.333 475.242 230.225 472.475 230.225C471.875 230.225 471.258 230.267 470.625 230.35C470.492 230.383 470.425 230.467 470.425 230.6ZM468.375 246C467.992 246 467.658 245.858 467.375 245.575C467.108 245.292 466.975 244.958 466.975 244.575V229.3C466.975 228.9 467.108 228.542 467.375 228.225C467.642 227.908 467.975 227.733 468.375 227.7C469.792 227.567 471.158 227.5 472.475 227.5C474.975 227.5 476.85 228 478.1 229C479.35 229.983 479.975 231.417 479.975 233.3C479.975 235.383 479.367 236.958 478.15 238.025C476.95 239.092 475.167 239.625 472.8 239.625C472.25 239.625 471.525 239.592 470.625 239.525C470.492 239.525 470.425 239.592 470.425 239.725V244.575C470.425 244.958 470.283 245.292 470 245.575C469.717 245.858 469.383 246 469 246H468.375ZM486.254 246.25C484.787 246.25 483.721 245.85 483.054 245.05C482.387 244.233 482.054 242.858 482.054 240.925V234.425C482.054 234.042 482.196 233.708 482.479 233.425C482.762 233.142 483.096 233 483.479 233H483.879C484.262 233 484.596 233.142 484.879 233.425C485.162 233.708 485.304 234.042 485.304 234.425V240.575C485.304 241.742 485.462 242.55 485.779 243C486.096 243.45 486.629 243.675 487.379 243.675C488.062 243.675 488.696 243.383 489.279 242.8C489.879 242.217 490.179 241.592 490.179 240.925V234.425C490.179 234.042 490.321 233.708 490.604 233.425C490.887 233.142 491.221 233 491.604 233H492.104C492.487 233 492.812 233.142 493.079 233.425C493.362 233.708 493.504 234.042 493.504 234.425V244.575C493.504 244.958 493.362 245.292 493.079 245.575C492.812 245.858 492.487 246 492.104 246H491.779C491.379 246 491.037 245.867 490.754 245.6C490.487 245.317 490.346 244.975 490.329 244.575L490.304 244.4C490.304 244.383 490.296 244.375 490.279 244.375C490.262 244.375 490.246 244.383 490.229 244.4C489.096 245.633 487.771 246.25 486.254 246.25ZM500.25 237.8V241.2C500.25 241.867 500.533 242.458 501.1 242.975C501.683 243.492 502.358 243.75 503.125 243.75C504.008 243.75 504.708 243.392 505.225 242.675C505.741 241.958 506 240.9 506 239.5C506 236.667 505.041 235.25 503.125 235.25C502.358 235.25 501.683 235.508 501.1 236.025C500.533 236.542 500.25 237.133 500.25 237.8ZM498.375 251.5C497.991 251.5 497.658 251.358 497.375 251.075C497.091 250.792 496.95 250.458 496.95 250.075V234.425C496.95 234.042 497.091 233.708 497.375 233.425C497.658 233.142 497.991 233 498.375 233H498.675C499.075 233 499.416 233.142 499.7 233.425C499.983 233.692 500.133 234.025 500.15 234.425V234.6C500.15 234.617 500.158 234.625 500.175 234.625C500.191 234.625 500.208 234.617 500.225 234.6C500.825 233.933 501.425 233.458 502.025 233.175C502.625 232.892 503.325 232.75 504.125 232.75C505.691 232.75 506.941 233.342 507.875 234.525C508.808 235.692 509.275 237.35 509.275 239.5C509.275 241.583 508.783 243.233 507.8 244.45C506.833 245.65 505.608 246.25 504.125 246.25C502.675 246.25 501.416 245.725 500.35 244.675C500.333 244.658 500.316 244.65 500.3 244.65C500.283 244.65 500.275 244.658 500.275 244.675V250.075C500.275 250.458 500.133 250.792 499.85 251.075C499.583 251.358 499.258 251.5 498.875 251.5H498.375ZM515.264 237.8V241.2C515.264 241.867 515.548 242.458 516.114 242.975C516.698 243.492 517.373 243.75 518.139 243.75C519.023 243.75 519.723 243.392 520.239 242.675C520.756 241.958 521.014 240.9 521.014 239.5C521.014 236.667 520.056 235.25 518.139 235.25C517.373 235.25 516.698 235.508 516.114 236.025C515.548 236.542 515.264 237.133 515.264 237.8ZM513.389 251.5C513.006 251.5 512.673 251.358 512.389 251.075C512.106 250.792 511.964 250.458 511.964 250.075V234.425C511.964 234.042 512.106 233.708 512.389 233.425C512.673 233.142 513.006 233 513.389 233H513.689C514.089 233 514.431 233.142 514.714 233.425C514.998 233.692 515.148 234.025 515.164 234.425V234.6C515.164 234.617 515.173 234.625 515.189 234.625C515.206 234.625 515.223 234.617 515.239 234.6C515.839 233.933 516.439 233.458 517.039 233.175C517.639 232.892 518.339 232.75 519.139 232.75C520.706 232.75 521.956 233.342 522.889 234.525C523.823 235.692 524.289 237.35 524.289 239.5C524.289 241.583 523.798 243.233 522.814 244.45C521.848 245.65 520.623 246.25 519.139 246.25C517.689 246.25 516.431 245.725 515.364 244.675C515.348 244.658 515.331 244.65 515.314 244.65C515.298 244.65 515.289 244.658 515.289 244.675V250.075C515.289 250.458 515.148 250.792 514.864 251.075C514.598 251.358 514.273 251.5 513.889 251.5H513.389ZM532.523 235.075C531.673 235.075 531.015 235.317 530.548 235.8C530.098 236.267 529.815 237.025 529.698 238.075C529.698 238.208 529.765 238.275 529.898 238.275H534.798C534.931 238.275 534.998 238.208 534.998 238.075C534.931 236.075 534.106 235.075 532.523 235.075ZM533.148 246.25C530.965 246.25 529.281 245.683 528.098 244.55C526.931 243.4 526.348 241.717 526.348 239.5C526.348 237.3 526.873 235.625 527.923 234.475C528.973 233.325 530.49 232.75 532.473 232.75C536.173 232.75 538.073 234.85 538.173 239.05C538.19 239.45 538.048 239.783 537.748 240.05C537.448 240.317 537.098 240.45 536.698 240.45H529.873C529.723 240.45 529.665 240.525 529.698 240.675C529.815 241.792 530.181 242.608 530.798 243.125C531.431 243.625 532.348 243.875 533.548 243.875C534.298 243.875 535.131 243.75 536.048 243.5C536.348 243.417 536.623 243.467 536.873 243.65C537.14 243.833 537.273 244.083 537.273 244.4C537.273 244.783 537.156 245.125 536.923 245.425C536.706 245.708 536.415 245.883 536.048 245.95C535.115 246.15 534.148 246.25 533.148 246.25ZM541.201 235.925C540.868 235.925 540.585 235.808 540.351 235.575C540.118 235.325 540.001 235.033 540.001 234.7C540.001 234.367 540.118 234.083 540.351 233.85C540.585 233.617 540.868 233.5 541.201 233.5H542.401C542.551 233.5 542.626 233.425 542.626 233.275V230.175C542.626 229.792 542.76 229.458 543.026 229.175C543.31 228.892 543.643 228.75 544.026 228.75H544.526C544.91 228.75 545.243 228.892 545.526 229.175C545.81 229.458 545.951 229.792 545.951 230.175V233.275C545.951 233.425 546.026 233.5 546.176 233.5H549.026C549.36 233.5 549.643 233.617 549.876 233.85C550.126 234.083 550.251 234.367 550.251 234.7C550.251 235.033 550.126 235.325 549.876 235.575C549.643 235.808 549.36 235.925 549.026 235.925H546.176C546.026 235.925 545.951 235.992 545.951 236.125V241.175C545.951 242.258 546.068 242.958 546.301 243.275C546.535 243.592 547.018 243.75 547.751 243.75C548.151 243.75 548.451 243.733 548.651 243.7C548.985 243.667 549.276 243.742 549.526 243.925C549.776 244.108 549.901 244.358 549.901 244.675C549.901 245.042 549.776 245.375 549.526 245.675C549.293 245.958 549.001 246.117 548.651 246.15C547.918 246.217 547.368 246.25 547.001 246.25C545.385 246.25 544.251 245.908 543.601 245.225C542.951 244.525 542.626 243.283 542.626 241.5V236.125C542.626 235.992 542.551 235.925 542.401 235.925H541.201ZM558.768 235.075C557.918 235.075 557.26 235.317 556.793 235.8C556.343 236.267 556.06 237.025 555.943 238.075C555.943 238.208 556.01 238.275 556.143 238.275H561.043C561.176 238.275 561.243 238.208 561.243 238.075C561.176 236.075 560.351 235.075 558.768 235.075ZM559.393 246.25C557.21 246.25 555.526 245.683 554.343 244.55C553.176 243.4 552.593 241.717 552.593 239.5C552.593 237.3 553.118 235.625 554.168 234.475C555.218 233.325 556.735 232.75 558.718 232.75C562.418 232.75 564.318 234.85 564.418 239.05C564.435 239.45 564.293 239.783 563.993 240.05C563.693 240.317 563.343 240.45 562.943 240.45H556.118C555.968 240.45 555.91 240.525 555.943 240.675C556.06 241.792 556.426 242.608 557.043 243.125C557.676 243.625 558.593 243.875 559.793 243.875C560.543 243.875 561.376 243.75 562.293 243.5C562.593 243.417 562.868 243.467 563.118 243.65C563.385 243.833 563.518 244.083 563.518 244.4C563.518 244.783 563.401 245.125 563.168 245.425C562.951 245.708 562.66 245.883 562.293 245.95C561.36 246.15 560.393 246.25 559.393 246.25ZM572.66 235.075C571.81 235.075 571.151 235.317 570.685 235.8C570.235 236.267 569.951 237.025 569.835 238.075C569.835 238.208 569.901 238.275 570.035 238.275H574.935C575.068 238.275 575.135 238.208 575.135 238.075C575.068 236.075 574.243 235.075 572.66 235.075ZM573.285 246.25C571.101 246.25 569.418 245.683 568.235 244.55C567.068 243.4 566.485 241.717 566.485 239.5C566.485 237.3 567.01 235.625 568.06 234.475C569.11 233.325 570.626 232.75 572.61 232.75C576.31 232.75 578.21 234.85 578.31 239.05C578.326 239.45 578.185 239.783 577.885 240.05C577.585 240.317 577.235 240.45 576.835 240.45H570.01C569.86 240.45 569.801 240.525 569.835 240.675C569.951 241.792 570.318 242.608 570.935 243.125C571.568 243.625 572.485 243.875 573.685 243.875C574.435 243.875 575.268 243.75 576.185 243.5C576.485 243.417 576.76 243.467 577.01 243.65C577.276 243.833 577.41 244.083 577.41 244.4C577.41 244.783 577.293 245.125 577.06 245.425C576.843 245.708 576.551 245.883 576.185 245.95C575.251 246.15 574.285 246.25 573.285 246.25ZM582.432 246C582.049 246 581.716 245.858 581.432 245.575C581.149 245.292 581.007 244.958 581.007 244.575V234.425C581.007 234.042 581.149 233.708 581.432 233.425C581.716 233.142 582.049 233 582.432 233H582.932C583.316 233 583.649 233.142 583.932 233.425C584.216 233.708 584.357 234.042 584.357 234.425V235.475C584.357 235.492 584.366 235.5 584.382 235.5C584.416 235.5 584.432 235.492 584.432 235.475C584.916 234.808 585.549 234.267 586.332 233.85C587.116 233.417 587.974 233.15 588.907 233.05C589.257 233.017 589.557 233.133 589.807 233.4C590.057 233.65 590.182 233.95 590.182 234.3C590.182 234.65 590.057 234.95 589.807 235.2C589.557 235.45 589.257 235.592 588.907 235.625C585.957 235.858 584.482 237.358 584.482 240.125V244.575C584.482 244.958 584.341 245.292 584.057 245.575C583.774 245.858 583.441 246 583.057 246H582.432ZM468.4 283C468.017 283 467.683 282.858 467.4 282.575C467.117 282.292 466.975 281.958 466.975 281.575V266.175C466.975 265.792 467.117 265.458 467.4 265.175C467.683 264.892 468.017 264.75 468.4 264.75H476.9C477.283 264.75 477.617 264.892 477.9 265.175C478.183 265.458 478.325 265.792 478.325 266.175C478.325 266.558 478.183 266.892 477.9 267.175C477.617 267.442 477.283 267.575 476.9 267.575H470.7C470.55 267.575 470.475 267.65 470.475 267.8V271.825C470.475 271.975 470.55 272.05 470.7 272.05H476.475C476.858 272.05 477.175 272.183 477.425 272.45C477.692 272.717 477.825 273.033 477.825 273.4C477.825 273.767 477.692 274.083 477.425 274.35C477.175 274.6 476.858 274.725 476.475 274.725H470.7C470.55 274.725 470.475 274.8 470.475 274.95V279.95C470.475 280.1 470.55 280.175 470.7 280.175H476.9C477.283 280.175 477.617 280.317 477.9 280.6C478.183 280.867 478.325 281.192 478.325 281.575C478.325 281.958 478.183 282.292 477.9 282.575C477.617 282.858 477.283 283 476.9 283H468.4ZM483.939 283C483.556 283 483.222 282.858 482.939 282.575C482.656 282.292 482.514 281.958 482.514 281.575V265.675C482.514 265.292 482.656 264.958 482.939 264.675C483.222 264.392 483.556 264.25 483.939 264.25H484.589C484.972 264.25 485.306 264.392 485.589 264.675C485.872 264.958 486.014 265.292 486.014 265.675V281.575C486.014 281.958 485.872 282.292 485.589 282.575C485.306 282.858 484.972 283 484.589 283H483.939ZM495.511 272.075C494.661 272.075 494.003 272.317 493.536 272.8C493.086 273.267 492.803 274.025 492.686 275.075C492.686 275.208 492.753 275.275 492.886 275.275H497.786C497.92 275.275 497.986 275.208 497.986 275.075C497.92 273.075 497.095 272.075 495.511 272.075ZM496.136 283.25C493.953 283.25 492.27 282.683 491.086 281.55C489.92 280.4 489.336 278.717 489.336 276.5C489.336 274.3 489.861 272.625 490.911 271.475C491.961 270.325 493.478 269.75 495.461 269.75C499.161 269.75 501.061 271.85 501.161 276.05C501.178 276.45 501.036 276.783 500.736 277.05C500.436 277.317 500.086 277.45 499.686 277.45H492.861C492.711 277.45 492.653 277.525 492.686 277.675C492.803 278.792 493.17 279.608 493.786 280.125C494.42 280.625 495.336 280.875 496.536 280.875C497.286 280.875 498.12 280.75 499.036 280.5C499.336 280.417 499.611 280.467 499.861 280.65C500.128 280.833 500.261 281.083 500.261 281.4C500.261 281.783 500.145 282.125 499.911 282.425C499.695 282.708 499.403 282.883 499.036 282.95C498.103 283.15 497.136 283.25 496.136 283.25ZM509.678 283.25C507.611 283.25 506.02 282.683 504.903 281.55C503.786 280.4 503.228 278.717 503.228 276.5C503.228 274.317 503.761 272.65 504.828 271.5C505.911 270.333 507.445 269.75 509.428 269.75C510.311 269.75 511.161 269.808 511.978 269.925C512.361 269.975 512.678 270.15 512.928 270.45C513.178 270.75 513.303 271.1 513.303 271.5C513.303 271.833 513.17 272.1 512.903 272.3C512.653 272.5 512.361 272.567 512.028 272.5C511.378 272.367 510.653 272.3 509.853 272.3C508.803 272.3 508.02 272.633 507.503 273.3C506.986 273.967 506.728 275.033 506.728 276.5C506.728 278 507.003 279.075 507.553 279.725C508.103 280.375 508.953 280.7 510.103 280.7C510.92 280.7 511.628 280.625 512.228 280.475C512.545 280.392 512.828 280.45 513.078 280.65C513.345 280.85 513.478 281.108 513.478 281.425C513.478 281.825 513.353 282.175 513.103 282.475C512.87 282.775 512.561 282.958 512.178 283.025C511.328 283.175 510.495 283.25 509.678 283.25ZM517.373 272.925C517.04 272.925 516.757 272.808 516.523 272.575C516.29 272.325 516.173 272.033 516.173 271.7C516.173 271.367 516.29 271.083 516.523 270.85C516.757 270.617 517.04 270.5 517.373 270.5H518.573C518.723 270.5 518.798 270.425 518.798 270.275V267.175C518.798 266.792 518.932 266.458 519.198 266.175C519.482 265.892 519.815 265.75 520.198 265.75H520.698C521.082 265.75 521.415 265.892 521.698 266.175C521.982 266.458 522.123 266.792 522.123 267.175V270.275C522.123 270.425 522.198 270.5 522.348 270.5H525.198C525.532 270.5 525.815 270.617 526.048 270.85C526.298 271.083 526.423 271.367 526.423 271.7C526.423 272.033 526.298 272.325 526.048 272.575C525.815 272.808 525.532 272.925 525.198 272.925H522.348C522.198 272.925 522.123 272.992 522.123 273.125V278.175C522.123 279.258 522.24 279.958 522.473 280.275C522.707 280.592 523.19 280.75 523.923 280.75C524.323 280.75 524.623 280.733 524.823 280.7C525.157 280.667 525.448 280.742 525.698 280.925C525.948 281.108 526.073 281.358 526.073 281.675C526.073 282.042 525.948 282.375 525.698 282.675C525.465 282.958 525.173 283.117 524.823 283.15C524.09 283.217 523.54 283.25 523.173 283.25C521.557 283.25 520.423 282.908 519.773 282.225C519.123 281.525 518.798 280.283 518.798 278.5V273.125C518.798 272.992 518.723 272.925 518.573 272.925H517.373ZM531.309 283C530.926 283 530.593 282.858 530.309 282.575C530.026 282.292 529.884 281.958 529.884 281.575V271.425C529.884 271.042 530.026 270.708 530.309 270.425C530.593 270.142 530.926 270 531.309 270H531.809C532.193 270 532.526 270.142 532.809 270.425C533.093 270.708 533.234 271.042 533.234 271.425V272.475C533.234 272.492 533.243 272.5 533.259 272.5C533.293 272.5 533.309 272.492 533.309 272.475C533.793 271.808 534.426 271.267 535.209 270.85C535.993 270.417 536.851 270.15 537.784 270.05C538.134 270.017 538.434 270.133 538.684 270.4C538.934 270.65 539.059 270.95 539.059 271.3C539.059 271.65 538.934 271.95 538.684 272.2C538.434 272.45 538.134 272.592 537.784 272.625C534.834 272.858 533.359 274.358 533.359 277.125V281.575C533.359 281.958 533.218 282.292 532.934 282.575C532.651 282.858 532.318 283 531.934 283H531.309ZM549.18 273.225C548.696 272.525 547.963 272.175 546.98 272.175C545.996 272.175 545.255 272.525 544.755 273.225C544.271 273.908 544.03 275 544.03 276.5C544.03 278 544.271 279.1 544.755 279.8C545.255 280.483 545.996 280.825 546.98 280.825C547.963 280.825 548.696 280.483 549.18 279.8C549.68 279.1 549.93 278 549.93 276.5C549.93 275 549.68 273.908 549.18 273.225ZM551.63 281.5C550.53 282.667 548.98 283.25 546.98 283.25C544.98 283.25 543.421 282.667 542.305 281.5C541.205 280.317 540.655 278.65 540.655 276.5C540.655 274.35 541.205 272.692 542.305 271.525C543.421 270.342 544.98 269.75 546.98 269.75C548.98 269.75 550.53 270.342 551.63 271.525C552.746 272.692 553.305 274.35 553.305 276.5C553.305 278.65 552.746 280.317 551.63 281.5ZM557.31 283C556.927 283 556.593 282.858 556.31 282.575C556.027 282.292 555.885 281.958 555.885 281.575V271.425C555.885 271.042 556.027 270.708 556.31 270.425C556.593 270.142 556.927 270 557.31 270H557.635C558.035 270 558.368 270.142 558.635 270.425C558.918 270.692 559.068 271.025 559.085 271.425V271.6C559.085 271.617 559.093 271.625 559.11 271.625C559.127 271.625 559.143 271.617 559.16 271.6C560.293 270.367 561.618 269.75 563.135 269.75C564.652 269.75 565.752 270.183 566.435 271.05C567.135 271.9 567.485 273.325 567.485 275.325V281.575C567.485 281.958 567.343 282.292 567.06 282.575C566.777 282.858 566.443 283 566.06 283H565.635C565.252 283 564.918 282.858 564.635 282.575C564.368 282.292 564.235 281.958 564.235 281.575V275.575C564.235 274.325 564.068 273.475 563.735 273.025C563.418 272.558 562.843 272.325 562.01 272.325C561.327 272.325 560.693 272.617 560.11 273.2C559.527 273.783 559.235 274.408 559.235 275.075V281.575C559.235 281.958 559.093 282.292 558.81 282.575C558.527 282.858 558.193 283 557.81 283H557.31ZM472.025 312.3C470.025 311.633 468.575 310.825 467.675 309.875C466.792 308.925 466.35 307.775 466.35 306.425C466.35 304.908 466.858 303.708 467.875 302.825C468.892 301.942 470.317 301.5 472.15 301.5C473.7 301.5 475.05 301.675 476.2 302.025C476.6 302.142 476.917 302.383 477.15 302.75C477.4 303.1 477.525 303.492 477.525 303.925V304.15C477.525 304.467 477.383 304.717 477.1 304.9C476.817 305.067 476.525 305.092 476.225 304.975C474.975 304.492 473.7 304.25 472.4 304.25C471.567 304.25 470.933 304.442 470.5 304.825C470.067 305.208 469.85 305.742 469.85 306.425C469.85 307.625 470.633 308.483 472.2 309C474.45 309.717 476.008 310.533 476.875 311.45C477.758 312.367 478.2 313.55 478.2 315C478.2 318.5 476.042 320.25 471.725 320.25C470.375 320.25 469.15 320.042 468.05 319.625C467.65 319.475 467.333 319.217 467.1 318.85C466.883 318.483 466.775 318.075 466.775 317.625V317.325C466.775 317.008 466.908 316.783 467.175 316.65C467.442 316.5 467.717 316.492 468 316.625C469.1 317.175 470.258 317.45 471.475 317.45C473.592 317.45 474.65 316.65 474.65 315.05C474.65 314.4 474.45 313.867 474.05 313.45C473.65 313.017 472.975 312.633 472.025 312.3ZM486.851 320.25C484.784 320.25 483.192 319.683 482.076 318.55C480.959 317.4 480.401 315.717 480.401 313.5C480.401 311.317 480.934 309.65 482.001 308.5C483.084 307.333 484.617 306.75 486.601 306.75C487.484 306.75 488.334 306.808 489.151 306.925C489.534 306.975 489.851 307.15 490.101 307.45C490.351 307.75 490.476 308.1 490.476 308.5C490.476 308.833 490.342 309.1 490.076 309.3C489.826 309.5 489.534 309.567 489.201 309.5C488.551 309.367 487.826 309.3 487.026 309.3C485.976 309.3 485.192 309.633 484.676 310.3C484.159 310.967 483.901 312.033 483.901 313.5C483.901 315 484.176 316.075 484.726 316.725C485.276 317.375 486.126 317.7 487.276 317.7C488.092 317.7 488.801 317.625 489.401 317.475C489.717 317.392 490.001 317.45 490.251 317.65C490.517 317.85 490.651 318.108 490.651 318.425C490.651 318.825 490.526 319.175 490.276 319.475C490.042 319.775 489.734 319.958 489.351 320.025C488.501 320.175 487.667 320.25 486.851 320.25ZM495.396 320C495.013 320 494.679 319.858 494.396 319.575C494.113 319.292 493.971 318.958 493.971 318.575V308.425C493.971 308.042 494.113 307.708 494.396 307.425C494.679 307.142 495.013 307 495.396 307H495.896C496.279 307 496.613 307.142 496.896 307.425C497.179 307.708 497.321 308.042 497.321 308.425V309.475C497.321 309.492 497.329 309.5 497.346 309.5C497.379 309.5 497.396 309.492 497.396 309.475C497.879 308.808 498.513 308.267 499.296 307.85C500.079 307.417 500.938 307.15 501.871 307.05C502.221 307.017 502.521 307.133 502.771 307.4C503.021 307.65 503.146 307.95 503.146 308.3C503.146 308.65 503.021 308.95 502.771 309.2C502.521 309.45 502.221 309.592 501.871 309.625C498.921 309.858 497.446 311.358 497.446 314.125V318.575C497.446 318.958 497.304 319.292 497.021 319.575C496.738 319.858 496.404 320 496.021 320H495.396ZM511.473 313.75C509.09 313.75 507.898 314.483 507.898 315.95C507.898 316.483 508.048 316.917 508.348 317.25C508.665 317.583 509.065 317.75 509.548 317.75C510.498 317.75 511.265 317.458 511.848 316.875C512.431 316.275 512.723 315.458 512.723 314.425V313.975C512.723 313.825 512.648 313.75 512.498 313.75H511.473ZM508.648 320.25C507.515 320.25 506.573 319.883 505.823 319.15C505.09 318.4 504.723 317.433 504.723 316.25C504.723 314.8 505.273 313.675 506.373 312.875C507.49 312.075 509.19 311.675 511.473 311.675H512.498C512.648 311.675 512.723 311.6 512.723 311.45V311.25C512.723 310.483 512.54 309.95 512.173 309.65C511.806 309.333 511.156 309.175 510.223 309.175C509.256 309.175 508.073 309.35 506.673 309.7C506.373 309.783 506.098 309.733 505.848 309.55C505.598 309.35 505.473 309.092 505.473 308.775C505.473 308.392 505.59 308.05 505.823 307.75C506.056 307.433 506.356 307.242 506.723 307.175C507.99 306.892 509.181 306.75 510.298 306.75C512.431 306.75 513.923 307.133 514.773 307.9C515.623 308.667 516.048 310.008 516.048 311.925V318.575C516.048 318.958 515.906 319.292 515.623 319.575C515.356 319.858 515.031 320 514.648 320H514.373C513.973 320 513.631 319.867 513.348 319.6C513.065 319.317 512.915 318.975 512.898 318.575V318.225C512.898 318.208 512.89 318.2 512.873 318.2C512.84 318.2 512.823 318.208 512.823 318.225C511.806 319.575 510.415 320.25 508.648 320.25ZM522.662 311.8V315.2C522.662 315.867 522.945 316.458 523.512 316.975C524.095 317.492 524.77 317.75 525.537 317.75C526.42 317.75 527.12 317.392 527.637 316.675C528.153 315.958 528.412 314.9 528.412 313.5C528.412 310.667 527.453 309.25 525.537 309.25C524.77 309.25 524.095 309.508 523.512 310.025C522.945 310.542 522.662 311.133 522.662 311.8ZM520.787 325.5C520.403 325.5 520.07 325.358 519.787 325.075C519.503 324.792 519.362 324.458 519.362 324.075V308.425C519.362 308.042 519.503 307.708 519.787 307.425C520.07 307.142 520.403 307 520.787 307H521.087C521.487 307 521.828 307.142 522.112 307.425C522.395 307.692 522.545 308.025 522.562 308.425V308.6C522.562 308.617 522.57 308.625 522.587 308.625C522.603 308.625 522.62 308.617 522.637 308.6C523.237 307.933 523.837 307.458 524.437 307.175C525.037 306.892 525.737 306.75 526.537 306.75C528.103 306.75 529.353 307.342 530.287 308.525C531.22 309.692 531.687 311.35 531.687 313.5C531.687 315.583 531.195 317.233 530.212 318.45C529.245 319.65 528.02 320.25 526.537 320.25C525.087 320.25 523.828 319.725 522.762 318.675C522.745 318.658 522.728 318.65 522.712 318.65C522.695 318.65 522.687 318.658 522.687 318.675V324.075C522.687 324.458 522.545 324.792 522.262 325.075C521.995 325.358 521.67 325.5 521.287 325.5H520.787ZM536.551 320C536.168 320 535.835 319.858 535.551 319.575C535.268 319.292 535.126 318.958 535.126 318.575V308.425C535.126 308.042 535.268 307.708 535.551 307.425C535.835 307.142 536.168 307 536.551 307H537.201C537.585 307 537.918 307.142 538.201 307.425C538.485 307.708 538.626 308.042 538.626 308.425V318.575C538.626 318.958 538.485 319.292 538.201 319.575C537.918 319.858 537.585 320 537.201 320H536.551ZM536.551 304.25C536.168 304.25 535.835 304.108 535.551 303.825C535.268 303.542 535.126 303.208 535.126 302.825V302.675C535.126 302.292 535.268 301.958 535.551 301.675C535.835 301.392 536.168 301.25 536.551 301.25H537.201C537.585 301.25 537.918 301.392 538.201 301.675C538.485 301.958 538.626 302.292 538.626 302.675V302.825C538.626 303.208 538.485 303.542 538.201 303.825C537.918 304.108 537.585 304.25 537.201 304.25H536.551ZM544.249 320C543.865 320 543.532 319.858 543.249 319.575C542.965 319.292 542.824 318.958 542.824 318.575V308.425C542.824 308.042 542.965 307.708 543.249 307.425C543.532 307.142 543.865 307 544.249 307H544.574C544.974 307 545.307 307.142 545.574 307.425C545.857 307.692 546.007 308.025 546.024 308.425V308.6C546.024 308.617 546.032 308.625 546.049 308.625C546.065 308.625 546.082 308.617 546.099 308.6C547.232 307.367 548.557 306.75 550.074 306.75C551.59 306.75 552.69 307.183 553.374 308.05C554.074 308.9 554.424 310.325 554.424 312.325V318.575C554.424 318.958 554.282 319.292 553.999 319.575C553.715 319.858 553.382 320 552.999 320H552.574C552.19 320 551.857 319.858 551.574 319.575C551.307 319.292 551.174 318.958 551.174 318.575V312.575C551.174 311.325 551.007 310.475 550.674 310.025C550.357 309.558 549.782 309.325 548.949 309.325C548.265 309.325 547.632 309.617 547.049 310.2C546.465 310.783 546.174 311.408 546.174 312.075V318.575C546.174 318.958 546.032 319.292 545.749 319.575C545.465 319.858 545.132 320 544.749 320H544.249ZM563.041 309.25C561.207 309.25 560.291 310.583 560.291 313.25C560.291 314.633 560.532 315.667 561.016 316.35C561.516 317.033 562.191 317.375 563.041 317.375C563.791 317.375 564.432 317.108 564.966 316.575C565.516 316.042 565.791 315.417 565.791 314.7V312C565.791 311.233 565.516 310.583 564.966 310.05C564.432 309.517 563.791 309.25 563.041 309.25ZM561.991 319.875C560.524 319.875 559.324 319.292 558.391 318.125C557.457 316.942 556.991 315.317 556.991 313.25C556.991 311.183 557.432 309.583 558.316 308.45C559.216 307.317 560.441 306.75 561.991 306.75C562.774 306.75 563.466 306.892 564.066 307.175C564.666 307.458 565.257 307.933 565.841 308.6C565.857 308.617 565.874 308.625 565.891 308.625C565.907 308.625 565.916 308.617 565.916 308.6V308.425C565.932 308.025 566.082 307.692 566.366 307.425C566.649 307.142 566.991 307 567.391 307H567.666C568.049 307 568.374 307.142 568.641 307.425C568.924 307.708 569.066 308.042 569.066 308.425V319C569.066 323.5 566.816 325.75 562.316 325.75C561.516 325.75 560.674 325.683 559.791 325.55C559.391 325.483 559.057 325.283 558.791 324.95C558.541 324.633 558.416 324.267 558.416 323.85C558.416 323.517 558.549 323.25 558.816 323.05C559.099 322.867 559.407 322.817 559.741 322.9C560.541 323.1 561.374 323.2 562.241 323.2C563.474 323.2 564.374 322.875 564.941 322.225C565.507 321.592 565.791 320.542 565.791 319.075V318.3C565.791 318.283 565.782 318.275 565.766 318.275C565.749 318.275 565.732 318.283 565.716 318.3C564.716 319.35 563.474 319.875 561.991 319.875Z" fill="black"/>
<rect width="707" height="377" fill="#829793" fill-opacity="0.34" style="mix-blend-mode:screen"/>
<defs>
<filter id="filter0_d" x="68" y="253" width="346" height="115" filterUnits="userSpaceOnUse" color-interpolation-filters="sRGB">
<feFlood flood-opacity="0" result="BackgroundImageFix"/>
<feColorMatrix in="SourceAlpha" type="matrix" values="0 0 0 0 0 0 0 0 0 0 0 0 0 0 0 0 0 0 127 0"/>
<feOffset dy="4"/>
<feGaussianBlur stdDeviation="2"/>
<feColorMatrix type="matrix" values="0 0 0 0 0 0 0 0 0 0 0 0 0 0 0 0 0 0 0.25 0"/>
<feBlend mode="normal" in2="BackgroundImageFix" result="effect1_dropShadow"/>
<feBlend mode="normal" in="SourceGraphic" in2="effect1_dropShadow" result="shape"/>
</filter>
<filter id="filter1_ddd" x="447.89" y="71.1" width="243.004" height="86.25" filterUnits="userSpaceOnUse" color-interpolation-filters="sRGB">
<feFlood flood-opacity="0" result="BackgroundImageFix"/>
<feColorMatrix in="SourceAlpha" type="matrix" values="0 0 0 0 0 0 0 0 0 0 0 0 0 0 0 0 0 0 127 0"/>
<feOffset dy="4"/>
<feGaussianBlur stdDeviation="2"/>
<feColorMatrix type="matrix" values="0 0 0 0 0 0 0 0 0 0 0 0 0 0 0 0 0 0 0.25 0"/>
<feBlend mode="normal" in2="BackgroundImageFix" result="effect1_dropShadow"/>
<feColorMatrix in="SourceAlpha" type="matrix" values="0 0 0 0 0 0 0 0 0 0 0 0 0 0 0 0 0 0 127 0"/>
<feOffset dy="4"/>
<feGaussianBlur stdDeviation="2"/>
<feColorMatrix type="matrix" values="0 0 0 0 0 0 0 0 0 0 0 0 0 0 0 0 0 0 0.25 0"/>
<feBlend mode="normal" in2="effect1_dropShadow" result="effect2_dropShadow"/>
<feColorMatrix in="SourceAlpha" type="matrix" values="0 0 0 0 0 0 0 0 0 0 0 0 0 0 0 0 0 0 127 0"/>
<feOffset dy="4"/>
<feGaussianBlur stdDeviation="2"/>
<feColorMatrix type="matrix" values="0 0 0 0 0 0 0 0 0 0 0 0 0 0 0 0 0 0 0.25 0"/>
<feBlend mode="normal" in2="effect2_dropShadow" result="effect3_dropShadow"/>
<feBlend mode="normal" in="SourceGraphic" in2="effect3_dropShadow" result="shape"/>
</filter>
<radialGradient id="paint0_radial" cx="0" cy="0" r="1" gradientUnits="userSpaceOnUse" gradientTransform="translate(115.5 121.5) rotate(90) scale(100.5)">
<stop stop-color="#16A596"/>
<stop offset="0.0001" stop-color="#17BEAD"/>
<stop offset="1" stop-color="#69F7E8"/>
</radialGradient>
</defs>
</svg>
