<svg width="25" height="22" viewBox="0 0 25 22" fill="none" xmlns="http://www.w3.org/2000/svg">
<path d="M22.0781 1.91203H20.974V1.43436C20.974 0.641472 20.2321 0 19.3201 0C18.4051 0 17.6631 0.642848 17.6631 1.43436V1.91203H6.62328V1.43436C6.62328 0.641472 5.88136 0 4.96786 0C4.05435 0 3.31084 0.641472 3.31084 1.43436V1.91203H2.20829C0.988169 1.91203 0 2.76824 0 3.82543V20.0866C0 21.1438 0.988169 22 2.20829 22H22.0781C23.2982 22 24.288 21.1438 24.288 20.0866V3.82543C24.288 2.76824 23.2967 1.91203 22.0781 1.91203ZM18.7673 1.43436C18.7673 1.17007 19.0119 0.955325 19.3201 0.955325C19.6236 0.955325 19.873 1.17007 19.873 1.43436V1.91203H18.7673V1.43436ZM4.41499 1.43436C4.41499 1.17007 4.66283 0.955325 4.96786 0.955325C5.27289 0.955325 5.51913 1.17007 5.51913 1.43436V1.91203H4.41499V1.43436ZM23.1823 20.0866C23.1823 20.6152 22.6882 21.0419 22.0781 21.0419H2.20829C1.59823 21.0419 1.10414 20.6138 1.10414 20.0866V7.65086H23.1823V20.0866ZM23.1823 6.69553H1.10414V3.82543C1.10414 3.29821 1.59823 2.86873 2.20829 2.86873H22.0781C22.6898 2.86873 23.1823 3.29821 23.1823 3.82543V6.69553ZM4.96786 13.3897C5.88295 13.3897 6.62328 12.7468 6.62328 11.9553C6.62328 11.1624 5.88136 10.5196 4.96786 10.5196C4.05435 10.5196 3.31243 11.1624 3.31243 11.9553C3.31084 12.7482 4.05277 13.3897 4.96786 13.3897ZM4.96786 11.4777C5.27289 11.4777 5.51913 11.691 5.51913 11.9567C5.51913 12.2196 5.27289 12.4357 4.96786 12.4357C4.66283 12.4357 4.41499 12.221 4.41499 11.9567C4.41499 11.691 4.66283 11.4777 4.96786 11.4777ZM19.3201 13.3897C20.2321 13.3897 20.974 12.7468 20.974 11.9553C20.974 11.1624 20.2321 10.5196 19.3201 10.5196C18.4051 10.5196 17.6631 11.1624 17.6631 11.9553C17.6631 12.7482 18.4035 13.3897 19.3201 13.3897ZM19.3201 11.4777C19.6236 11.4777 19.873 11.691 19.873 11.9567C19.873 12.2196 19.6252 12.4357 19.3201 12.4357C19.0135 12.4357 18.7673 12.221 18.7673 11.9567C18.7673 11.691 19.0119 11.4777 19.3201 11.4777ZM19.3201 18.1732C20.2321 18.1732 20.974 17.5303 20.974 16.7375C20.974 15.9459 20.2321 15.3031 19.3201 15.3031C18.4051 15.3031 17.6631 15.9459 17.6631 16.7375C17.6631 17.5303 18.4035 18.1732 19.3201 18.1732ZM19.3201 16.2598C19.6236 16.2598 19.873 16.4732 19.873 16.7375C19.873 17.0018 19.6252 17.2165 19.3201 17.2165C19.0135 17.2165 18.7673 17.0031 18.7673 16.7375C18.7673 16.4745 19.0119 16.2598 19.3201 16.2598ZM12.1424 18.1732C13.0559 18.1732 13.7978 17.5303 13.7978 16.7375C13.7978 15.9459 13.0559 15.3031 12.1424 15.3031C11.2273 15.3031 10.487 15.9459 10.487 16.7375C10.487 17.5303 11.2289 18.1732 12.1424 18.1732ZM12.1424 16.2598C12.4474 16.2598 12.6953 16.4732 12.6953 16.7375C12.6953 17.0018 12.4474 17.2165 12.1424 17.2165C11.8374 17.2165 11.5895 17.0031 11.5895 16.7375C11.5911 16.4745 11.839 16.2598 12.1424 16.2598ZM4.96786 18.1732C5.88295 18.1732 6.62328 17.5303 6.62328 16.7375C6.62328 15.9459 5.88136 15.3031 4.96786 15.3031C4.05435 15.3031 3.31243 15.9459 3.31243 16.7375C3.31084 17.5303 4.05277 18.1732 4.96786 18.1732ZM4.96786 16.2598C5.27289 16.2598 5.51913 16.4732 5.51913 16.7375C5.51913 17.0018 5.27289 17.2165 4.96786 17.2165C4.66283 17.2165 4.41499 17.0031 4.41499 16.7375C4.41499 16.4745 4.66283 16.2598 4.96786 16.2598ZM12.1424 13.3897C13.0559 13.3897 13.7978 12.7468 13.7978 11.9553C13.7978 11.1624 13.0559 10.5196 12.1424 10.5196C11.2273 10.5196 10.487 11.1624 10.487 11.9553C10.487 12.7482 11.2289 13.3897 12.1424 13.3897ZM12.1424 11.4777C12.4474 11.4777 12.6953 11.691 12.6953 11.9567C12.6953 12.2196 12.4474 12.4357 12.1424 12.4357C11.8374 12.4357 11.5895 12.221 11.5895 11.9567C11.5911 11.691 11.839 11.4777 12.1424 11.4777Z" fill="#19D3DA"/>
</svg>
