<svg width="389" height="388" viewBox="0 0 389 388" fill="none" xmlns="http://www.w3.org/2000/svg">
<g filter="url(#filter0_d)">
<g filter="url(#filter1_f)">
<ellipse cx="194.5" cy="192" rx="183.5" ry="181" fill="#686D76"/>
<path d="M194.5 376.5C297.732 376.5 381.5 293.942 381.5 192C381.5 90.0584 297.732 7.5 194.5 7.5C91.2682 7.5 7.5 90.0584 7.5 192C7.5 293.942 91.2682 376.5 194.5 376.5Z" stroke="#373A40" stroke-width="7"/>
</g>
<mask id="mask0" mask-type="alpha" maskUnits="userSpaceOnUse" x="11" y="11" width="367" height="362">
<path d="M377.5 192C377.5 291.681 295.575 372.5 194.5 372.5C93.4254 372.5 11.5 291.681 11.5 192C11.5 92.319 93.4254 11.5 194.5 11.5C295.575 11.5 377.5 92.319 377.5 192Z" fill="#19D3DA" stroke="black"/>
</mask>
<g mask="url(#mask0)">
<path d="M194.778 199.237H193.222V197.733H194.778V199.237Z" fill="#080806"/>
<path d="M342.421 348.601C339.005 341.461 329.674 330.88 319.307 327.956C306.491 324.341 277.562 319.97 266.835 317.541C258.236 315.591 240.917 300.549 234.848 295.5C233.759 294.597 232.867 292.733 232.846 291.347C232.629 275.002 239.371 231.583 239.371 231.583H194H148.631C148.631 231.583 155.373 275.001 155.153 291.347C155.136 292.733 154.24 294.597 153.154 295.5C147.085 300.549 129.766 315.591 121.167 317.541C110.439 319.97 81.5097 324.49 68.6955 328.105C58.3249 331.027 48.9966 341.459 45.5807 348.599C39.813 360.648 38.4503 382.451 38.4503 401.257H194H349.55C349.55 382.452 348.186 360.649 342.421 348.601Z" fill="#EBC9B6"/>
<path d="M286.017 324.95C323.881 330.279 339.816 338.051 344.806 401.26H349.55C349.55 382.454 348.186 360.65 342.421 348.602C339.005 341.462 329.674 330.881 319.307 327.958C306.491 324.342 277.562 319.972 266.835 317.542C258.236 315.592 238.46 299.384 233.169 292.944C238.396 300.021 253.066 316.421 265.919 320.717C272.068 322.772 277.188 323.708 286.017 324.95ZM122.083 320.717C134.936 316.423 149.605 300.021 154.833 292.944C149.544 299.383 129.768 315.592 121.167 317.542C110.44 319.972 81.5113 324.491 68.6956 328.107C58.3282 331.028 48.9967 341.461 45.5808 348.601C39.8162 360.649 38.452 382.452 38.452 401.258H43.1963C48.1552 338.455 64.1566 330.272 101.985 324.949C110.812 323.708 115.935 322.772 122.083 320.717Z" fill="#FAE6DB"/>
<path d="M187.228 345.354C187.228 345.354 179.335 342.934 176.21 341.775C159.957 335.744 107.154 331.835 107.154 331.835C107.154 331.835 162.769 333.97 175.042 336.016C174.329 328.844 170.349 305.92 170.349 305.92C170.349 305.92 178.358 331.218 180.318 337.6C181.366 341.012 187.228 345.354 187.228 345.354ZM204.025 343.335C203.887 343.445 203.728 343.588 203.556 343.738C203.731 343.611 203.89 343.477 204.025 343.335ZM187.228 345.354C187.228 345.354 191.728 349.856 193.989 349.913C196.96 349.99 201.499 345.551 203.557 343.738C201.589 345.178 197.088 345.831 195.297 345.899C193.229 345.976 187.228 345.354 187.228 345.354ZM219.921 334.042C217.518 334.415 213.099 335.229 213.099 335.229L216.656 312.827C215.651 317.447 209.697 337.216 204.025 343.335C206.996 340.904 213.604 339.738 216.973 339.267C232.895 337.034 232.889 337.036 280.845 331.835C280.845 331.835 235.625 331.602 219.921 334.042Z" fill="#DCAE94"/>
<path d="M342.421 348.601C339.005 341.461 329.674 330.88 319.307 327.956C306.491 324.341 277.562 319.97 266.835 317.541C258.236 315.591 240.917 300.549 234.848 295.5C233.759 294.597 232.867 292.733 232.846 291.347C232.629 275.002 239.371 231.583 239.371 231.583H194H148.631C148.631 231.583 155.373 275.001 155.153 291.347C155.136 292.733 154.24 294.597 153.154 295.5C147.085 300.549 129.766 315.591 121.167 317.541C110.439 319.97 81.5097 324.49 68.6955 328.105C58.3249 331.027 48.9966 341.459 45.5807 348.599C39.8129 360.648 38.4503 382.451 38.4503 401.257H194H349.55C349.55 382.452 348.186 360.649 342.421 348.601Z" stroke="#BD7D5A" stroke-width="3.825"/>
<path d="M194.033 306.607C206.762 306.607 220.276 299.171 231.674 290.547C231.673 280.464 233.931 261.803 235.8 248.112C211.873 244.732 176.059 244.684 152.167 247.884C154.008 261.364 156.25 279.788 156.321 290.04C167.742 298.936 181.279 306.607 194.033 306.607Z" fill="url(#paint0_linear)"/>
<path d="M104.979 402.731L107.037 311.18C107.037 311.18 122.894 307.438 132.913 301.682C160.128 334.71 240.944 327.759 254.764 300.749C257.08 301.539 258.997 302.55 261.394 303.326C269.171 308.42 275.725 310.087 275.725 310.087L277.179 402.892C254.957 403.175 104.979 402.731 104.979 402.731Z" fill="#F5F4F5"/>
<path d="M278.019 315.392C271.43 314.31 266.18 312.839 263.316 310.06C255.005 325.143 221.687 334.701 210.655 336.102C242.627 326.659 256.057 319.833 261.361 303.63C264.457 307.215 271.506 308.969 280.514 310.457L278.019 315.392ZM120.378 310.391C122.64 309.922 123.769 308.535 126.014 307.995L123.637 305.186C118.793 308.547 109.683 310.158 98.9048 311.842L99.1972 317.465C105.351 316.277 111.357 314.775 116.975 312.466C128.615 325.232 146.791 331.511 165.289 334.111C142.084 328.718 128.778 319.614 120.378 310.391Z" fill="white"/>
<path d="M252.893 303.883C243.67 320.975 173.967 340.886 134.661 305.186C132.217 306.111 124.907 308.323 124.907 308.323C153.537 343.046 237.439 343.268 259.771 308.154C259.675 308.118 255.164 304.909 252.893 303.883Z" fill="#DFDDE2"/>
<path d="M254.677 300.552C238.987 328.498 157.337 332.453 132.976 301.492C124.079 303.833 115.525 308.828 106.912 310.078L104.979 402.731L277.177 402.892L275.847 309.033C270.607 307.969 265.735 304.915 261.453 303.174C259.085 302.213 257.076 301.348 254.677 300.552ZM132.387 302.426C154.013 337.159 239.432 330.192 255.923 302.575C257.923 303.326 258.435 303.622 260.754 304.355C243.672 336.263 159.171 346.432 124.609 306.081C124.852 306.021 129.949 303.242 132.387 302.426ZM122.894 307.438C150.835 348.129 243.072 341.825 262.24 305.502C264.995 307.594 269.286 309.999 274.584 311.121L277.167 400.007L105.475 400.031L108.437 312.32C112.767 310.215 119.72 308.663 122.894 307.438Z" fill="#B8B6C9"/>
<path d="M31.4054 402.443C27.4015 381.603 27.8402 330.841 45.4251 330.948C65.8581 322.958 90.953 313.791 112.004 307.913C122.749 297.011 132.903 286.643 152.739 275.846C153.344 279.756 155.654 288.696 152.756 293.558C150.648 297.097 143.761 301.947 137.895 306.148C134.739 310.24 131.786 314.233 127.63 319.822C135.669 353.374 142.564 370.644 143.336 399.746C143.336 399.746 141.077 400.782 243.621 400.343C247.066 366.734 251.387 349.85 259.765 318.953C259.765 318.953 253.064 311.409 248.555 305.608C245.36 302.603 235.551 294.276 234.804 292.592C232.976 288.468 233.952 283.282 234.975 275.491C251.764 282.822 261.419 293.576 275.546 307.541C287.568 310.729 323.548 322.536 341.569 330.433C347.736 330.268 351.218 333.441 353.814 338.657C362.221 355.5 360.232 379.725 357.205 403.033C327.509 403.08 116.049 406.361 31.4054 402.443Z" fill="#6A3A47"/>
<path d="M153.363 279.85C153.612 281.46 153.836 282.987 154.002 284.425C153.663 284.825 127.229 319.56 127.036 319.818C133.532 305.527 142.824 290.718 153.363 279.85ZM234.526 279.85C234.278 281.46 234.239 282.987 234.073 284.425C234.412 284.825 260.409 318.23 260.6 318.49C253.717 305.175 245.064 290.718 234.526 279.85ZM295.12 326.599C288.463 335.974 287.041 339.21 279.753 348.5C281.419 348.5 284.107 348.75 285.773 348.75C291.472 339.294 291.483 334.481 295.12 326.599ZM301.942 394.64C307.842 381.25 312.728 369.498 318.647 356.089L316.707 353.059C311.778 366.832 306.547 380.829 301.942 394.64ZM102.3 348.75C103.966 348.75 106.654 348.5 108.322 348.5C101.034 339.21 99.6125 338.629 92.9565 329.255C96.5902 337.137 96.6011 339.294 102.3 348.75ZM71.3662 353.059L69.4265 356.089C75.3467 369.498 76.8384 381.25 82.74 394.64C78.1342 380.829 76.2956 366.832 71.3662 353.059Z" fill="#5B2936"/>
<path d="M140.55 302.721C142.387 300.245 148.696 291.781 153.929 283.823C155.466 292.033 152.644 296.903 140.55 302.721ZM234.039 283.279C238.01 289.892 242.691 296.476 247.516 302.541C234.443 296.783 233.564 290.896 234.039 283.279Z" fill="#4B1A27"/>
<path d="M234.938 275.754C234.95 275.662 234.964 275.576 234.974 275.492C263.117 290.536 279.424 313.135 298.356 329.981C297.659 331.065 296.445 331.775 295.731 332.847C275.907 318.256 266.485 296.196 234.938 275.754ZM150.036 276.751C126.65 289.108 93.6612 326.937 90.432 329.814C91.1289 330.903 91.5069 330.682 92.2208 331.751C112.047 317.162 117.459 302.721 150.036 276.751ZM341.569 330.435C340.013 329.233 303.232 315.331 275.32 307.914C327.737 332.436 346.231 335.815 355.383 344.505C354.788 343.002 353.573 330.111 341.569 330.435ZM112.271 307.643C91.2347 313.532 64.3012 322.836 45.4236 330.949C37.0799 331.109 31.1006 342.88 29.8204 355.148C41.4276 329.853 35.6924 346.858 112.271 307.643Z" fill="#794E5A"/>
<path d="M359.816 364.073C359.288 351.082 355.064 329.315 341.631 330.282C340.52 329.364 309.242 315.588 275.857 306.795C264.419 295.579 250.168 280.319 234.837 275.266C233.731 284.937 232.539 291.246 235.173 294.394C238.659 298.063 242.841 301.734 246.945 304.206C254.125 313.438 259.605 318.917 259.605 318.917C251.159 350.065 245.893 366.029 242.536 399.691H145.466C142.11 366.031 136.843 350.066 128.397 318.917C128.397 318.917 133.876 313.436 141.057 304.206C145.162 301.733 149.343 298.063 152.829 294.394C155.461 291.246 154.271 284.937 153.165 275.266C137.834 280.319 123.581 295.579 112.145 306.795C78.7595 315.589 47.4815 329.364 46.3709 330.282C32.9361 329.315 28.7129 351.082 28.1856 364.073C27.5463 379.851 30.4177 401.592 30.651 403.097H357.351C357.584 401.591 360.456 379.851 359.816 364.073ZM151.977 293.56C148.465 296.92 146.287 298.346 141.908 301.507C149.42 292.072 148.661 293.333 153.898 284.613C154.133 288.362 152.675 292.894 151.977 293.56ZM33.5163 400.13C31.8332 380.806 28.9804 363.405 34.1851 344.476C36.1777 337.213 38.049 332.297 45.7814 331.674C47.4411 340.006 58.4307 374.889 68.0219 398.674C58.3374 362.277 59.7607 370.374 55.2373 355.868C53.7378 351.001 52.3534 346.109 50.6034 341.316C49.3855 337.985 48.0369 334.716 47.0849 331.307L109.978 308.942C109.544 309.368 89.9202 329.154 89.4473 329.71C92.3204 334.256 101.605 340.576 106.317 347.4C86.9726 349.167 77.5276 352.174 70.5403 353.178C71.0551 354.56 84.6346 391.321 86.0579 394.786C83.7573 382.875 78.5666 364.249 72.6231 353.847C74.8163 353.578 100.742 350.098 109.011 348.616C106.715 344.322 96.5 335.923 91.0308 329.631C123.146 302.306 130.575 288.404 152.618 276.29C152.851 278.561 153.307 280.82 153.473 283.089C128.904 318.494 126.02 318.546 126.02 318.546C133.152 345.341 142.403 372.443 142.403 399.898L33.5163 400.13ZM236.024 293.56C235.327 292.894 233.868 288.362 234.103 284.613C239.34 293.335 238.581 292.072 246.092 301.507C241.714 298.346 239.534 296.921 236.024 293.56ZM354.484 400.13L245.599 399.898C245.599 372.443 254.85 345.339 261.982 318.546C261.982 318.546 259.098 318.494 234.529 283.089C234.694 280.82 235.149 278.561 235.384 276.29C257.427 288.404 264.855 302.306 296.971 329.631C291.502 335.924 281.287 344.324 278.991 348.616C287.259 350.096 313.184 353.578 315.379 353.847C309.437 364.249 304.246 382.875 301.944 394.786C303.367 391.32 316.947 354.56 317.462 353.178C310.474 352.174 301.029 349.167 281.685 347.4C286.395 340.576 295.682 334.257 298.555 329.71C298.08 329.154 278.458 309.368 278.024 308.942C278.025 308.942 340.917 331.307 340.917 331.307C339.967 334.717 338.617 337.985 337.399 341.316C335.649 346.109 334.264 351.001 332.765 355.868C328.241 370.376 329.665 362.277 319.98 398.674C329.571 374.888 340.559 340.006 342.221 331.674C349.953 332.297 351.824 337.213 353.817 344.476C359.02 363.405 356.167 380.808 354.484 400.13Z" fill="#3C0F1B"/>
<path d="M109.492 174.931C107.182 171.227 99.6499 161.091 93.8883 162.512C89.2031 163.674 89.2638 169.991 88.9014 173.729C88.3725 179.211 88.1796 188.761 89.718 192.637C91.1973 196.358 95.8778 203.548 98.7835 206.29C102.36 209.653 108.07 220.369 108.773 221.481C109.879 223.239 112.097 225.754 115.5 225.555C120.277 225.277 124.404 220.911 124.779 218.808C126.803 207.389 115.504 184.568 109.492 174.931Z" fill="#EBC9B6" stroke="#BD7D5A" stroke-width="3.825"/>
<path d="M107.203 197.494C106.981 196.647 107.214 195.217 107.443 193.839C107.65 192.583 107.844 191.396 107.726 190.556C107.276 187.412 104.747 181.439 103.097 178.201C101.194 174.476 98.1208 169.784 94.2631 168.574C92.6703 168.073 91.6204 168.672 91.0137 169.278C90.5657 169.724 90.4646 170.249 90.6108 170.312C90.7586 170.374 91.0884 169.939 91.5706 169.531C91.9657 169.197 90.7804 169.471 91.5706 169.531C91.2517 171.096 90.2251 179.012 90.9328 184.791C91.4897 189.338 92.5661 192.733 92.8974 193.242C92.9456 193.777 93.0265 194.303 93.1463 194.811C94.7049 201.446 104.841 210.122 107.199 212.594C107.634 213.05 108.092 213.321 108.204 213.21C108.316 213.098 108.046 212.648 107.614 212.19C105.284 209.734 95.2151 201.085 93.7094 194.685C92.1119 187.893 99.7945 177.824 101.019 175.693C101.642 176.694 102.173 177.654 102.58 178.454C102.902 179.082 103.255 179.817 103.623 180.613C102.902 181.723 95.6615 189.831 97.5033 196.322C98.1846 198.715 103.448 201.801 105.485 202.645C106.604 203.111 107.024 203.806 107.513 204.61C108.079 205.549 107.564 207.963 109.426 208.731C109.806 208.887 110.148 208.95 110.451 208.95C110.977 208.95 111.375 208.755 111.669 208.523C111.7 208.931 111.699 209.454 111.683 209.939C111.665 210.568 111.756 210.855 111.913 210.867C112.074 210.881 112.24 210.605 112.26 209.984C112.287 209.217 112.282 208.267 112.14 207.811C111.722 206.474 110.448 204.962 109.096 203.363C107.768 201.79 107.549 198.805 107.203 197.494ZM92.8445 191.612C89.1922 181.197 94.8402 171.709 95.66 170.28C97.2341 170.881 99.6452 173.58 100.67 175.147C99.9236 176.401 92.997 184.606 92.8445 191.612ZM109.649 208.21C107.962 207.515 108.55 205.225 108.006 204.322C107.511 203.507 107.001 202.665 105.705 202.126C105.425 202.009 105.116 201.831 104.799 201.626C100.627 192.487 105.254 188.492 106.415 187.675C106.771 188.792 107.035 189.816 107.155 190.639C107.261 191.391 107.063 192.592 106.874 193.75C106.636 195.187 106.391 196.675 106.645 197.638C107.024 199.072 107.284 202.106 108.653 203.728C109.868 205.167 111.115 206.65 111.542 207.86C111.358 208.1 110.781 208.678 109.649 208.21Z" fill="#BD7D5A"/>
<path d="M278.1 174.931C280.411 171.227 287.943 161.091 293.703 162.512C298.388 163.674 298.328 169.991 298.692 173.729C299.22 179.211 299.412 188.761 297.875 192.637C296.396 196.358 291.714 203.548 288.809 206.29C285.233 209.653 279.522 220.369 278.82 221.481C277.714 223.239 275.496 225.754 272.091 225.555C267.316 225.277 263.189 220.911 262.812 218.808C260.79 207.389 272.091 184.568 278.1 174.931Z" fill="#EBC9B6" stroke="#BD7D5A" stroke-width="3.825"/>
<path d="M278.498 203.364C277.146 204.963 275.872 206.475 275.454 207.813C275.311 208.27 275.308 209.22 275.333 209.985C275.354 210.607 275.521 210.882 275.683 210.869C275.841 210.857 275.931 210.569 275.913 209.94C275.897 209.456 275.894 208.932 275.925 208.525C276.219 208.756 276.617 208.952 277.143 208.952C277.446 208.952 277.79 208.889 278.17 208.732C280.029 207.963 279.515 205.549 280.081 204.611C280.57 203.808 280.99 203.111 282.111 202.646C284.148 201.802 289.411 198.718 290.093 196.323C291.934 189.833 284.694 181.723 283.973 180.615C284.337 179.819 284.694 179.083 285.012 178.456C285.423 177.655 285.952 176.694 286.577 175.695C287.801 177.825 295.482 187.893 293.886 194.686C292.379 201.086 282.312 209.736 279.982 212.191C279.548 212.65 279.277 213.1 279.389 213.211C279.504 213.322 279.96 213.052 280.394 212.596C282.752 210.124 292.886 201.447 294.445 194.813C294.566 194.304 294.649 193.779 294.697 193.243C295.025 192.736 296.103 189.341 296.66 184.793C297.368 179.014 296.341 171.097 296.022 169.532C296.812 169.472 295.627 169.198 296.022 169.532C296.506 169.94 296.836 170.375 296.982 170.313C297.128 170.25 297.027 169.727 296.581 169.28C295.972 168.673 294.922 168.075 293.33 168.576C289.472 169.785 286.397 174.478 284.494 178.203C282.844 181.441 280.316 187.413 279.867 190.558C279.749 191.397 279.943 192.584 280.15 193.841C280.377 195.219 280.612 196.648 280.389 197.495C280.044 198.806 279.826 201.79 278.498 203.364ZM286.923 175.147C287.949 173.58 290.359 170.882 291.933 170.28C292.753 171.709 298.401 181.197 294.75 191.612C294.597 184.606 287.671 176.4 286.923 175.147ZM276.053 207.857C276.477 206.647 277.726 205.164 278.941 203.725C280.309 202.103 280.57 199.069 280.949 197.635C281.201 196.672 280.959 195.184 280.722 193.747C280.531 192.589 280.333 191.388 280.439 190.636C280.557 189.813 280.822 188.789 281.178 187.672C282.338 188.489 286.966 192.485 282.794 201.623C282.478 201.828 282.169 202.006 281.886 202.123C280.592 202.662 280.081 203.504 279.585 204.319C279.041 205.222 279.63 207.514 277.944 208.207C276.812 208.678 276.235 208.1 276.053 207.857Z" fill="#BD7D5A"/>
<path d="M285.44 165.395H285.432C285.417 165.464 266.46 225.981 260.733 244.258C259.62 247.806 257.729 251.105 255.201 253.866C245.285 264.689 218.23 291.564 194.033 291.564C169.38 291.564 141.782 262.911 132.267 252.125C130.024 249.585 128.367 246.659 127.333 243.452C121.722 226.073 102.249 165.747 102.232 165.678H102.23C100.211 158.167 99.1287 150.285 99.1163 142.157C99.0354 90.9675 141.354 49.4193 193.647 49.3395C245.945 49.2598 288.397 90.6772 288.477 141.865C288.491 149.994 287.436 157.879 285.44 165.395Z" fill="#EBC9B6"/>
<path d="M244.037 63.4713C266.297 80.2239 280.858 107.789 280.901 139.009C280.915 147.14 279.945 155.025 278.108 162.541H278.101C278.087 162.61 260.644 223.127 255.379 241.402C254.355 244.95 252.616 248.249 250.291 251.009C241.168 261.833 216.278 288.71 194.016 288.71C171.333 288.71 145.945 260.054 137.192 249.269C135.128 246.728 133.605 243.804 132.653 240.597C127.492 223.218 109.575 162.892 109.56 162.822H109.558C107.701 155.312 106.706 147.43 106.693 139.301C106.648 107.967 121.234 80.266 143.579 63.4563C116.835 79.8688 99.0634 108.979 99.1163 142.157C99.1287 150.285 100.211 158.169 102.23 165.678H102.232C102.247 165.747 121.722 226.073 127.333 243.452C128.369 246.659 130.024 249.584 132.267 252.125C141.781 262.911 169.378 291.564 194.033 291.564C218.232 291.564 245.285 264.691 255.201 253.866C257.729 251.105 259.62 247.807 260.733 244.258C266.46 225.981 285.417 165.464 285.432 165.395H285.44C287.436 157.877 288.491 149.994 288.477 141.863C288.425 108.8 270.682 79.8327 244.037 63.4713Z" fill="#E3BBA5"/>
<path d="M285.44 165.395H285.432C285.417 165.464 266.46 225.981 260.733 244.258C259.62 247.806 257.729 251.105 255.201 253.866C245.285 264.689 218.23 291.564 194.033 291.564C169.38 291.564 141.782 262.911 132.267 252.125C130.024 249.585 128.367 246.659 127.333 243.452C121.722 226.073 102.249 165.747 102.232 165.678H102.23C100.211 158.167 99.1287 150.285 99.1163 142.157C99.0354 90.9675 141.354 49.4193 193.647 49.3395C245.945 49.2598 288.397 90.6772 288.477 141.865C288.491 149.994 287.436 157.879 285.44 165.395Z" stroke="#BD7D5A" stroke-width="3.825"/>
<path d="M188.131 257.517L201.037 257.206C199.542 263.931 189.153 262.965 188.131 257.517Z" fill="url(#paint1_linear)"/>
<path d="M188.312 257.943C187.735 257.868 187.822 257.072 188.436 257.127C188.503 257.136 195.137 257.949 200.69 256.804C201.291 256.691 201.468 257.488 200.893 257.607C196.542 258.507 190.912 258.296 188.312 257.943ZM194.129 252.572C191.791 252.572 189.525 251.788 187.248 251.404C184.697 250.972 182.155 251.343 179.602 251.561C176.995 251.785 171.307 251.541 169.702 250.559C168.803 250.007 168.971 248.722 169.983 248.379C170.938 248.048 172.427 248.734 173.391 248.901C177.859 249.676 180.211 248.85 184.127 248.723C190.118 248.549 190.754 250.982 198.226 249.521C206.261 247.95 209.879 249.139 215.643 247.46C216.434 247.228 217.373 246.617 218.202 247.029C219.159 247.508 219.112 248.812 218.126 249.232C212.828 251.492 206.967 250.578 201.085 251.528C198.78 251.898 196.483 252.572 194.129 252.572Z" fill="#BD7D5A"/>
<!-- OJO IZQUIERDO -->
<path d="M132.452 169.835C134.359 168.061 146.593 165.812 153.655 166.713C164.829 168.138 173.877 177.673 173.877 177.673C173.877 177.673 166.354 182.312 152.707 183.029C143.716 183.503 134.674 177.887 132.452 169.835Z" fill="url(#paint2_radial)"/>
<path d="M162.949 176.802C161.598 181.605 156.476 184.435 151.499 183.115C146.527 181.797 143.591 176.829 144.945 172.025C146.296 167.219 151.428 164.389 156.401 165.71C161.369 167.026 164.304 171.994 162.949 176.802Z" fill="#7B5C33" stroke="#4D3009" stroke-width="1.275"/>
<path d="M161.498 176.914C160.178 180.603 156.199 182.752 152.322 181.726C148.745 180.777 146.486 177.457 146.78 173.947C148.107 173.846 149.56 173.816 151.067 173.886C151.051 173.936 151.025 173.98 151.011 174.031C150.535 175.723 151.644 177.499 153.487 177.988C155.337 178.478 157.222 177.497 157.698 175.805C157.759 175.584 157.791 175.362 157.799 175.144C159.064 175.59 160.305 176.166 161.498 176.914Z" fill="#8A6D47"/>
<path opacity="0.9" d="M155.211 171.72C153.34 171.202 151.433 172.235 150.95 174.037C150.467 175.829 151.591 177.705 153.461 178.224C155.334 178.743 157.241 177.709 157.725 175.916C158.211 174.114 157.082 172.239 155.211 171.72ZM155.618 178.087C154.841 178.322 154.036 178.01 153.823 177.392C153.616 176.774 154.077 176.088 154.861 175.859C155.643 175.624 156.446 175.936 156.661 176.549C156.872 177.168 156.407 177.854 155.618 178.087Z" fill="black"/>
<path opacity="0.6" d="M148.986 179.166C148.41 179.5 147.552 179.2 147.06 178.493C146.569 177.792 146.642 176.953 147.219 176.617C147.791 176.288 148.658 176.586 149.146 177.288C149.631 177.991 149.561 178.833 148.986 179.166Z" fill="white"/>
<path opacity="0.8" d="M161.273 174.022C159.957 174.785 157.98 174.099 156.86 172.487C155.74 170.874 155.908 168.949 157.224 168.189C158.537 167.423 160.518 168.109 161.632 169.722C162.75 171.335 162.589 173.258 161.273 174.022Z" fill="white"/>
<path d="M124.208 175.918C124.208 196.692 143.913 207.511 152.207 207.511C167.669 207.511 180.206 196.692 180.206 175.918C180.206 155.142 167.669 138.304 152.207 138.304C136.745 138.304 124.208 155.142 124.208 175.918ZM132.452 169.835C134.359 168.061 146.593 165.812 153.655 166.713C164.828 168.138 173.877 177.673 173.877 177.673C173.877 177.673 166.354 182.312 152.706 183.029C143.716 183.503 134.674 177.887 132.452 169.835Z" fill="#EBC9B6"/>
<path d="M153.528 188.844C168.168 192.189 182.228 186.422 184.939 175.958C187.643 165.493 177.974 154.301 163.33 150.95C148.687 147.604 134.627 153.371 131.917 163.836C129.214 174.303 138.88 185.494 153.528 188.844ZM132.452 169.835C134.359 168.061 146.593 165.812 153.655 166.713C164.828 168.138 173.877 177.673 173.877 177.673C173.877 177.673 166.354 182.312 152.706 183.029C143.716 183.503 134.674 177.887 132.452 169.835Z" fill="url(#paint3_radial)"/>
<path d="M132.452 169.835C134.359 168.061 146.593 165.812 153.655 166.713C164.829 168.138 173.877 177.673 173.877 177.673C173.877 177.673 166.354 182.312 152.707 183.029C143.716 183.503 134.674 177.887 132.452 169.835Z" fill="url(#paint4_radial)"/>
<path d="M173.206 172.093C163.093 165.697 166.9 167.444 147.961 162.008C153.162 162.761 162.85 165.117 166.171 167.003C167.98 167.987 171.651 170.778 173.206 172.093Z" fill="#BD7D5A"/>
<path d="M129.996 169.728C133.025 177.139 145.137 190.732 175.549 178.052C170.732 172.997 158.431 164.342 147.303 164.417C137.981 164.479 132.771 167.289 129.996 169.728ZM132.452 170.011C134.359 168.3 146.593 166.129 153.655 167C164.828 168.374 173.877 177.571 173.877 177.571C173.877 177.571 166.354 182.045 152.706 182.737C143.716 183.193 134.674 177.777 132.452 170.011Z" fill="#582311"/>
<path d="M254.928 169.835C253.021 168.061 240.787 165.812 233.725 166.713C222.551 168.138 213.503 177.673 213.503 177.673C213.503 177.673 221.026 182.312 234.673 183.029C243.664 183.503 252.705 177.887 254.928 169.835Z" fill="url(#paint5_radial)"/>
<path d="M243.058 176.802C241.706 181.605 236.584 184.435 231.606 183.115C226.635 181.797 223.698 176.829 225.051 172.025C226.403 167.219 231.536 164.389 236.507 165.71C241.477 167.026 244.411 171.994 243.058 176.802Z" fill="#7B5C33" stroke="#4D3009" stroke-width="1.275"/>
<path d="M241.606 176.914C240.286 180.603 236.305 182.752 232.43 181.726C228.853 180.777 226.593 177.457 226.888 173.947C228.216 173.846 229.668 173.816 231.175 173.886C231.159 173.936 231.133 173.98 231.119 174.031C230.643 175.723 231.752 177.499 233.597 177.988C235.446 178.478 237.332 177.497 237.808 175.805C237.867 175.584 237.901 175.362 237.909 175.144C239.172 175.59 240.415 176.166 241.606 176.914Z" fill="#8A6D47"/>
<path opacity="0.9" d="M235.319 171.72C233.449 171.202 231.541 172.235 231.06 174.037C230.575 175.829 231.701 177.705 233.569 178.224C235.442 178.743 237.35 177.709 237.834 175.916C238.318 174.114 237.19 172.239 235.319 171.72ZM235.727 178.087C234.949 178.322 234.143 178.01 233.931 177.392C233.725 176.774 234.185 176.088 234.969 175.859C235.751 175.624 236.554 175.936 236.769 176.549C236.98 177.168 236.515 177.854 235.727 178.087Z" fill="black"/>
<path opacity="0.6" d="M229.095 179.166C228.52 179.5 227.66 179.2 227.17 178.493C226.678 177.792 226.75 176.953 227.328 176.617C227.899 176.288 228.769 176.586 229.256 177.288C229.741 177.991 229.669 178.833 229.095 179.166Z" fill="white"/>
<path opacity="0.8" d="M241.381 174.022C240.065 174.785 238.089 174.099 236.968 172.487C235.848 170.874 236.016 168.949 237.332 168.189C238.646 167.423 240.625 168.109 241.74 169.722C242.858 171.335 242.698 173.258 241.381 174.022Z" fill="white"/>
<path d="M235.173 138.304C219.711 138.304 207.174 155.143 207.174 175.918C207.174 196.692 219.711 207.511 235.173 207.511C246.374 207.511 263.172 196.692 263.172 175.918C263.172 155.142 250.634 138.304 235.173 138.304ZM234.674 183.029C221.026 182.313 213.503 177.673 213.503 177.673C213.503 177.673 222.552 168.138 233.725 166.713C240.787 165.81 253.021 168.061 254.928 169.835C252.705 177.887 243.664 183.503 234.674 183.029Z" fill="#EBC9B6"/>
<path d="M255.461 163.838C252.751 153.373 238.691 147.604 224.048 150.952C209.404 154.302 199.735 165.494 202.439 175.96C205.15 186.423 219.21 192.19 233.851 188.846C248.499 185.494 258.166 174.303 255.461 163.838ZM234.673 183.029C221.026 182.313 213.503 177.673 213.503 177.673C213.503 177.673 222.551 168.138 233.725 166.713C240.787 165.81 253.021 168.061 254.928 169.835C252.705 177.887 243.664 183.503 234.673 183.029Z" fill="url(#paint6_radial)"/>
<path d="M254.928 169.835C253.021 168.061 240.787 165.812 233.725 166.713C222.551 168.138 213.503 177.673 213.503 177.673C213.503 177.673 221.026 182.312 234.673 183.029C243.664 183.503 252.705 177.887 254.928 169.835Z" fill="url(#paint7_radial)"/>
<path d="M214.174 172.093C224.287 165.697 220.48 167.444 239.419 162.008C234.218 162.761 224.53 165.117 221.209 167.003C219.398 167.987 215.729 170.778 214.174 172.093Z" fill="#BD7D5A"/>
<path d="M240.077 164.416C228.949 164.34 216.647 172.996 211.831 178.051C242.243 190.731 254.355 177.138 257.384 169.727C254.609 167.289 249.398 164.479 240.077 164.416ZM234.673 182.737C221.025 182.047 213.503 177.571 213.503 177.571C213.503 177.571 222.551 168.374 233.725 167C240.787 166.129 253.021 168.3 254.928 170.011C252.705 177.777 243.664 183.193 234.673 182.737Z" fill="#582311"/>
<path d="M257.776 219.509C257.83 253.544 229.322 281.184 194.097 281.231C158.877 281.287 130.278 253.739 130.223 219.697C130.169 185.665 158.676 157.916 193.901 157.862C229.122 157.809 257.724 185.47 257.776 219.509Z" fill="url(#paint8_radial)"/>
<path d="M252.331 129.277C252.331 160.436 226.216 185.695 194.002 185.695C161.786 185.695 135.669 160.436 135.669 129.277C135.669 98.1169 161.786 72.8579 194.002 72.8579C226.216 72.8579 252.331 98.1169 252.331 129.277Z" fill="url(#paint9_radial)"/>
<path d="M123.317 158.616C133.782 145.911 151.789 148.025 166.545 150.066C170.298 150.586 174.162 150.976 177.842 151.875C180.48 152.519 182.553 155.426 180.434 157.774C179.442 158.891 177.279 158.684 175.944 158.656C158.275 158.311 138.303 148.484 123.317 158.616Z" fill="#2A232B"/>
<path d="M264.78 158.125C261.751 156.164 258.545 154.78 254.92 154.213C241.625 152.128 216.301 160.699 209.644 158.885C205.568 157.772 206.392 153.822 208.195 152.848C209.28 152.262 209.581 152.277 219.268 150.666C235.727 147.93 254.156 145.756 264.78 158.125Z" fill="#2A232B"/>
<path d="M180.18 221.803C178.814 224.909 189.41 228.261 193.431 228.467C197.786 228.688 209.991 224.104 207.922 220.956C205.746 217.654 197.589 220.526 194.069 220.526C190.566 220.524 182.009 217.66 180.18 221.803Z" fill="#DCAE94"/>
<path d="M196.889 224.149C196.531 223.007 199.807 221.766 201.022 221.6C202.734 221.359 206.248 222.807 205.934 223.995C205.648 225.045 202.593 223.193 201.485 223.35C200.344 223.511 197.228 225.218 196.889 224.149ZM186.182 223.777C187.688 223.777 189.922 224.714 190.332 223.889C190.822 222.903 187.005 221.69 185.884 221.824C184.957 221.93 181.632 223.803 182.09 224.591C182.516 225.315 184.197 223.777 186.182 223.777Z" fill="#BD7D5A"/>
<path opacity="0.2" d="M194.139 216.538C195.083 216.538 196.848 215.424 196.926 213.182C197.239 204.143 195.439 177.326 194.139 177.421C192.925 177.509 190.612 203.955 191.109 213.182C191.231 215.442 193.073 216.538 194.139 216.538Z" fill="#FFFBF8"/>
<path d="M276.415 196.383C269.317 177.674 277.53 148.982 263.652 127.755C257.331 117.582 251.835 110.59 252.842 98.7544L252.269 98.5679C250.928 100.602 249.168 102.811 247.999 104.225C248.664 102.583 249.746 100.069 250.726 98.1722L250.21 97.8442C246.189 102.468 242.736 104.839 237.985 106.119C243.118 102.629 248.794 96.5549 251.278 93.1878L250.857 92.7605C233.25 103.718 213.27 103.867 195.643 104.001C179.735 104.115 169.854 103.767 158.384 97.3191C150.107 99.9731 143.59 99.6346 136.426 94.8593C114.006 136.906 123.967 115.858 110.563 193.801C102.779 183.766 100.518 177.384 98.6761 167.823C98.1892 164.773 97.7132 160.069 98.0088 156.968L97.9108 156.87C90.9857 142.171 87.7176 133.802 89.3633 104.646C90.5844 92.5499 93.3034 83.4687 101.145 73.9573C100.11 68.7893 100.011 63.5793 100.714 58.5964C96.6073 51.3341 93.7809 43.8598 92.6796 41.1893C98.4163 45.4365 98.8907 45.6817 103.677 47.1426C104.772 44.2284 106.368 41.3337 107.39 39.8232C107.852 43.1903 108.219 45.4651 109.261 48.7374C109.616 48.8201 111.304 49.2624 111.843 49.4024C111.534 47.4104 111.251 46.4866 111.294 44.7008C112.182 46.6597 112.932 47.114 115.51 50.1561C118.362 50.7353 117.678 50.6496 118.534 50.6496C114.382 44.3563 111.58 38.7866 110.87 30.3163C116.552 33.4471 124.502 35.236 132.804 35.236C152.308 35.236 172.265 21.0757 199.953 21.0757C223.947 21.0757 244.706 33.9512 253.902 48.6125C253.893 44.8302 253.727 41.7008 255.138 37.8132C255.138 37.8132 255.301 43.3874 255.301 47.7309L255.917 47.7865C256.881 42.8202 258.916 38.5865 262.276 34.5876C259.292 42.3478 260.428 38.2044 257.09 47.6797L257.631 47.961C259.857 45.1943 261.68 43.2384 266.994 40.6462C263.155 44.3668 260.219 46.4987 258.404 49.13L258.872 49.5197C261.137 47.5338 263.494 46.7815 265.891 48.5975C262.031 47.2404 259.753 49.619 257.105 52.622C267.401 54.2634 272.987 60.0091 280.226 67.6895C296.889 86.2731 301.277 104.416 292.239 130.135C296.027 138.053 295.444 155.9 286.989 170.284C286.986 178.725 281.016 189.139 276.415 196.383Z" fill="#080806"/>
<path d="M135.356 93.7283C135.915 94.2308 136.473 94.7333 137.027 95.2388C136.826 95.1109 136.626 94.992 136.423 94.8581C114.002 136.904 123.964 115.856 110.56 193.8C102.776 183.765 100.515 177.383 98.673 167.822C98.1861 164.772 97.7101 160.068 98.0057 156.967L97.9077 156.869C90.9826 142.17 87.7145 133.801 89.3602 104.645C90.5813 92.5487 93.3003 83.4676 101.142 73.9561C100.124 68.8739 100.022 63.7526 100.686 58.845C101.614 60.1599 102.588 61.4402 103.584 62.704C104.254 66.6518 104.822 70.5018 103.781 73.6116C88.9433 117.961 97.5593 138.305 106.892 169.9C103.06 145.931 95.7829 115.459 115.633 97.6836C107.154 117.387 109.495 126.32 111.559 139.81C112.985 121.879 119.64 105.2 135.356 93.7283ZM280.225 67.6839C279.64 67.064 279.07 66.4622 278.504 65.868C277.91 66.2516 277.3 66.6037 276.701 66.9768C299.966 113.106 277.625 108.677 282.95 129.277C289.17 144.322 281.108 153.35 281.108 168.395C281.108 145.828 280.049 130.122 267.171 112.465C262.822 106.503 261.601 86.2524 258.67 76.246C222.579 97.6836 169.115 102.169 112.984 58.8419C139.427 67.8689 193.324 60.873 211.825 49.3395C190.735 53.0421 146.708 53.2633 126.91 45.3812C174.353 41.8155 173.779 27.0865 214.222 24.3182C194.778 17.2967 152.307 35.2318 132.804 35.2318C124.504 35.2318 116.553 33.4445 110.87 30.3121C111.581 38.7825 114.382 44.3536 118.534 50.6454C117.677 50.6454 118.363 50.7312 115.51 50.152C112.931 47.1099 112.181 46.654 111.294 44.6966C111.249 46.4825 111.534 47.4062 111.843 49.3982C111.304 49.2583 109.614 48.816 109.261 48.7332C108.219 45.4609 107.852 43.1861 107.39 39.8191C106.37 41.3296 104.772 44.2242 103.677 47.1385C98.8892 45.6776 98.4163 45.4323 92.6797 41.1852C93.7809 43.8556 96.6073 51.3315 100.714 58.5922C100.703 58.6749 100.7 58.7592 100.689 58.8419C110.496 72.736 124.284 83.6225 137.03 95.2388C143.958 99.6379 150.342 99.8967 158.385 97.318C169.856 103.766 179.738 104.114 195.644 103.999C213.271 103.867 233.252 103.717 250.858 92.7594L251.28 93.1866C248.796 96.5537 243.12 102.627 237.987 106.118C242.739 104.836 246.19 102.465 250.211 97.8431L250.728 98.1711C249.748 100.07 248.665 102.582 248.001 104.224C249.169 102.809 250.93 100.601 252.271 98.5667L252.843 98.7533C251.838 110.591 257.332 117.581 263.654 127.754C277.532 148.981 269.321 177.675 276.417 196.382C281.018 189.138 286.988 178.725 286.988 170.276C295.442 155.891 296.025 138.045 292.238 130.127C301.275 104.41 296.887 86.2675 280.225 67.6839ZM281.365 106.273C280.852 91.9439 271.047 73.7575 271.047 73.7575C266.465 65.9281 262.369 62.1925 255.498 60.6759C274.827 61.6072 282.418 89.5307 281.583 104.118C281.503 105.472 281.365 106.273 281.365 106.273ZM237.41 45.7679C242.516 49.7743 243.736 50.9178 248.758 57.6669C222.855 12.699 172.021 46.7292 155.946 45.6309C172.287 48.8972 209.233 25.7836 237.41 45.7679ZM250.572 65.3143C219.523 90.2107 172.113 79.6642 133.336 67.9096C171.954 85.0172 221.12 94.2744 250.572 65.3143ZM128.465 92.3953C118.294 97.5482 113.508 110.524 113.066 119.1C114.965 111.7 120.665 98.1214 128.465 92.3953ZM115.633 85.2489C101.075 93.823 98.2515 113.49 99.6887 130.008C101.219 114.749 104.063 94.8401 115.633 85.2489ZM220.543 66.6006C218.978 66.9241 209.252 68.2135 203.943 68.3985C199.804 68.6317 183.664 68.892 169.114 68.3263C184.132 71.4391 193.152 72.0183 204.106 71.403C216.715 70.9622 227.999 68.5475 237.349 61.1784C230.761 64.6854 227.954 65.1849 220.543 66.6006ZM272.722 106.538C272.722 106.538 272.324 105.874 271.808 104.88C270.391 102.582 268.782 96.3326 262.571 76.6913C267.185 113.093 274.731 106.453 278.112 125.261C278.114 118.497 277.625 115.029 272.722 106.538Z" fill="black"/>
<path d="M283.991 150.538C284.557 145.655 284.328 147.893 284.39 145.107C284.866 135.713 279.061 127.837 282.595 116.541C285.479 108.337 287.145 107.051 285.882 92.7684C285.697 90.7072 285.145 85.5859 284.168 83.7444C285.499 85.9846 286.38 90.131 286.851 92.6721C289.475 107.03 287.268 109.21 284.485 117.146C280.768 129.137 287.903 134.426 283.991 150.538ZM258.67 76.246C260.408 121.938 269.988 111.325 278.451 139.062C272.705 106.345 267.39 133.47 258.67 76.246ZM113.688 99.5417C99.3932 116.938 100.837 129.48 104.355 155.208C104.038 129.165 100.756 119.281 113.688 99.5417ZM103.427 74.6858C95.2229 99.2378 93.4263 110.318 97.3648 136.799C96.6353 110.251 96.8095 104.391 103.427 74.6858ZM134.817 94.1345C119.837 104.544 112.018 123.587 111.559 139.81C113.864 124.306 122.466 104.75 134.817 94.1345ZM238.884 85.0368C220.139 91.7123 189.626 93.4996 167.35 87.0257C149.989 82.1286 122.881 65.6724 108.3 55.3244C121.519 65.5024 144.809 80.6106 161.072 86.5819C177.969 92.6887 204.45 94.9575 224.973 89.9595C239.359 86.4631 246.814 83.1592 258.67 76.2475C253.392 79.0459 245.618 83.0027 238.884 85.0368ZM198.376 30.592C217.302 27.1542 239.611 38.954 251.351 52.9037C239.068 35.8758 218.94 27.4039 206.923 27.2023C187.201 26.8714 166.799 43.2147 126.91 44.6275C164.418 46.2252 182.448 33.0864 198.376 30.592ZM213.24 49.8932C186.347 59.1353 165.58 61.347 137.321 62.8018C166.507 64.5395 187.372 61.8013 213.24 49.8932ZM241.499 55.1635C224.914 62.7266 217.653 63.9663 183.421 65.9823C204.882 66.8203 224.931 65.7416 241.499 55.1635ZM186.608 78.1597C203.165 80.0208 232.168 78.0018 246.683 63.4337C229.153 77.7174 196.722 77.2059 171.428 76.234C181.11 77.6948 179.363 77.4511 186.608 78.1597ZM257.572 64.1859C269.439 68.4121 272.332 88.5483 277.016 104.807C274.92 90.3958 271.341 67.3123 257.572 64.1859Z" fill="#171714"/>
<path d="M280.453 67.4808C273.69 60.3058 267.617 53.9854 257.696 52.4057C260.953 48.7001 263.243 47.322 267.418 49.6224C264.945 46.8075 262.103 46.2734 258.661 49.2914C260.638 46.4253 264.055 44.0858 268.46 39.6175C261.879 42.6039 259.9 44.6425 257.385 47.7719C260.939 37.6872 259.407 43.0658 263.172 33.103C259.238 37.3698 256.722 42.0096 255.613 47.7267C255.613 38.8457 255.326 39.9936 255.504 36.112C253.347 40.7594 253.593 44.8531 253.593 47.5311C250.119 41.9916 245.016 37.3005 239.514 33.4641C200.542 5.94829 161.678 31.2735 140.615 34.3367C132.077 35.7314 119.283 34.8452 110.516 29.763C111.136 38.4349 113.912 44.1942 117.967 50.3445C117.966 50.3445 115.681 49.8782 115.681 49.8782C112.54 46.2162 112.237 46.3336 111.076 43.3637C110.779 46.0161 111.233 47.486 111.465 48.9905C110.691 48.7949 109.977 48.5873 109.505 48.479C108.35 44.8471 108.015 42.0849 107.592 39.0157C106.637 40.1967 104.602 43.8 103.486 46.7638C98.8206 45.3376 98.4862 45.1104 91.9282 40.2494C92.706 41.7539 95.5198 49.9699 100.39 58.6494C99.659 63.9663 99.8799 69.2711 100.81 73.8749C92.9937 83.3713 90.2794 92.4495 89.0505 104.627C87.4313 133.301 90.3991 141.654 97.6524 157.014C97.668 157.029 97.668 157.059 97.6835 157.074C97.4082 160.039 97.8687 164.75 98.368 167.876C100.202 177.402 102.451 183.964 110.672 194.43C110.703 194.46 110.719 194.506 110.75 194.536C116.031 163.892 115.486 163.141 116.614 155.584C122.17 116.901 121.929 122.678 136.54 95.299C142.471 99.2528 149.038 100.643 158.348 97.646C165.102 101.443 171.999 104.341 191.107 104.341C210.039 104.112 231.824 104.961 251.025 93.0121C248.116 96.9569 241.508 103.775 236.31 106.823C241.721 105.716 245.604 103.608 250.449 98.0372C248.96 100.918 247.209 105.28 247.074 105.8C247.307 105.53 250.418 101.934 252.533 98.7292C251.518 110.682 257.035 117.681 263.391 127.917C277.322 149.225 268.852 178.349 276.348 197.063C281.155 189.547 287.299 178.88 287.299 170.358C295.403 156.689 296.563 138.597 292.572 130.113C300.687 106.596 299.048 88.2173 280.453 67.4808ZM111.23 44.3266C111.989 46.4163 112.156 46.3712 115.104 49.7578C113.641 49.4644 112.669 49.2583 111.79 49.0657C111.45 47.477 111.23 45.9665 111.23 44.3266ZM107.326 40.3246C107.472 42.6295 108.04 45.6535 108.866 48.3135C104.41 47.2047 106.066 47.5552 104.511 47.1099C105.791 43.3877 106.273 42.4459 107.326 40.3246ZM110.002 191.105C103.444 179.664 101.722 175.773 99.9064 164.19C99.729 162.857 99.1722 159.005 99.1442 157.164C89.7023 136.282 86.1526 96.629 101.026 74.8077C101.026 74.7927 101.026 74.7927 101.026 74.7927C101.026 74.7927 101.647 73.8539 102.768 72.5058C102.353 70.4838 101.943 66.217 102.084 61.5531C103.235 63.539 104.542 65.3444 105.708 67.0746C105.708 67.0701 106.626 68.2496 106.626 68.2782C113.705 76.9892 120.243 84.2319 136.056 94.983C117.071 124.733 118.249 114.684 110.002 191.105ZM292.99 120.561C292.437 124.109 291.244 128.961 290.597 131.077C294.921 141.711 290.197 161.795 285.835 170.766C283.928 181.438 281.876 183.586 276.487 194.221C272.634 177.672 280.504 148.305 265.971 126.398C256.547 111.287 252.505 109.307 254.725 90.6365C254.725 90.6365 254.82 89.621 254.85 89.3577C235.207 100.974 213.511 102.287 184.899 101.695C176.628 101.695 165.455 100.69 158.486 96.5191C144.361 100.405 139.12 94.3572 127.361 85.4761C114.663 75.0394 106.037 65.9266 95.3954 44.4484C101.373 49.1394 113.341 51.503 120.89 52.7232C115.799 46.159 112.803 40.1621 111.448 31.6602C116.861 35.1506 129.834 38.5854 141.267 37.3622C162.319 35.45 191.796 14.5435 228.017 30.3964C244.823 37.5683 253.35 47.662 255.347 52.9639C255.363 52.9639 255.378 52.9789 255.41 52.9789C255.503 53.009 255.596 53.0241 255.704 53.0391C255.73 53.0662 256.22 53.1745 256.264 53.1745C267.115 56.6725 267.841 57.3254 278.352 69.1824C284.259 76.1918 298.48 90.1852 292.99 120.561Z" fill="black"/>
</g>
</g>
<defs>
<filter id="filter0_d" x="0" y="4" width="389" height="384" filterUnits="userSpaceOnUse" color-interpolation-filters="sRGB">
<feFlood flood-opacity="0" result="BackgroundImageFix"/>
<feColorMatrix in="SourceAlpha" type="matrix" values="0 0 0 0 0 0 0 0 0 0 0 0 0 0 0 0 0 0 127 0"/>
<feOffset dy="4"/>
<feGaussianBlur stdDeviation="2"/>
<feColorMatrix type="matrix" values="0 0 0 0 0 0 0 0 0 0 0 0 0 0 0 0 0 0 0.25 0"/>
<feBlend mode="normal" in2="BackgroundImageFix" result="effect1_dropShadow"/>
<feBlend mode="normal" in="SourceGraphic" in2="effect1_dropShadow" result="shape"/>
</filter>
<filter id="filter1_f" x="0" y="0" width="389" height="384" filterUnits="userSpaceOnUse" color-interpolation-filters="sRGB">
<feFlood flood-opacity="0" result="BackgroundImageFix"/>
<feBlend mode="normal" in="SourceGraphic" in2="BackgroundImageFix" result="shape"/>
<feGaussianBlur stdDeviation="2" result="effect1_foregroundBlur"/>
</filter>
<linearGradient id="paint0_linear" x1="194" y1="305.304" x2="194" y2="245.125" gradientUnits="userSpaceOnUse">
<stop stop-color="#DCAE94" stop-opacity="0.8"/>
<stop offset="0.7" stop-color="#BD7D5A"/>
</linearGradient>
<linearGradient id="paint1_linear" x1="194" y1="261.674" x2="194" y2="257.161" gradientUnits="userSpaceOnUse">
<stop offset="0.1" stop-color="#E3BBA5"/>
<stop offset="1" stop-color="#DCAE94"/>
</linearGradient>
<radialGradient id="paint2_radial" cx="0" cy="0" r="1" gradientUnits="userSpaceOnUse" gradientTransform="translate(152.277 174.263) rotate(177.101) scale(21.627 22.838)">
<stop stop-color="white"/>
<stop offset="0.544" stop-color="#FDFEFE"/>
<stop offset="0.74" stop-color="#F6F8F9"/>
<stop offset="0.879" stop-color="#EAEFF2"/>
<stop offset="0.992" stop-color="#D9E3E8"/>
<stop offset="1" stop-color="#D8E2E7"/>
</radialGradient>
<radialGradient id="paint3_radial" cx="0" cy="0" r="1" gradientUnits="userSpaceOnUse" gradientTransform="translate(158.571 169.108) rotate(7.84889) scale(26.2929 19.5686)">
<stop stop-color="#DCAE94"/>
<stop offset="0.7" stop-color="#DCAE94" stop-opacity="0.3"/>
<stop offset="1" stop-color="#EBC9B6" stop-opacity="0"/>
</radialGradient>
<radialGradient id="paint4_radial" cx="0" cy="0" r="1" gradientUnits="userSpaceOnUse" gradientTransform="translate(148.053 214.419) scale(47.4452 45.8894)">
<stop offset="0.95" stop-opacity="0"/>
<stop offset="1" stop-opacity="0.2"/>
</radialGradient>
<radialGradient id="paint5_radial" cx="0" cy="0" r="1" gradientUnits="userSpaceOnUse" gradientTransform="translate(235.102 174.265) rotate(2.89922) scale(21.627 22.838)">
<stop stop-color="white"/>
<stop offset="0.544" stop-color="#FDFEFE"/>
<stop offset="0.74" stop-color="#F6F8F9"/>
<stop offset="0.879" stop-color="#EAEFF2"/>
<stop offset="0.992" stop-color="#D9E3E8"/>
<stop offset="1" stop-color="#D8E2E7"/>
</radialGradient>
<radialGradient id="paint6_radial" cx="0" cy="0" r="1" gradientUnits="userSpaceOnUse" gradientTransform="translate(228.808 169.108) rotate(172.151) scale(26.2929 19.5686)">
<stop stop-color="#DCAE94"/>
<stop offset="0.7" stop-color="#DCAE94" stop-opacity="0.3"/>
<stop offset="1" stop-color="#EBC9B6" stop-opacity="0"/>
</radialGradient>
<radialGradient id="paint7_radial" cx="0" cy="0" r="1" gradientUnits="userSpaceOnUse" gradientTransform="translate(239.325 214.419) rotate(180) scale(47.4452 45.8894)">
<stop offset="0.95" stop-opacity="0"/>
<stop offset="1" stop-opacity="0.2"/>
</radialGradient>
<radialGradient id="paint8_radial" cx="0" cy="0" r="1" gradientUnits="userSpaceOnUse" gradientTransform="translate(194 219.548) scale(63.7755 61.6845)">
<stop stop-color="#FAE6DB" stop-opacity="0.5"/>
<stop offset="0.9" stop-color="#EBC9B6" stop-opacity="0"/>
</radialGradient>
<radialGradient id="paint9_radial" cx="0" cy="0" r="1" gradientUnits="userSpaceOnUse" gradientTransform="translate(194 129.278) scale(57.5535 55.6665)">
<stop stop-color="#FAE6DB" stop-opacity="0.5"/>
<stop offset="0.9" stop-color="#EBC9B6" stop-opacity="0"/>
</radialGradient>
</defs>
</svg>
