<svg width="51" height="51" viewBox="0 0 51 51" fill="none" xmlns="http://www.w3.org/2000/svg">
<rect x="10" y="8" width="32" height="35" fill="black"/>
<path d="M25.5 0C11.4152 0 0 11.4152 0 25.5C0 39.5848 11.4152 51 25.5 51C39.5848 51 51 39.5848 51 25.5C51 11.4152 39.5848 0 25.5 0ZM39.3756 33.5385L25.5 41.5471L11.6244 33.5285V17.5213L17.8898 13.9055L17.8699 13.8955H17.8799L25.5 9.5127L33.1301 13.8955H33.1201L33.1002 13.9055L39.3656 17.5213L39.3756 33.5385ZM13.8855 26.9045L18.876 29.7434V35.1123L24.3844 38.2898V26.2271L13.8955 20.1709V26.9045H13.8855ZM25.49 18.2684L20.151 15.2004L14.9613 18.1986L25.5 24.2848L36.0387 18.1986L30.8391 15.1904L25.49 18.2684ZM26.6256 38.2998L32.1639 35.1023V29.7434L37.1145 26.9244V20.1709L26.6256 26.2371V38.2998Z" fill="#19D3DA"/>
</svg>
