<svg width="41" height="38" viewBox="0 0 41 38" fill="none" xmlns="http://www.w3.org/2000/svg">
<g style="mix-blend-mode:darken">
<path fill-rule="evenodd" clip-rule="evenodd" d="M20.5 38C31.8218 38 41 29.4934 41 19C41 8.50659 31.8218 0 20.5 0C9.17816 0 0 8.50659 0 19C0 29.4934 9.17816 38 20.5 38ZM13.715 25.465C14.562 24.619 14.985 23.541 14.985 22.231V15.493C14.985 14.182 14.562 13.108 13.716 12.27C12.877 11.423 11.802 11 10.492 11H6V26.723H10.403C11.773 26.723 12.877 26.304 13.715 25.465ZM12.177 15.493V22.23C12.177 22.792 11.99 23.215 11.615 23.5C11.242 23.777 10.867 23.915 10.492 23.915H8.808V13.808H10.493C10.867 13.808 11.241 13.95 11.615 14.235C11.99 14.512 12.177 14.931 12.177 15.493ZM18.175 26.723H24.07V23.916H19.016V20.266H22.104V17.458H19.016V13.808H24.071V11H18.175C17.613 11 17.145 11.187 16.771 11.562C16.396 11.936 16.209 12.404 16.209 12.966V24.758C16.209 25.319 16.396 25.787 16.771 26.162C17.145 26.536 17.613 26.723 18.175 26.723ZM28.945 24.758C29.507 26.068 30.255 26.723 31.191 26.723C32.127 26.723 32.876 26.068 33.436 24.758L37.086 11H33.999L31.191 21.804L28.384 11H25.295L28.945 24.758Z" fill="#19D3DA"/>
</g>
</svg>
