<svg width="41" height="38" viewBox="0 0 41 38" fill="none" xmlns="http://www.w3.org/2000/svg">
<path fill-rule="evenodd" clip-rule="evenodd" d="M20.5 38C31.8218 38 41 29.4934 41 19C41 8.50659 31.8218 0 20.5 0C9.17816 0 0 8.50659 0 19C0 29.4934 9.17816 38 20.5 38ZM23.8033 8.00238C23.95 8.01356 27.3723 8.33297 29.5353 10.2177C30.7092 11.3894 33 18.0894 33 23.8824C33 23.9859 32.9745 24.0847 32.9283 24.1741C31.3484 27.1794 27.037 27.9653 26.0533 28H26.037C25.9513 28.0001 25.8668 27.9784 25.7904 27.9365C25.714 27.8945 25.6478 27.8337 25.5973 27.7588L24.6038 26.2788C27.2848 25.53 28.6543 24.2571 28.7326 24.1812C28.786 24.1304 28.8296 24.0686 28.861 23.9996C28.8924 23.9305 28.9108 23.8554 28.9154 23.7786C28.9199 23.7018 28.9104 23.6248 28.8875 23.552C28.8645 23.4791 28.8285 23.4119 28.7815 23.3541C28.6866 23.2369 28.5526 23.1652 28.4089 23.1549C28.2653 23.1445 28.1237 23.1963 28.0152 23.2988L28.0142 23.2997C27.9515 23.3567 25.43 25.6471 20.5 25.6471C15.5408 25.6471 13.0185 23.3312 12.987 23.2988C12.8789 23.1955 12.7373 23.143 12.5934 23.1527C12.4494 23.1624 12.315 23.2336 12.2196 23.3506C12.1241 23.4676 12.0756 23.6208 12.0845 23.7766C12.0935 23.9324 12.1593 24.0779 12.2674 24.1812C12.3457 24.2571 13.7152 25.53 16.3962 26.2788L15.4033 27.7588C15.3527 27.8338 15.2864 27.8947 15.2099 27.9366C15.1334 27.9785 15.0488 28.0002 14.963 28H14.9462C13.9636 27.9653 9.65163 27.18 8.07228 24.1741C8.02554 24.0847 8 23.9859 8 23.8824C8 18.0894 10.2908 11.3888 11.4348 10.243C13.6277 8.33297 17.05 8.01414 17.1967 8.00238C17.3087 7.99136 17.4211 8.01871 17.5179 8.08057C17.6148 8.14242 17.6912 8.23565 17.7364 8.34708C17.7371 8.34915 17.739 8.35408 17.7419 8.36172C17.7615 8.41277 17.8276 8.58509 17.8995 8.83885C16.4685 9.09826 14.7109 9.62708 13.1207 10.6924C12.9981 10.7747 12.9108 10.9063 12.878 11.0582C12.8451 11.2102 12.8693 11.3701 12.9454 11.5027C13.0214 11.6353 13.143 11.7298 13.2834 11.7653C13.3529 11.783 13.425 11.7856 13.4954 11.7731C13.5659 11.7605 13.6334 11.7331 13.694 11.6924C16.4261 9.85649 19.8424 9.76473 20.5 9.76473C21.1582 9.76473 24.5723 9.85591 27.306 11.693C27.3666 11.7337 27.4341 11.7611 27.5046 11.7736C27.575 11.7862 27.6471 11.7835 27.7166 11.7659C27.7861 11.7483 27.8517 11.716 27.9097 11.671C27.9677 11.6259 28.017 11.5689 28.0546 11.5033C28.0923 11.4376 28.1176 11.3646 28.1292 11.2883C28.1407 11.212 28.1383 11.1341 28.122 11.0588C28.1058 10.9836 28.0759 10.9125 28.0343 10.8498C27.9927 10.787 27.94 10.7337 27.8793 10.693C26.2891 9.62473 24.5315 9.09826 23.1005 8.8365C23.1457 8.66954 23.201 8.50604 23.2663 8.34708C23.3117 8.23644 23.3878 8.14381 23.484 8.08205C23.5802 8.02029 23.6918 7.99244 23.8033 8.00238ZM15.0652 19.1765C15.0652 20.4765 15.9163 21.5294 16.9674 21.5294C18.0185 21.5294 18.8696 20.4765 18.8696 19.1765C18.8696 17.8765 18.0185 16.8235 16.9674 16.8235C15.9163 16.8235 15.0652 17.8765 15.0652 19.1765ZM22.1304 19.1765C22.1304 20.4765 22.9815 21.5294 24.0326 21.5294C25.0837 21.5294 25.9348 20.4765 25.9348 19.1765C25.9348 17.8765 25.0837 16.8235 24.0326 16.8235C22.9815 16.8235 22.1304 17.8765 22.1304 19.1765Z" fill="#19D3DA"/>
</svg>
