<svg width="18" height="16" viewBox="0 0 18 16" fill="none" xmlns="http://www.w3.org/2000/svg">
<path d="M14.0726 0H3.92743C1.98244 0 0.400146 1.74858 0.400146 3.89798V10.1698C0.400146 12.3192 1.98244 14.0678 3.92743 14.0678H4.45088L5.67768 15.7878C5.77334 15.9218 5.91913 16 6.07345 16C6.22777 16 6.37369 15.9218 6.46922 15.7878L7.69603 14.0678H14.0726C16.0175 14.0678 17.5998 12.3192 17.5998 10.1698V3.89798C17.5998 1.74858 16.0175 0 14.0726 0V0Z" fill="white"/>
<mask id="mask0" mask-type="alpha" maskUnits="userSpaceOnUse" x="0" y="0" width="18" height="16">
<path d="M14.0726 0H3.92743C1.98244 0 0.400146 1.74858 0.400146 3.89798V10.1698C0.400146 12.3192 1.98244 14.0678 3.92743 14.0678H4.45088L5.67768 15.7878C5.77334 15.9218 5.91913 16 6.07345 16C6.22777 16 6.37369 15.9218 6.46922 15.7878L7.69603 14.0678H14.0726C16.0175 14.0678 17.5998 12.3192 17.5998 10.1698V3.89798C17.5998 1.74858 16.0175 0 14.0726 0V0Z" fill="white"/>
</mask>
<g mask="url(#mask0)">
<path d="M14.0725 0H8.99994V14.0678H14.0725C16.0175 14.0678 17.5998 12.3193 17.5998 10.1698V3.89798C17.5998 1.74858 16.0175 0 14.0725 0Z" fill="#F7EEF2"/>
<rect x="8.91312" y="0.533386" width="13.0301" height="0.888966" fill="#FF0202"/>
<rect x="7.69684" y="2.13354" width="13.0301" height="0.888966" fill="#FF0202"/>
<rect x="7.87064" y="3.73364" width="13.0301" height="0.888966" fill="#FF0202"/>
<rect x="8.39188" y="5.3338" width="13.0301" height="0.888966" fill="#FF0202"/>
<rect x="0.400146" y="6.93396" width="21.543" height="0.888966" fill="#FF0202"/>
<rect x="0.400146" y="8.53406" width="21.543" height="0.888966" fill="#FF0202"/>
<rect x="0.226501" y="10.1342" width="17.3734" height="0.888966" fill="#FF0202"/>
<rect x="0.226501" y="11.5566" width="17.5472" height="0.888966" fill="#FF0202"/>
<rect x="0.921387" y="12.9789" width="21.0218" height="0.888966" fill="#FF0202"/>
<rect x="-0.294739" width="9.20792" height="7.11173" fill="#2C229C"/>
<path d="M0.108009 0.533386L0.198431 0.831741H0.491045L0.254315 1.01613L0.344738 1.31449L0.108009 1.1301L-0.12872 1.31449L-0.0382978 1.01613L-0.275027 0.831741H0.0175864L0.108009 0.533386Z" fill="white"/>
<path d="M0.10807 1.82874L0.198492 2.12709H0.491106L0.254376 2.31148L0.344799 2.60984L0.10807 2.42545L-0.128659 2.60984L-0.0382368 2.31148L-0.274966 2.12709H0.0176474L0.10807 1.82874Z" fill="white"/>
<path d="M0.10807 3.12408L0.198492 3.42244H0.491106L0.254376 3.60683L0.344799 3.90519L0.10807 3.72079L-0.128659 3.90519L-0.0382368 3.60683L-0.274966 3.42244H0.0176474L0.10807 3.12408Z" fill="white"/>
<path d="M0.10807 4.41943L0.198492 4.71779H0.491106L0.254376 4.90218L0.344799 5.20054L0.10807 5.01614L-0.128659 5.20054L-0.0382368 4.90218L-0.274966 4.71779H0.0176474L0.10807 4.41943Z" fill="white"/>
<path d="M0.10807 5.71478L0.198492 6.01314H0.491106L0.254376 6.19753L0.344799 6.49589L0.10807 6.31149L-0.128659 6.49589L-0.0382368 6.19753L-0.274966 6.01314H0.0176474L0.10807 5.71478Z" fill="white"/>
<path d="M1.11558 1.18103L1.206 1.47939H1.49861L1.26188 1.66378L1.35231 1.96213L1.11558 1.77774L0.878848 1.96213L0.969271 1.66378L0.732541 1.47939H1.02515L1.11558 1.18103Z" fill="white"/>
<path d="M1.11512 2.69226L1.20554 2.99062H1.49816L1.26143 3.17501L1.35185 3.47336L1.11512 3.28897L0.87839 3.47336L0.968813 3.17501L0.732084 2.99062H1.0247L1.11512 2.69226Z" fill="white"/>
<path d="M1.11512 3.98761L1.20554 4.28596H1.49816L1.26143 4.47036L1.35185 4.76871L1.11512 4.58432L0.87839 4.76871L0.968813 4.47036L0.732084 4.28596H1.0247L1.11512 3.98761Z" fill="white"/>
<path d="M1.11512 5.28296L1.20554 5.58131H1.49816L1.26143 5.76571L1.35185 6.06406L1.11512 5.87967L0.87839 6.06406L0.968813 5.76571L0.732084 5.58131H1.0247L1.11512 5.28296Z" fill="white"/>
<path d="M3.129 1.18103L3.21943 1.47939H3.51204L3.27531 1.66378L3.36573 1.96213L3.129 1.77774L2.89228 1.96213L2.9827 1.66378L2.74597 1.47939H3.03858L3.129 1.18103Z" fill="white"/>
<path d="M3.12879 2.69226L3.21921 2.99062H3.51183L3.2751 3.17501L3.36552 3.47336L3.12879 3.28897L2.89206 3.47336L2.98248 3.17501L2.74576 2.99062H3.03837L3.12879 2.69226Z" fill="white"/>
<path d="M3.12879 3.98761L3.21921 4.28596H3.51183L3.2751 4.47036L3.36552 4.76871L3.12879 4.58432L2.89206 4.76871L2.98248 4.47036L2.74576 4.28596H3.03837L3.12879 3.98761Z" fill="white"/>
<path d="M3.12879 5.28296L3.21921 5.58131H3.51183L3.2751 5.76571L3.36552 6.06406L3.12879 5.87967L2.89206 6.06406L2.98248 5.76571L2.74576 5.58131H3.03837L3.12879 5.28296Z" fill="white"/>
<path d="M5.14317 1.18103L5.23359 1.47939H5.5262L5.28947 1.66378L5.37989 1.96213L5.14317 1.77774L4.90644 1.96213L4.99686 1.66378L4.76013 1.47939H5.05274L5.14317 1.18103Z" fill="white"/>
<path d="M5.14255 2.69226L5.23298 2.99062H5.52559L5.28886 3.17501L5.37928 3.47336L5.14255 3.28897L4.90583 3.47336L4.99625 3.17501L4.75952 2.99062H5.05213L5.14255 2.69226Z" fill="white"/>
<path d="M5.14255 3.98761L5.23298 4.28596H5.52559L5.28886 4.47036L5.37928 4.76871L5.14255 4.58432L4.90583 4.76871L4.99625 4.47036L4.75952 4.28596H5.05213L5.14255 3.98761Z" fill="white"/>
<path d="M5.14255 5.28296L5.23298 5.58131H5.52559L5.28886 5.76571L5.37928 6.06406L5.14255 5.87967L4.90583 6.06406L4.99625 5.76571L4.75952 5.58131H5.05213L5.14255 5.28296Z" fill="white"/>
<path d="M7.15626 1.18103L7.24668 1.47939H7.53929L7.30256 1.66378L7.39299 1.96213L7.15626 1.77774L6.91953 1.96213L7.00995 1.66378L6.77322 1.47939H7.06583L7.15626 1.18103Z" fill="white"/>
<path d="M7.15626 2.69226L7.24668 2.99062H7.53929L7.30256 3.17501L7.39299 3.47336L7.15626 3.28897L6.91953 3.47336L7.00995 3.17501L6.77322 2.99062H7.06583L7.15626 2.69226Z" fill="white"/>
<path d="M7.15626 3.98761L7.24668 4.28596H7.53929L7.30256 4.47036L7.39299 4.76871L7.15626 4.58432L6.91953 4.76871L7.00995 4.47036L6.77322 4.28596H7.06583L7.15626 3.98761Z" fill="white"/>
<path d="M7.15626 5.28296L7.24668 5.58131H7.53929L7.30256 5.76571L7.39299 6.06406L7.15626 5.87967L6.91953 6.06406L7.00995 5.76571L6.77322 5.58131H7.06583L7.15626 5.28296Z" fill="white"/>
<path d="M2.12247 0.533386L2.2129 0.831741H2.50551L2.26878 1.01613L2.3592 1.31449L2.12247 1.1301L1.88575 1.31449L1.97617 1.01613L1.73944 0.831741H2.03205L2.12247 0.533386Z" fill="white"/>
<path d="M2.12189 1.82874L2.21232 2.12709H2.50493L2.2682 2.31148L2.35862 2.60984L2.12189 2.42545L1.88517 2.60984L1.97559 2.31148L1.73886 2.12709H2.03147L2.12189 1.82874Z" fill="white"/>
<path d="M2.12189 3.12408L2.21232 3.42244H2.50493L2.2682 3.60683L2.35862 3.90519L2.12189 3.72079L1.88517 3.90519L1.97559 3.60683L1.73886 3.42244H2.03147L2.12189 3.12408Z" fill="white"/>
<path d="M2.12189 4.41943L2.21232 4.71779H2.50493L2.2682 4.90218L2.35862 5.20054L2.12189 5.01614L1.88517 5.20054L1.97559 4.90218L1.73886 4.71779H2.03147L2.12189 4.41943Z" fill="white"/>
<path d="M2.12189 5.71478L2.21232 6.01314H2.50493L2.2682 6.19753L2.35862 6.49589L2.12189 6.31149L1.88517 6.49589L1.97559 6.19753L1.73886 6.01314H2.03147L2.12189 5.71478Z" fill="white"/>
<path d="M4.13578 0.533386L4.2262 0.831741H4.51882L4.28209 1.01613L4.37251 1.31449L4.13578 1.1301L3.89905 1.31449L3.98947 1.01613L3.75274 0.831741H4.04536L4.13578 0.533386Z" fill="white"/>
<path d="M4.13578 1.82874L4.2262 2.12709H4.51882L4.28209 2.31148L4.37251 2.60984L4.13578 2.42545L3.89905 2.60984L3.98947 2.31148L3.75274 2.12709H4.04536L4.13578 1.82874Z" fill="white"/>
<path d="M4.13578 3.12408L4.2262 3.42244H4.51882L4.28209 3.60683L4.37251 3.90519L4.13578 3.72079L3.89905 3.90519L3.98947 3.60683L3.75274 3.42244H4.04536L4.13578 3.12408Z" fill="white"/>
<path d="M4.13578 4.41943L4.2262 4.71779H4.51882L4.28209 4.90218L4.37251 5.20054L4.13578 5.01614L3.89905 5.20054L3.98947 4.90218L3.75274 4.71779H4.04536L4.13578 4.41943Z" fill="white"/>
<path d="M4.13578 5.71478L4.2262 6.01314H4.51882L4.28209 6.19753L4.37251 6.49589L4.13578 6.31149L3.89905 6.49589L3.98947 6.19753L3.75274 6.01314H4.04536L4.13578 5.71478Z" fill="white"/>
<path d="M6.1496 0.533386L6.24003 0.831741H6.53264L6.29591 1.01613L6.38633 1.31449L6.1496 1.1301L5.91288 1.31449L6.0033 1.01613L5.76657 0.831741H6.05918L6.1496 0.533386Z" fill="white"/>
<path d="M6.14957 1.82874L6.24 2.12709H6.53261L6.29588 2.31148L6.3863 2.60984L6.14957 2.42545L5.91284 2.60984L6.00327 2.31148L5.76654 2.12709H6.05915L6.14957 1.82874Z" fill="white"/>
<path d="M6.14957 3.12408L6.24 3.42244H6.53261L6.29588 3.60683L6.3863 3.90519L6.14957 3.72079L5.91284 3.90519L6.00327 3.60683L5.76654 3.42244H6.05915L6.14957 3.12408Z" fill="white"/>
<path d="M6.14957 4.41943L6.24 4.71779H6.53261L6.29588 4.90218L6.3863 5.20054L6.14957 5.01614L5.91284 5.20054L6.00327 4.90218L5.76654 4.71779H6.05915L6.14957 4.41943Z" fill="white"/>
<path d="M6.14957 5.71478L6.24 6.01314H6.53261L6.29588 6.19753L6.3863 6.49589L6.14957 6.31149L5.91284 6.49589L6.00327 6.19753L5.76654 6.01314H6.05915L6.14957 5.71478Z" fill="white"/>
<path d="M8.16318 0.533386L8.25361 0.831741H8.54622L8.30949 1.01613L8.39991 1.31449L8.16318 1.1301L7.92646 1.31449L8.01688 1.01613L7.78015 0.831741H8.07276L8.16318 0.533386Z" fill="white"/>
<path d="M8.16325 1.82874L8.25367 2.12709H8.54628L8.30955 2.31148L8.39997 2.60984L8.16325 2.42545L7.92652 2.60984L8.01694 2.31148L7.78021 2.12709H8.07282L8.16325 1.82874Z" fill="white"/>
<path d="M8.16325 3.12408L8.25367 3.42244H8.54628L8.30955 3.60683L8.39997 3.90519L8.16325 3.72079L7.92652 3.90519L8.01694 3.60683L7.78021 3.42244H8.07282L8.16325 3.12408Z" fill="white"/>
<path d="M8.16325 4.41943L8.25367 4.71779H8.54628L8.30955 4.90218L8.39997 5.20054L8.16325 5.01614L7.92652 5.20054L8.01694 4.90218L7.78021 4.71779H8.07282L8.16325 4.41943Z" fill="white"/>
<path d="M8.16325 5.71478L8.25367 6.01314H8.54628L8.30955 6.19753L8.39997 6.49589L8.16325 6.31149L7.92652 6.49589L8.01694 6.19753L7.78021 6.01314H8.07282L8.16325 5.71478Z" fill="white"/>
</g>
</svg>
