<svg width="41" height="38" viewBox="0 0 41 38" fill="none" xmlns="http://www.w3.org/2000/svg">
<path fill-rule="evenodd" clip-rule="evenodd" d="M20.5678 0C9.18695 0 0 8.71454 0 19.5102C0 28.0946 5.8961 35.3784 14.1232 37.9798C15.2202 38.1099 15.4944 37.5896 15.4944 37.0693V33.6875C9.73542 34.8582 8.50136 31.0862 8.50136 31.0862C7.54153 28.875 6.17034 28.2247 6.17034 28.2247C4.25068 27.0541 6.30746 27.0541 6.30746 27.0541C8.36424 27.1842 9.46119 29.0051 9.46119 29.0051C11.2437 31.9967 14.2603 31.0862 15.4944 30.5659C15.6315 29.2652 16.18 28.4848 16.8656 27.9646C12.3407 27.4443 7.54153 25.7534 7.54153 18.3396C7.54153 16.2585 8.36424 14.4375 9.59831 13.1368C9.32407 12.6166 8.63848 10.6656 9.73543 7.93413C9.73543 7.93413 11.518 7.41386 15.3573 9.88515C17.0027 9.49495 18.7853 9.23481 20.5678 9.23481C22.3503 9.23481 24.1329 9.49495 25.7783 9.88515C29.7548 7.41386 31.4002 7.93413 31.4002 7.93413C32.4971 10.6656 31.8115 12.6166 31.5373 13.1368C32.9085 14.4375 33.5941 16.2585 33.5941 18.3396C33.5941 25.8835 28.7949 27.4443 24.27 27.9646C24.9556 28.6149 25.6412 29.7855 25.6412 31.6065V36.9392C25.6412 37.4595 26.0525 38.1098 27.0124 37.8497C35.2395 35.2484 40.9985 27.9646 40.9985 19.3801C41.1356 8.71454 31.9487 0 20.5678 0Z" fill="#19D3DA"/>
</svg>
