<svg width="18" height="16" viewBox="0 0 18 16" fill="none" xmlns="http://www.w3.org/2000/svg">
<path d="M14.4727 0H4.32757C2.38258 0 0.800293 1.74858 0.800293 3.89798V10.1698C0.800293 12.3192 2.38258 14.0678 4.32757 14.0678H4.85102L6.07783 15.7878C6.17349 15.9218 6.31928 16 6.4736 16C6.62792 16 6.77384 15.9218 6.86937 15.7878L8.09617 14.0678H14.4727C16.4177 14.0678 18 12.3192 18 10.1698V3.89798C18 1.74858 16.4177 0 14.4727 0V0Z" fill="white"/>
<path d="M14.4727 0H9.40009V14.0678H14.4727C16.4176 14.0678 17.9999 12.3193 17.9999 10.1698V3.89798C17.9999 1.74858 16.4176 0 14.4727 0Z" fill="#F7EEF2"/>
<ellipse cx="9.31323" cy="7.11171" rx="3.47469" ry="3.55586" fill="#FF1010"/>
</svg>
