<svg width="23" height="18" viewBox="0 0 23 18" fill="none" xmlns="http://www.w3.org/2000/svg">
<path d="M21.5171 0H8.9215C8.63234 0 8.39663 0.235714 8.39663 0.524875V4.199H0.524875C0.237085 4.199 0 4.43471 0 4.72387V13.1191C0 13.4083 0.235714 13.644 0.524875 13.644H2.62437V16.7933C2.62437 17.5689 3.38359 17.2976 3.51927 17.1633L7.0399 13.6454H13.1205C13.4083 13.6454 13.6454 13.4097 13.6454 13.1205V9.44638H15.0336L18.5227 12.9643C18.8544 13.3055 19.4163 13.0534 19.4163 12.5943V9.44501H21.5171C21.8063 9.44501 22.042 9.20929 22.042 8.9215V0.523505C22.042 0.235714 21.8063 0 21.5171 0ZM12.5943 12.5929H6.82337C6.68359 12.5929 6.55066 12.6477 6.45336 12.7477L3.67412 15.5229V13.1164C3.67412 12.8272 3.43841 12.5915 3.14925 12.5915H1.04975V5.24738H8.39663V8.92013C8.39663 9.20792 8.63234 9.44364 8.9215 9.44364H12.5943V12.5929ZM20.9923 8.39526H18.8914C18.6022 8.39526 18.3665 8.63097 18.3665 8.92013V11.3252L15.6202 8.55012C15.5242 8.45008 15.3886 8.39526 15.2502 8.39526H9.44638V1.04975H20.9923V8.39526Z" fill="#19D3DA"/>
</svg>
