<svg width="21" height="24" viewBox="0 0 21 24" fill="none" xmlns="http://www.w3.org/2000/svg">
<path d="M10.204 0C4.56746 0 0 3.39678 0 7.5859C0 14.2755 10.204 15.9079 10.204 24C10.204 15.9079 20.408 14.2755 20.408 7.5859C20.408 3.39678 15.8405 0 10.204 0ZM10.204 17.4449C9.11847 16.0693 7.79938 14.9065 6.55431 13.8084C4.21713 11.7518 2.37337 10.128 2.37337 7.5859C2.37337 4.37498 5.8849 1.76564 10.204 1.76564C14.5215 1.76564 18.0346 4.3762 18.0346 7.58712C18.0346 10.128 16.1909 11.753 13.8553 13.8097C12.6086 14.9065 11.2895 16.0693 10.204 17.4449Z" fill="#19D3DA"/>
<path d="M10.2039 8.67169C11.6646 8.67169 12.8487 7.79141 12.8487 6.70552C12.8487 5.61963 11.6646 4.73935 10.2039 4.73935C8.74327 4.73935 7.55917 5.61963 7.55917 6.70552C7.55917 7.79141 8.74327 8.67169 10.2039 8.67169Z" fill="#19D3DA"/>
</svg>
