<svg width="25" height="25" viewBox="0 0 25 25" fill="none" xmlns="http://www.w3.org/2000/svg">
<path d="M12.328 0.171997C5.51831 0.171997 0 5.69031 0 12.5C0 19.3097 5.51831 24.828 12.328 24.828C19.1377 24.828 24.656 19.3097 24.656 12.5C24.656 5.69031 19.1377 0.171997 12.328 0.171997ZM12.328 23.5303C6.24432 23.5303 1.29768 18.5837 1.29768 12.5016C1.29768 6.41947 6.24432 1.47126 12.328 1.47126C18.4101 1.47126 23.3583 6.41789 23.3583 12.5016C23.3583 18.5853 18.4101 23.5303 12.328 23.5303ZM12.328 10.2306C11.076 10.2306 10.0571 11.248 10.0571 12.5016C10.0571 13.7552 11.076 14.7725 12.328 14.7725C13.58 14.7725 14.5974 13.7536 14.5974 12.5C14.5974 11.2464 13.58 10.2306 12.328 10.2306ZM12.328 13.4748C11.7925 13.4748 11.3547 13.037 11.3547 12.5016C11.3547 11.9661 11.7925 11.5267 12.328 11.5267C12.8635 11.5267 13.3013 11.9661 13.3013 12.5C13.3013 13.0339 12.8635 13.4748 12.328 13.4748ZM18.8164 10.2306C17.5644 10.2306 16.5455 11.248 16.5455 12.5016C16.5455 13.7552 17.5644 14.7741 18.8164 14.7741C20.0684 14.7741 21.0874 13.7552 21.0874 12.5016C21.0874 11.248 20.0684 10.2306 18.8164 10.2306ZM18.8164 13.4748C18.281 13.4748 17.8432 13.037 17.8432 12.5016C17.8432 11.9661 18.281 11.5283 18.8164 11.5283C19.3519 11.5283 19.7897 11.9661 19.7897 12.5C19.7897 13.0339 19.3519 13.4748 18.8164 13.4748ZM5.83958 10.2306C4.58757 10.2306 3.56863 11.248 3.56863 12.5016C3.56863 13.7552 4.58599 14.7741 5.83958 14.7741C7.09317 14.7741 8.11053 13.7536 8.11053 12.5C8.11053 11.2464 7.09159 10.2306 5.83958 10.2306ZM5.83958 13.4748C5.30413 13.4748 4.86632 13.037 4.86632 12.5016C4.86632 11.9661 5.30413 11.5267 5.83958 11.5267C6.37503 11.5267 6.81284 11.9661 6.81284 12.5C6.81284 13.0339 6.37503 13.4748 5.83958 13.4748Z" fill="#19D3DA"/>
</svg>
