<svg width="27" height="27" viewBox="0 0 27 27" fill="none" xmlns="http://www.w3.org/2000/svg">
<path d="M16.6248 12.637C16.9169 11.9232 17.0983 11.123 17.0983 10.2595C17.0983 7.42589 15.3123 5.12905 13.109 5.12905C10.9057 5.12905 9.11974 7.42589 9.11974 10.2595C9.11974 11.1216 9.30107 11.9232 9.59465 12.637C7.6101 13.4357 6.27027 14.8719 6.27027 16.5284C6.27027 19.0468 9.33273 21.089 13.1104 21.089C16.8867 21.089 19.9506 19.0468 19.9506 16.5284C19.9492 14.8719 18.6079 13.4357 16.6248 12.637ZM13.109 6.26883C14.6834 6.26883 15.9585 8.05623 15.9585 10.2595C15.9585 12.4628 14.682 14.2488 13.109 14.2488C11.536 14.2488 10.2595 12.4628 10.2595 10.2595C10.2595 8.05623 11.5346 6.26883 13.109 6.26883ZM13.109 19.9492C9.96163 19.9492 7.41006 18.4194 7.41006 16.5284C7.41006 15.2994 8.49948 14.2315 10.1228 13.6285C10.8539 14.7007 11.9145 15.39 13.1104 15.39C14.3064 15.39 15.3655 14.7007 16.0981 13.6285C17.72 14.2301 18.8108 15.3008 18.8108 16.5284C18.8094 18.4179 16.2578 19.9492 13.109 19.9492ZM13.109 0C5.86876 0 0 5.8702 0 13.109C0 20.3492 5.8702 26.218 13.109 26.218C20.3492 26.218 26.218 20.3492 26.218 13.109C26.218 5.86876 20.3492 0 13.109 0ZM13.109 25.0782C6.49909 25.0782 1.13979 19.7175 1.13979 13.109C1.13979 6.49909 6.49909 1.13979 13.109 1.13979C19.7189 1.13979 25.0782 6.49909 25.0782 13.109C25.0782 19.7189 19.7189 25.0782 13.109 25.0782Z" fill="#19D3DA"/>
</svg>
