<svg width="18" height="16" viewBox="0 0 18 16" fill="none" xmlns="http://www.w3.org/2000/svg">
<path d="M13.6724 0H3.52728C1.58229 0 0 1.74858 0 3.89798V10.1698C0 12.3192 1.58229 14.0678 3.52728 14.0678H4.05073L5.27754 15.7878C5.3732 15.9218 5.51899 16 5.67331 16C5.82762 16 5.97354 15.9218 6.06907 15.7878L7.29588 14.0678H13.6724C15.6174 14.0678 17.1997 12.3192 17.1997 10.1698V3.89798C17.1997 1.74858 15.6174 0 13.6724 0V0Z" fill="#FF337A"/>
<path d="M0 4.37897H17.1997V9.6904H0V4.37897Z" fill="#FFE95C"/>
<path d="M13.6724 0H8.59979V14.0678H13.6724C15.6173 14.0678 17.1996 12.3193 17.1996 10.1698V3.89798C17.1996 1.74858 15.6173 0 13.6724 0Z" fill="#D1005B"/>
<path d="M8.59979 4.37897H17.1996V9.6904H8.59979V4.37897Z" fill="#FCC733"/>
</svg>
