<svg width="1225" height="1280" viewBox="0 0 1225 1280" fill="none" xmlns="http://www.w3.org/2000/svg">
<path d="M1168.2 9.29997C1156.3 14.4 1146.4 19.3 1145.9 20.3C1144.7 22.4 1152.7 42.9 1157.1 49C1160.4 53.6 1174.8 61.7 1181.2 62.6C1187 63.4 1194.4 61 1205 55.1C1213.1 50.5 1213.5 50.1 1213.4 46.9C1213.3 42.2 1212 39 1202.8 20C1194.8 3.49997 1192.6 -3.14526e-05 1190.6 -3.14526e-05C1190 -3.14526e-05 1179.9 4.19997 1168.2 9.29997Z" fill="white"/>
<path d="M321 40.4C311.7 43.4 304.2 49.8 299.9 58.6C296.6 65.3 296.6 76.3 299.8 83.5C306 97.1 322.2 105.7 336.6 103.1C348 101 357.3 94.2 362.1 84.5C364.1 80.4 364.5 78 364.5 71C364.5 63.8 364.1 61.7 361.8 57.4C358.3 50.7 350.3 43.6 343.4 41.1C337.3 38.8 326.9 38.4 321 40.4Z" fill="white"/>
<path d="M989.1 114.9C988 116 986.7 118.4 986.2 120.2C974.4 162.5 967.5 185.7 966.6 186.6C966 187.2 953.4 192.8 938.5 198.9C923.7 205.1 910.7 211.1 909.8 212.2C908.8 213.3 908 215.5 908 217C908 218.5 908.8 220.4 909.8 221.3C910.7 222.1 923.8 228.2 938.8 234.8C953.8 241.3 966.3 246.9 966.6 247.2C966.8 247.5 971.2 263.3 976.3 282.3C981.5 301.9 986.3 317.8 987.2 319C989.4 321.5 995.1 321.7 997.2 319.2C998.1 318.3 1003.3 301.8 1008.7 282.5L1018.7 247.5L1046.6 235.8C1062.9 228.9 1075.2 223.1 1076.3 221.9C1078.3 219.4 1078.5 216.1 1076.8 213.7C1076.1 212.7 1063.1 206.6 1048 199.9C1032.9 193.3 1020.1 187.5 1019.7 187C1019.2 186.6 1014.7 170.6 1009.6 151.6C1003.9 130.3 999.6 116.2 998.5 115C996.2 112.5 991.6 112.4 989.1 114.9Z" fill="white"/>
<path d="M546.3 334.9C545.2 336.1 540.4 351.3 534.6 371.8L524.7 406.7L497.4 418.1C482.3 424.4 469.1 430.2 468.1 431C467 431.8 465.8 433.7 465.5 435.1C464.3 440 467.8 442.2 496.9 454.8L524.3 466.8L533.5 501.1C538.6 520.1 543.2 536.5 543.8 537.6C545.9 541.5 551.6 542.2 554.5 539C555.6 537.8 560.4 522.7 566.1 502.3C571.5 483.3 576.1 467.5 576.3 467.4C576.5 467.2 589.2 461.7 604.5 455.3C635 442.4 637 441.1 635 435.3C633.8 431.9 634.6 432.3 597.5 416.1L576.5 406.9L567.5 372.9C562.6 354.1 557.7 337.5 556.8 335.9C555.4 333.6 554.3 333 551.6 333C549.4 333 547.4 333.7 546.3 334.9ZM552 368.4C552 370.6 563.7 413.5 564.9 415.7C565.5 417 573.7 421.1 587.2 427C598.9 432.1 608.8 436.6 609.3 436.9C609.7 437.3 600.6 441.6 588.9 446.5C577.3 451.3 567 456 565.9 456.9C564.6 458 561.9 465.7 557.5 481.5C549.9 508.2 549.9 508.2 549.2 505.5C546.8 494.8 536.8 459.3 535.8 457.8C535.1 456.7 524.9 451.7 513.1 446.5C501.4 441.3 491.5 436.9 491.3 436.6C491 436.3 491.8 435.6 493.1 435.1C500.7 432.3 532.8 418.4 534.6 417.3C536.3 416.2 538.2 410.8 543.6 391.5C549.7 369.9 552 363.6 552 368.4Z" fill="white"/>
<path d="M847.9 345.4C821.8 352.7 809.8 381.9 824 403.8C838.2 425.8 869.5 429.2 887.9 410.9C905.6 393.2 903.1 365.6 882.5 351.5C872.7 344.7 859.1 342.4 847.9 345.4ZM871.4 361.4C887.2 369.1 890.3 388.5 877.8 401C868 410.9 850 410.9 839.6 401.2C832.3 394.3 830.1 382.7 834.4 373.4C840.8 359.7 857.1 354.4 871.4 361.4Z" fill="white"/>
<path d="M306 410.9C299 413.1 296.5 414.5 291.3 418.7C272.1 434.1 272.5 463.5 291.9 478.9C312.9 495.4 343.9 488.3 355.3 464.3C358.2 458.2 358.5 456.6 358.5 448.5C358.5 440.5 358.1 438.8 355.4 433C346.6 414.4 325.1 404.7 306 410.9Z" fill="white"/>
<path d="M1171.3 451.5C1161 454.7 1150.9 463.6 1146.2 473.8C1143.9 478.7 1143.5 480.8 1143.5 489C1143.5 497.6 1143.8 499.1 1146.6 505C1159 530.9 1194.2 536.4 1213.9 515.5C1216.8 512.5 1220.3 507.4 1221.8 504.3C1224.1 499.3 1224.5 497.2 1224.5 489C1224.4 480.6 1224.1 478.8 1221.6 473.6C1216.5 463.2 1208.1 455.6 1197.3 451.9C1190.7 449.7 1177.8 449.4 1171.3 451.5ZM1196.5 466.8C1205.4 471.4 1210.4 479.4 1210.4 489C1210.4 511.8 1180.6 522.8 1164.3 506C1151.1 492.5 1157.2 471 1176 464.9C1180.4 463.4 1192.2 464.5 1196.5 466.8Z" fill="white"/>
<path d="M969.5 488.4C968.2 489.7 966.6 492.8 966 495.2C965.3 497.6 960.9 513.2 956.2 530L947.5 560.4L919.5 572.2C892 583.8 888 586 888 590.1C888 594.4 890.9 596.1 918.5 608.1C933.9 614.9 946.6 620.4 946.8 620.5C946.9 620.6 951.3 636.6 956.5 656.1C963.9 683.8 966.4 691.9 968.1 693.2C971.8 696.3 976.3 695.3 978.4 691.1C979.1 689.7 983.9 673.6 989 655.5C994.1 637.3 998.8 622 999.4 621.4C1000 620.7 1012.7 615.2 1027.5 609C1042.4 602.9 1055.3 596.9 1056.3 595.8C1058.4 593.3 1058.5 589.2 1056.4 586.9C1055.6 586 1042.3 579.7 1026.9 573C1011.6 566.2 999 560.5 999 560.1C998.9 557.1 979.9 489.5 978.9 488.5C976 485.9 972.1 485.8 969.5 488.4Z" fill="white"/>
<path d="M81.9 527.9C80.1 529.3 77.6 536.7 69.6 565L59.5 600.2L32 611.7C4.8 623 0 625.7 0 629.8C0 633.9 3.6 636 31 648L59 660.3L60.5 665.4C61.3 668.2 65.3 683.3 69.5 699C73.6 714.7 77.5 728.7 78.1 730.1C80.3 735.7 87.7 736.4 90.4 731.2C91.1 729.7 95.9 713.6 101 695.5C106.1 677.3 110.8 662 111.4 661.3C112 660.6 124.9 654.9 140 648.5C155.1 642.2 168.1 636.2 168.8 635.3C170.4 633.1 170.4 628.9 168.8 626.7C168.1 625.8 155.2 619.7 140.1 613.1C125 606.5 112.3 600.7 111.9 600.3C111.4 599.8 107 584.3 102.1 565.7C97.1 547.1 92.6 531 92 530C89.8 525.9 85.5 525 81.9 527.9ZM92.5 584.1C95.9 597 99.1 608.2 99.4 609.1C100.3 611.1 100.3 611.1 124.8 621.9C136 626.8 144.8 631 144.3 631.3C143.9 631.6 135.2 635.3 125 639.5C114.8 643.7 104.8 648.1 102.8 649.1C98.6 651.2 99.3 649.4 90.8 680C88 690.2 85.4 698.8 85 699.3C84.7 699.7 81.6 689.5 78.1 676.6C74.6 663.7 71.2 652.2 70.4 651.2C69.7 650.1 59.4 645.1 47.5 639.9C35.7 634.7 26 630.3 26 630C26 629.7 35.7 625.5 47.5 620.6C59.3 615.6 69.6 611 70.4 610.2C71.2 609.4 74.9 597.8 78.7 584.4C82.4 571.1 85.6 560.3 85.8 560.5C86 560.6 89 571.3 92.5 584.1Z" fill="white"/>
<path d="M748.2 573.1C746.9 574.4 742.7 587.8 736.5 609.8C731.1 628.9 726.2 644.8 725.6 645.2C725 645.6 712.5 651 697.8 657.1C683.1 663.3 670.1 669.2 669 670.2C666.5 672.6 666.4 677.2 668.9 679.4C670 680.4 683.1 686.5 698.1 693.1C713.1 699.7 725.5 705.2 725.7 705.4C725.9 705.6 729.7 719.2 734.1 735.6C738.5 752.1 742.7 767.9 743.6 770.8C746.1 779.7 750.4 782.2 755.4 777.7C757.5 775.9 759.4 770.5 766 747C770.5 731.3 775 715.6 776 712L778 705.5L805.5 694C820.7 687.7 834 681.7 835.1 680.7C837.1 678.8 837.6 675 836.1 672.1C835.5 671.1 823.2 665.1 806.7 657.9L778.2 645.6L768.9 610.5C759 573.5 758 571 752.6 571C751.2 571 749.2 571.9 748.2 573.1Z" fill="white"/>
<path d="M1131.5 669.8C1119.9 673.8 1111 681.6 1106.2 691.8C1103.8 696.8 1103.5 698.8 1103.5 707.5C1103.5 716.6 1103.8 718 1106.5 723.5C1114.6 739.6 1133.3 749.3 1150.1 746.2C1164.2 743.6 1175.4 735.3 1181.3 723C1184 717.2 1184.4 715.5 1184.4 707.5C1184.5 699.4 1184.2 697.8 1181.3 691.8C1177.7 684.1 1170.5 676.3 1163.9 672.9C1154 667.9 1140.8 666.6 1131.5 669.8ZM1157 685.6C1163.6 689.2 1167.6 694.1 1169.6 700.9C1172.2 709.5 1169.8 718.1 1162.9 724.9C1158.8 729 1155.7 730.6 1148.5 732.1C1128.7 736.1 1111.3 716.2 1118.9 698.4C1125.2 683.7 1142.7 677.8 1157 685.6Z" fill="white"/>
<path d="M559.3 728.9C548.8 732.5 540.5 739.9 535.6 750C532.8 755.9 532.5 757.4 532.5 766C532.5 774.5 532.8 776.2 535.6 782C547.5 807.1 581.1 813.3 601.3 794.1C620 776.4 617.2 747.3 595.5 733.5C592.8 731.7 588.3 729.6 585.6 728.7C579 726.4 566.1 726.6 559.3 728.9ZM585.5 743.7C594.4 748.4 599.4 756.4 599.4 766C599.4 773.4 597.2 778.5 591.8 783.7C581.6 793.5 563.6 793.4 553.7 783.5C548.1 777.8 546.5 774 546.5 766.5C546.5 755.6 551.3 748.2 561.5 743.3C565.7 741.3 567.6 741 574 741.3C579 741.5 582.8 742.4 585.5 743.7Z" fill="white"/>
<path d="M215.9 738.4C204.4 741.6 194.1 750.2 189.2 760.8C186.8 765.8 186.5 767.7 186.5 776.5C186.5 785.2 186.8 787.2 189.2 792.2C199.3 813.9 226.2 822.3 247.5 810.4C261.6 802.5 270.1 785.2 267.1 770.3C262.5 747 238.7 732.2 215.9 738.4ZM238.1 753.7C254.7 761 258.5 781.3 245.8 794C238 801.9 224.3 803.9 214.4 798.8C195.8 789.1 195.1 765.9 213.1 754.7C219.8 750.6 230.2 750.2 238.1 753.7Z" fill="white"/>
<path d="M1145.8 796.7C1144.9 797.7 1141.2 808.2 1137.6 820C1133.9 831.8 1130.6 841.8 1130.2 842.1C1129.8 842.4 1121.4 845.8 1111.5 849.5C1093.5 856.3 1089 858.9 1089 862.9C1089 866.9 1092.8 869.2 1111.5 876.8L1130.5 884.5L1135.7 902C1138.5 911.6 1141.3 921.4 1141.9 923.8C1142.5 926.1 1143.9 928.9 1145 930C1147.5 932.5 1152.2 932.6 1154.5 930.1C1155.4 929 1159.3 918.3 1163 906.4L1169.7 884.7L1188.3 877.5C1198.5 873.6 1207.8 869.6 1208.9 868.5C1211.5 866.2 1211.6 861.6 1209.2 859.2C1208.1 858.1 1198.9 854 1188.7 849.9L1170.1 842.5L1165 825C1157.8 800.6 1157 798.2 1155.3 796.5C1153.3 794.4 1147.7 794.6 1145.8 796.7Z" fill="white"/>
<path d="M944.9 830.9C942.9 832.5 940.7 839.2 932.5 868L922.5 903.2L894.9 914.8C879.8 921.3 866.6 927 865.7 927.5C863.1 929.2 862.5 934.2 864.7 936.8C865.8 938.1 877.7 943.9 893.9 951C909 957.7 921.6 963.2 921.8 963.4C922 963.6 926.1 978.8 931.1 997.1C941.2 1034.8 941.3 1035.1 944.1 1036.8C946.8 1038.5 951.7 1037.4 953.1 1034.7C953.8 1033.6 958.7 1017.1 964.1 998.2C969.5 979.3 974 963.7 974.2 963.6C974.4 963.5 986.8 958.2 1001.8 951.9C1016.9 945.6 1030 939.7 1031.1 938.7C1033.1 936.8 1033.6 933 1032.1 930.1C1031.5 929.1 1019.1 923.1 1002.7 915.9L974.3 903.5L972.5 896.5C962.1 856.1 955 832.5 953 830.8C950.2 828.5 947.8 828.5 944.9 830.9ZM955 886.1C958.3 898.4 961.5 909.7 962.1 911.1C963.4 914.3 962.5 913.8 987.9 924.9C1006.5 933 1008.2 934 1005.9 934.9C1004.6 935.5 995.1 939.5 984.9 943.8C974.7 948 965.3 952.2 964.1 953C962.4 954.2 960.7 958.6 956.4 973.5C948.1 1002.7 947.9 1003.2 947.5 1002.9C947.3 1002.7 944.4 992.1 941 979.5C937.6 966.8 934.3 955.6 933.5 954.4C932.7 953.1 924.1 948.8 910.6 942.9C898.7 937.7 889 933.3 889 933C889 932.7 898.6 928.5 910.3 923.6C921.9 918.7 932.2 914.1 933.1 913.4C933.9 912.6 937.7 901 941.5 887.6C945.4 874.1 948.6 863.3 948.8 863.5C949 863.6 951.8 873.8 955 886.1Z" fill="white"/>
<path d="M157.9 892.4C142.8 898.2 135.1 907.7 134.2 921.5C133.1 939 146.2 953.5 165 955.7C170.8 956.4 180.6 953.9 186.1 950.4C196.3 944 201.5 934.6 201.5 923C201.4 916.4 201 914.7 198 909.2C192.1 898 182.1 891.9 169 891.3C164.3 891.1 160.2 891.5 157.9 892.4Z" fill="white"/>
<path d="M308.4 910.8C288.1 916.8 275.2 938 280.3 957.3C288.5 988.6 328.8 998.4 350.9 974.5C362.7 961.7 364.4 941.7 354.8 927.4C344.9 912.8 325.4 905.8 308.4 910.8ZM327.1 924.1C335.8 926.8 341.2 931.3 344.6 938.5C348.8 947.3 347 958.1 340.2 965.3C330.1 976 311.5 976.3 301.2 966C293.6 958.5 291.3 947.2 295.5 938.5C301 927.2 315.7 920.5 327.1 924.1Z" fill="white"/>
<path d="M434.3 955.3C431.4 956.6 431.3 956.8 420.6 994.9C415.4 1013.2 411 1028.3 410.8 1028.5C410.6 1028.7 398.2 1033.9 383.2 1040.2C368.2 1046.5 355 1052.4 353.9 1053.3C351.5 1055.4 351.3 1061.2 353.6 1063.1C354.6 1063.9 367.7 1069.9 382.9 1076.6L410.5 1088.7L420.1 1124.5C427 1150.2 430.3 1160.7 431.6 1161.7C434.2 1163.6 438.6 1163.3 440.7 1161.1C441.8 1159.9 446.5 1145 452.4 1124.1L462.3 1089.1L484.4 1079.9C519.9 1065.1 520.7 1064.7 521.5 1061.1C522.7 1055.5 520.8 1054.3 491.3 1041.4C476 1034.7 463.2 1028.6 462.8 1027.9C462.4 1027.1 458 1011.3 453 992.6C448.1 974 443.3 957.9 442.5 957C440.5 954.8 437 954.1 434.3 955.3Z" fill="white"/>
<path d="M743.4 995.5C728.5 1000.2 717.4 1012.6 715 1027.3C710.8 1053.2 735.5 1076.8 761.9 1072.1C775.2 1069.7 785.9 1062.2 791.8 1051.3C805.9 1024.7 785.7 993.7 754.6 994.1C750.7 994.2 745.7 994.8 743.4 995.5ZM767.6 1010.8C776.8 1015.5 781.9 1023.6 782 1033.3C782 1040.3 780.4 1044.5 775.6 1049.8C760 1067 729 1056.4 729 1033.8C729 1022.1 735.1 1013.7 746.9 1009.3C752 1007.4 762.5 1008.2 767.6 1010.8Z" fill="white"/>
<path d="M726.3 1171C713.5 1172.9 701.2 1182.1 695.6 1194C692.8 1199.8 692.5 1201.5 692.5 1210C692.5 1218.6 692.8 1220.1 695.6 1226C703.1 1241.5 717 1249.6 735 1248.8C742 1248.5 744.7 1247.9 750.2 1245.3C775.3 1233.4 781.6 1203.5 763.1 1183.7C753.8 1173.7 740 1169 726.3 1171Z" fill="white"/>
<path d="M251.9 1202.9C241.3 1206.3 231.8 1214.5 226.7 1224.6C225.8 1226.3 224.6 1230.6 223.9 1234.3C220.3 1253.7 233.6 1273.2 254 1278.5C273.2 1283.5 293.5 1274 301.8 1256.2C304.2 1251.2 304.5 1249.2 304.5 1240.5C304.5 1231.7 304.2 1229.8 301.8 1224.8C293.2 1206.4 271.1 1196.7 251.9 1202.9ZM276.2 1218C288.9 1224.5 294.3 1238.2 288.9 1250C284.4 1259.9 275.7 1265.4 264.5 1265.4C240.2 1265.5 228.6 1239.1 245.6 1222.6C253.4 1215 266.7 1213 276.2 1218Z" fill="white"/>
</svg>
