<svg width="23" height="18" viewBox="0 0 23 18" fill="none" xmlns="http://www.w3.org/2000/svg">
<path d="M9.28237 6.17259C9.10731 6.84512 8.25115 6.46139 8.60264 6.56301L3.11829 5.18051C2.82013 5.1043 2.63823 4.80614 2.71756 4.51467C2.79552 4.2232 3.09914 4.04537 3.39729 4.12158L8.88301 5.50809C9.1798 5.58296 9.3617 5.88112 9.28237 6.17259ZM8.88165 9.16488L3.39592 7.77837C3.09777 7.70483 2.79415 7.87999 2.71619 8.17146C2.63823 8.46293 2.81877 8.75975 3.11829 8.83597L8.60264 10.2225C8.24431 10.1396 9.11278 10.4792 9.28237 9.82938C9.3617 9.53657 9.1798 9.24109 8.88165 9.16488ZM7.23634 12.3524L3.39592 11.3803C3.09777 11.3041 2.79415 11.482 2.71619 11.7748C2.63823 12.0662 2.81877 12.3617 3.11692 12.4366L6.9587 13.4073C6.59627 13.3244 7.46474 13.6653 7.6357 13.0155C7.71366 12.7227 7.53586 12.4259 7.23634 12.3524ZM22.319 0.546352V14.854C22.319 15.1026 22.1467 15.3192 21.9005 15.3794L11.2942 17.984C11.1985 18.0053 11.1109 18.0053 11.0152 17.984L0.418507 15.3794C0.173694 15.3192 0 15.1026 0 14.854V0.546352C0 0.189364 0.34055 -0.0700213 0.696144 0.0168859L11.1533 2.58533L21.6215 0.0168859C21.9785 -0.0700213 22.319 0.189364 22.319 0.546352ZM10.5981 3.57072L1.11602 1.24963V14.4288L10.5981 16.7512V3.57072ZM21.2043 1.24963L11.7141 3.57072V16.7525L21.2043 14.4301V1.24963ZM19.596 4.51467C19.5166 4.2232 19.2144 4.04537 18.9149 4.12158L13.4291 5.50809C13.131 5.5843 12.9491 5.88246 13.0284 6.17393C13.2035 6.84646 14.061 6.46273 13.7095 6.56434L19.1925 5.18185C19.492 5.10297 19.6739 4.80614 19.596 4.51467ZM19.596 8.17146C19.5166 7.87999 19.2144 7.70483 18.9149 7.77837L13.4291 9.16354C13.131 9.23975 12.9491 9.53657 13.0284 9.82938C13.198 10.4792 14.0665 10.1396 13.7095 10.2225L19.1925 8.83597C19.492 8.75975 19.6739 8.46293 19.596 8.17146ZM17.9479 12.1892C17.8727 11.8964 17.5705 11.7213 17.2709 11.7962L13.4291 12.7668C13.131 12.8417 12.9491 13.1399 13.0284 13.43C13.2021 14.1066 14.061 13.7215 13.7095 13.8218L17.5486 12.8551C17.8481 12.7775 18.0273 12.4807 17.9479 12.1892Z" fill="#19D3DA"/>
</svg>
