<svg width="41" height="38" viewBox="0 0 41 38" fill="none" xmlns="http://www.w3.org/2000/svg">
<g style="mix-blend-mode:darken">
<path fill-rule="evenodd" clip-rule="evenodd" d="M20.5 38C31.8218 38 41 29.4934 41 19C41 8.50659 31.8218 0 20.5 0C9.17816 0 0 8.50659 0 19C0 29.4934 9.17816 38 20.5 38ZM29.301 12.2572C28.5527 12.6615 27.7273 12.9555 26.8469 13.1127C26.147 12.4287 25.1412 12 24.0319 12C21.8991 12 20.1714 13.5781 20.1714 15.5258C20.1714 15.8014 20.2044 16.0709 20.2704 16.3302C17.0592 16.1791 14.2133 14.7745 12.3095 12.6431C11.9771 13.1637 11.7856 13.77 11.7856 14.4152C11.7856 15.6381 12.4679 16.7181 13.5024 17.351C12.8707 17.3305 12.2764 17.1733 11.7548 16.9079V16.9508C11.7548 18.6596 13.0864 20.0846 14.8538 20.4092C14.5302 20.4909 14.1891 20.5317 13.8369 20.5317C13.5882 20.5317 13.3461 20.5093 13.1106 20.4684C13.6014 21.871 15.0277 22.8897 16.7158 22.9163C15.3952 23.8636 13.7313 24.425 11.9199 24.425C11.6074 24.425 11.3014 24.4107 10.9999 24.378C12.71 25.3764 14.7393 25.9603 16.9183 25.9603C24.0231 25.9603 27.9034 20.5909 27.9034 15.93C27.9034 15.7769 27.899 15.6258 27.8946 15.4748C28.6473 14.9766 29.301 14.358 29.8204 13.6496C29.1249 13.9293 28.3854 14.1192 27.6019 14.2049C28.3986 13.77 29.0127 13.08 29.301 12.2572Z" fill="#19D3DA"/>
</g>
</svg>
