<svg width="182" height="178" viewBox="0 0 182 178" fill="none" xmlns="http://www.w3.org/2000/svg">
<path d="M2.15636 162.851C3.34729 162.851 4.31272 161.882 4.31272 160.687C4.31272 159.492 3.34729 158.523 2.15636 158.523C0.965436 158.523 0 159.492 0 160.687C0 161.882 0.965436 162.851 2.15636 162.851Z" fill="#2D4356"/>
<path d="M11.8601 158.523H8.62548C8.05357 158.523 7.5051 158.751 7.1007 159.157C6.6963 159.563 6.46912 160.113 6.46912 160.687C6.46912 161.261 6.6963 161.811 7.1007 162.217C7.5051 162.623 8.05357 162.851 8.62548 162.851H11.8601C12.432 162.851 12.9804 162.623 13.3848 162.217C13.7892 161.811 14.0164 161.261 14.0164 160.687C14.0164 160.113 13.7892 159.563 13.3848 159.157C12.9804 158.751 12.432 158.523 11.8601 158.523Z" fill="#2D4356"/>
<path d="M127.391 167.179H118.434C117.892 167.223 117.386 167.47 117.017 167.871C116.648 168.272 116.444 168.798 116.444 169.343C116.444 169.889 116.648 170.415 117.017 170.816C117.386 171.217 117.892 171.464 118.434 171.508H127.391C127.933 171.464 128.439 171.217 128.808 170.816C129.177 170.415 129.382 169.889 129.382 169.343C129.382 168.798 129.177 168.272 128.808 167.871C128.439 167.47 127.933 167.223 127.391 167.179ZM62.7004 167.179H53.7432C53.2011 167.223 52.6952 167.47 52.3264 167.871C51.9575 168.272 51.7527 168.798 51.7527 169.343C51.7527 169.889 51.9575 170.415 52.3264 170.816C52.6952 171.217 53.2011 171.464 53.7432 171.508H62.7004C63.2425 171.464 63.7484 171.217 64.1172 170.816C64.4861 170.415 64.6909 169.889 64.6909 169.343C64.6909 168.798 64.4861 168.272 64.1172 167.871C63.7484 167.47 63.2425 167.223 62.7004 167.179ZM112.131 167.179H69.0036C68.4317 167.179 67.8832 167.407 67.4788 167.813C67.0744 168.219 66.8472 168.769 66.8472 169.343C66.8472 169.917 67.0744 170.468 67.4788 170.874C67.8832 171.28 68.4317 171.508 69.0036 171.508H86.1898V173.672H77.6291C77.0571 173.672 76.5087 173.9 76.1043 174.306C75.6999 174.711 75.4727 175.262 75.4727 175.836C75.4727 176.41 75.6999 176.96 76.1043 177.366C76.5087 177.772 77.0571 178 77.6291 178H104.584C105.155 178 105.704 177.772 106.108 177.366C106.513 176.96 106.74 176.41 106.74 175.836C106.74 175.262 106.513 174.711 106.108 174.306C105.704 173.9 105.155 173.672 104.584 173.672H94.9446V171.508H112.131C112.703 171.508 113.251 171.28 113.656 170.874C114.06 170.468 114.287 169.917 114.287 169.343C114.287 168.769 114.06 168.219 113.656 167.813C113.251 167.407 112.703 167.179 112.131 167.179Z" fill="#0BCEB2"/>
<path d="M51.7527 61.1367H79.7854C80.3573 61.1367 80.9058 60.9087 81.3102 60.5029C81.7146 60.097 81.9417 59.5466 81.9417 58.9726C81.9417 58.3986 81.7146 57.8482 81.3102 57.4423C80.9058 57.0365 80.3573 56.8085 79.7854 56.8085H51.7527C51.1808 56.8085 50.6323 57.0365 50.2279 57.4423C49.8235 57.8482 49.5963 58.3986 49.5963 58.9726C49.5963 59.5466 49.8235 60.097 50.2279 60.5029C50.6323 60.9087 51.1808 61.1367 51.7527 61.1367Z" fill="#2D4356"/>
<path d="M51.7527 69.7934H87.3326C87.9045 69.7934 88.453 69.5653 88.8574 69.1595C89.2618 68.7536 89.489 68.2032 89.489 67.6292C89.489 67.0553 89.2618 66.5048 88.8574 66.0989C88.453 65.6931 87.9045 65.4651 87.3326 65.4651H51.7527C51.1808 65.4651 50.6323 65.6931 50.2279 66.0989C49.8235 66.5048 49.5963 67.0553 49.5963 67.6292C49.5963 68.2032 49.8235 68.7536 50.2279 69.1595C50.6323 69.5653 51.1808 69.7934 51.7527 69.7934Z" fill="#0BCEB2"/>
<path d="M51.7527 78.4499H97.0363C97.6082 78.4499 98.1566 78.2218 98.561 77.816C98.9654 77.4101 99.1926 76.8597 99.1926 76.2857C99.1926 75.7118 98.9654 75.1613 98.561 74.7554C98.1566 74.3496 97.6082 74.1216 97.0363 74.1216H51.7527C51.1808 74.1216 50.6323 74.3496 50.2279 74.7554C49.8235 75.1613 49.5963 75.7118 49.5963 76.2857C49.5963 76.8597 49.8235 77.4101 50.2279 77.816C50.6323 78.2218 51.1808 78.4499 51.7527 78.4499Z" fill="#2D4356"/>
<path d="M109.974 84.9422C109.974 84.3683 109.747 83.8178 109.343 83.412C108.938 83.0061 108.39 82.7781 107.818 82.7781H51.7527C51.1808 82.7781 50.6323 83.0061 50.2279 83.4119C49.8235 83.8178 49.5963 84.3682 49.5963 84.9422C49.5963 85.5162 49.8235 86.0666 50.2279 86.4725C50.6323 86.8783 51.1808 87.1063 51.7527 87.1063H107.818C108.39 87.1063 108.938 86.8783 109.343 86.4724C109.747 86.0666 109.974 85.5162 109.974 84.9422Z" fill="#0BCEB2"/>
<path d="M113.985 81.1941C114.425 81.5602 114.991 81.7364 115.56 81.6839C116.129 81.6313 116.653 81.3545 117.019 80.9141C117.385 80.4736 117.561 79.9056 117.51 79.3347C117.459 78.7637 117.184 78.2365 116.746 77.8687L105.795 68.7107L116.746 59.5528C117.184 59.185 117.459 58.6578 117.51 58.0868C117.561 57.5158 117.385 56.9478 117.019 56.5074C116.653 56.067 116.129 55.7901 115.56 55.7376C114.991 55.6851 114.425 55.8612 113.985 56.2273L101.047 67.048C100.804 67.2511 100.609 67.5054 100.474 67.7927C100.34 68.08 100.271 68.3934 100.271 68.7107C100.271 69.028 100.34 69.3414 100.474 69.6288C100.609 69.9161 100.804 70.1703 101.047 70.3735L113.985 81.1941ZM124.491 80.9168C124.672 81.1351 124.895 81.3154 125.145 81.4475C125.396 81.5796 125.67 81.6609 125.952 81.6866C126.234 81.7124 126.518 81.6822 126.789 81.5977C127.059 81.5132 127.31 81.376 127.528 81.1941L140.466 70.3735C140.709 70.1704 140.904 69.9161 141.038 69.6288C141.172 69.3415 141.242 69.028 141.242 68.7107C141.242 68.3935 141.172 68.08 141.038 67.7927C140.904 67.5054 140.709 67.2511 140.466 67.048L127.528 56.2274C127.088 55.8612 126.522 55.6851 125.953 55.7376C125.384 55.7901 124.859 56.067 124.494 56.5074C124.128 56.9478 123.951 57.5159 124.003 58.0868C124.054 58.6578 124.329 59.185 124.767 59.5528L135.717 68.7107L124.767 77.8687C124.328 78.2362 124.052 78.7638 124 79.3354C123.948 79.907 124.125 80.4758 124.491 80.9168Z" fill="#2D4356"/>
<path d="M172.509 158.523H169.274C168.703 158.523 168.154 158.751 167.75 159.157C167.345 159.563 167.118 160.113 167.118 160.687C167.118 161.261 167.345 161.811 167.75 162.217C168.154 162.623 168.703 162.851 169.274 162.851H172.509C173.081 162.851 173.629 162.623 174.034 162.217C174.438 161.811 174.665 161.261 174.665 160.687C174.665 160.113 174.438 159.563 174.034 159.157C173.629 158.751 173.081 158.523 172.509 158.523Z" fill="#2D4356"/>
<path d="M178.978 162.851C180.169 162.851 181.134 161.882 181.134 160.687C181.134 159.492 180.169 158.523 178.978 158.523C177.787 158.523 176.822 159.492 176.822 160.687C176.822 161.882 177.787 162.851 178.978 162.851Z" fill="#2D4356"/>
<path fill-rule="evenodd" clip-rule="evenodd" d="M116.444 33.0031H122.913C123.485 33.0031 124.033 33.2311 124.437 33.6369C124.842 34.0428 125.069 34.5931 125.069 35.1671C125.069 35.741 124.842 36.2915 124.437 36.6974C124.033 37.1032 123.485 37.3312 122.913 37.3312H116.444C115.872 37.3312 115.323 37.1032 114.919 36.6974C114.514 36.2915 114.287 35.741 114.287 35.1671C114.287 34.5931 114.514 34.0428 114.919 33.6369C115.323 33.2311 115.872 33.0031 116.444 33.0031ZM131.538 33.0031H138.007C138.579 33.0031 139.128 33.2311 139.532 33.6369C139.936 34.0428 140.164 34.5931 140.164 35.1671C140.164 35.741 139.936 36.2915 139.532 36.6974C139.128 37.1032 138.579 37.3312 138.007 37.3312H131.538C130.966 37.3312 130.418 37.1032 130.013 36.6974C129.609 36.2915 129.382 35.741 129.382 35.1671C129.382 34.5931 129.609 34.0428 130.013 33.6369C130.418 33.2311 130.966 33.0031 131.538 33.0031Z" fill="#0BCEB2"/>
<path d="M23.3275 48.9625L24.9296 46.847L23.9172 46.2714L22.8886 48.6411H22.8541L21.8094 46.2876L20.7786 46.8806L22.3657 48.9462V48.9798L19.8848 48.6584V49.8097L22.3819 49.4883V49.5219L20.7786 51.5865L21.7404 52.1968L22.838 49.8097H22.8714L23.8838 52.1794L24.9469 51.5702L23.3275 49.5381V49.5046L25.873 49.8097V48.6584L23.3275 48.9971V48.9625Z" fill="#0BCEB2"/>
<path d="M91.3046 3.41165L90.3817 4.60084L90.9348 4.95251L91.5666 3.57721H91.586L92.1693 4.94277L92.7807 4.5911L91.848 3.42139V3.40191L93.3154 3.57721V2.91498L91.848 3.10975V3.09028L92.772 1.87187L92.1887 1.53967L91.5957 2.90416H91.5763L90.9747 1.54941L90.3817 1.89026L91.2949 3.08054V3.10001L89.8663 2.91498V3.57721L91.3046 3.39217V3.41165Z" fill="#0BCEB2"/>
<path d="M175.775 60.6185V59.4888L173.277 59.821V59.7886L174.849 57.7121L173.856 57.1483L172.846 59.4726H172.813L171.788 57.1645L170.777 57.7456L172.333 59.7723V59.8048L169.901 59.4888V60.6185L172.349 60.3036V60.3361L170.777 62.3617L171.721 62.9601L172.797 60.6185H172.829L173.822 62.9439L174.865 62.3455L173.277 60.3523V60.3199L175.775 60.6185Z" fill="#0BCEB2"/>
<path d="M158.17 36.0199L159.527 34.2291L158.67 33.7421L157.799 35.7472H157.77L156.886 33.7562L156.015 34.2583L157.357 36.0058V36.0339L155.258 35.7623V36.7362L157.371 36.4646V36.4927L156.015 38.2403L156.828 38.7564L157.756 36.7362H157.784L158.641 38.7413L159.541 38.2262L158.17 36.5068V36.4787L160.325 36.7362V35.7623L158.17 36.048V36.0199Z" fill="#0BCEB2"/>
<path fill-rule="evenodd" clip-rule="evenodd" d="M147.835 158.523H164.27C164.577 158.483 164.888 158.508 165.184 158.599C165.48 158.689 165.754 158.842 165.986 159.047C166.219 159.252 166.405 159.504 166.533 159.787C166.66 160.07 166.726 160.376 166.726 160.687C166.726 160.997 166.66 161.304 166.533 161.587C166.405 161.87 166.219 162.122 165.986 162.327C165.754 162.532 165.48 162.685 165.184 162.775C164.888 162.865 164.577 162.891 164.27 162.851H20.395C20.0882 162.891 19.7764 162.865 19.4804 162.775C19.1844 162.685 18.9111 162.532 18.6785 162.327C18.446 162.122 18.2598 161.87 18.1322 161.587C18.0045 161.304 17.9385 160.997 17.9385 160.687C17.9385 160.376 18.0045 160.07 18.1322 159.787C18.2598 159.504 18.446 159.252 18.6785 159.047C18.9111 158.842 19.1844 158.689 19.4804 158.599C19.7764 158.508 20.0882 158.483 20.395 158.523H36.8294C35.07 156.394 34.1083 153.714 34.1108 150.948V36.2492C34.1144 33.0935 35.3651 30.0681 37.5885 27.8367C39.8119 25.6053 42.8265 24.3501 45.9708 24.3465H138.694C141.838 24.3501 144.853 25.6053 147.076 27.8367C149.3 30.0681 150.55 33.0935 150.554 36.2492V150.948C150.557 153.714 149.595 156.394 147.835 158.523ZM140 140.128H146.241V101.173H140V96.845H146.241V45.9878H47.049V150.948C47.0513 152.956 47.8473 154.882 49.2621 156.302C50.677 157.722 52.5953 158.52 54.5963 158.523H138.694C140.695 158.52 142.613 157.722 144.028 156.302C145.443 154.882 146.239 152.956 146.241 150.948V144.456H140V140.128ZM49.2621 30.8959C47.8473 32.3159 47.0513 34.2411 47.049 36.2492V41.6596H146.241V36.2492C146.239 34.2411 145.443 32.3159 144.028 30.8959C142.613 29.4759 140.695 28.6771 138.694 28.6748H54.5963C52.5953 28.6771 50.677 29.4759 49.2621 30.8959ZM40.4513 31.0939C39.1511 32.4938 38.4267 34.3355 38.4236 36.2492V150.948C38.4267 152.862 39.1511 154.704 40.4513 156.104C41.7515 157.504 43.5312 158.358 45.4332 158.495C43.6875 156.371 42.7339 153.702 42.7363 150.948V36.2492C42.7339 33.4954 43.6875 30.8268 45.4332 28.7021C43.5312 28.8395 41.7515 29.694 40.4513 31.0939ZM10.0316 35.7022C9.49964 36.0589 8.87427 36.2492 8.23454 36.2492C7.37699 36.2483 6.55484 35.9059 5.94846 35.2974C5.34208 34.6888 5.00098 33.8637 5 33.003C5 32.361 5.1897 31.7334 5.54512 31.1995C5.90053 30.6657 6.4057 30.2496 6.99673 30.0039C7.58777 29.7582 8.23813 29.694 8.86557 29.8192C9.49301 29.9445 10.0694 30.2536 10.5217 30.7076C10.9741 31.1616 11.2821 31.74 11.4069 32.3697C11.5317 32.9994 11.4677 33.6521 11.2229 34.2453C10.978 34.8385 10.5635 35.3455 10.0316 35.7022ZM9.13305 31.6535C8.86709 31.4751 8.55441 31.3799 8.23454 31.3799C7.80574 31.3804 7.39463 31.5515 7.09142 31.8558C6.78822 32.1601 6.61769 32.5727 6.61727 33.003C6.61727 33.3241 6.71212 33.6379 6.88983 33.9048C7.06754 34.1717 7.32012 34.3797 7.61564 34.5026C7.91116 34.6254 8.23633 34.6576 8.55005 34.595C8.86377 34.5323 9.15195 34.3777 9.37812 34.1507C9.6043 33.9238 9.75833 33.6345 9.82074 33.3197C9.88314 33.0048 9.85111 32.6785 9.7287 32.3819C9.6063 32.0853 9.39901 31.8318 9.13305 31.6535ZM132.105 7.39816C132.46 7.16036 132.877 7.03343 133.303 7.03343C133.875 7.03409 134.423 7.26231 134.827 7.66802C135.231 8.07373 135.459 8.62381 135.459 9.19757C135.459 9.62559 135.333 10.044 135.096 10.3999C134.859 10.7558 134.522 11.0332 134.128 11.197C133.734 11.3608 133.301 11.4036 132.882 11.3201C132.464 11.2366 132.08 11.0305 131.778 10.7278C131.477 10.4252 131.271 10.0396 131.188 9.61977C131.105 9.19997 131.148 8.76483 131.311 8.36939C131.474 7.97395 131.75 7.63596 132.105 7.39816ZM132.704 10.0973C132.881 10.2162 133.09 10.2796 133.303 10.2796C133.589 10.2793 133.863 10.1653 134.065 9.96239C134.267 9.75952 134.381 9.48446 134.381 9.19757C134.381 8.98356 134.318 8.77435 134.2 8.5964C134.081 8.41846 133.913 8.27977 133.716 8.19787C133.519 8.11597 133.302 8.09454 133.093 8.13629C132.884 8.17805 132.691 8.2811 132.541 8.43243C132.39 8.58376 132.287 8.77657 132.246 8.98647C132.204 9.19637 132.225 9.41394 132.307 9.61166C132.389 9.80938 132.527 9.97837 132.704 10.0973ZM16.7401 0.364722C17.0947 0.126924 17.5116 0 17.9381 0C18.5098 0.000655833 19.0579 0.228873 19.4622 0.634584C19.8664 1.0403 20.0938 1.59037 20.0945 2.16413C20.0945 2.59216 19.968 3.01057 19.7311 3.36646C19.4941 3.72235 19.1574 3.99973 18.7633 4.16353C18.3693 4.32733 17.9357 4.37019 17.5174 4.28668C17.0992 4.20318 16.7149 3.99707 16.4134 3.69441C16.1118 3.39175 15.9064 3.00614 15.8232 2.58634C15.74 2.16653 15.7827 1.7314 15.9459 1.33596C16.1091 0.940512 16.3855 0.60252 16.7401 0.364722ZM17.3391 3.06384C17.5164 3.18274 17.7249 3.2462 17.9381 3.2462C18.224 3.24591 18.4981 3.13182 18.7002 2.92895C18.9023 2.72609 19.016 2.45103 19.0163 2.16413C19.0163 1.95012 18.9531 1.74091 18.8346 1.56297C18.7161 1.38502 18.5477 1.24633 18.3507 1.16443C18.1537 1.08254 17.9369 1.06111 17.7278 1.10286C17.5186 1.14461 17.3265 1.24767 17.1757 1.399C17.025 1.55033 16.9223 1.74313 16.8807 1.95303C16.8391 2.16293 16.8604 2.3805 16.942 2.57822C17.0236 2.77594 17.1618 2.94494 17.3391 3.06384ZM176.342 3.153C176.696 2.91521 177.113 2.78828 177.54 2.78828C178.111 2.78894 178.659 3.01715 179.064 3.42287C179.468 3.82858 179.695 4.37865 179.696 4.95241C179.696 5.38044 179.57 5.79885 179.333 6.15474C179.096 6.51063 178.759 6.78802 178.365 6.95181C177.971 7.11561 177.537 7.15847 177.119 7.07497C176.701 6.99146 176.316 6.78535 176.015 6.48269C175.713 6.18003 175.508 5.79442 175.425 5.37462C175.341 4.95482 175.384 4.51968 175.547 4.12424C175.711 3.72879 175.987 3.3908 176.342 3.153ZM176.941 5.85212C177.118 5.97102 177.326 6.03448 177.54 6.03448C177.825 6.0342 178.1 5.9201 178.302 5.71723C178.504 5.51437 178.618 5.23931 178.618 4.95241C178.618 4.7384 178.555 4.5292 178.436 4.35125C178.318 4.17331 178.149 4.03461 177.952 3.95271C177.755 3.87082 177.538 3.84939 177.329 3.89114C177.12 3.93289 176.928 4.03595 176.777 4.18728C176.626 4.33861 176.524 4.53141 176.482 4.74131C176.441 4.95121 176.462 5.16878 176.544 5.3665C176.625 5.56423 176.763 5.73322 176.941 5.85212ZM58.2733 11.2414C58.5103 11.5973 58.6367 12.0157 58.6367 12.4438C58.6361 13.0175 58.4087 13.5676 58.0044 13.9733C57.6002 14.379 57.0521 14.6072 56.4804 14.6079C56.0539 14.6079 55.637 14.481 55.2823 14.2432C54.9277 14.0054 54.6514 13.6674 54.4881 13.2719C54.3249 12.8765 54.2822 12.4414 54.3654 12.0216C54.4486 11.6018 54.654 11.2162 54.9556 10.9135C55.2572 10.6108 55.6414 10.4047 56.0597 10.3212C56.478 10.2377 56.9115 10.2806 57.3056 10.4444C57.6996 10.6082 58.0364 10.8856 58.2733 11.2414ZM55.5839 11.8426C55.4654 12.0205 55.4022 12.2298 55.4022 12.4438C55.4025 12.7307 55.5161 13.0057 55.7183 13.2086C55.9204 13.4115 56.1945 13.5255 56.4804 13.5258C56.6936 13.5258 56.9021 13.4624 57.0794 13.3435C57.2567 13.2246 57.3949 13.0556 57.4765 12.8579C57.5581 12.6601 57.5794 12.4426 57.5378 12.2327C57.4962 12.0228 57.3935 11.83 57.2427 11.6786C57.092 11.5273 56.8998 11.4242 56.6907 11.3825C56.4816 11.3407 56.2648 11.3622 56.0678 11.4441C55.8707 11.526 55.7024 11.6647 55.5839 11.8426Z" fill="#2D4356"/>
<rect x="47" y="96" width="100" height="6" fill="#2D4356"/>
<rect x="47" y="140" width="100" height="6" fill="#2D4356"/>
<path d="M49.6426 130V127.798L51.2539 127.454V116.916L49.6426 116.572V114.359H57.0225L60.8037 124.661H60.8682L64.542 114.359H71.8359V116.572L70.2139 116.916V127.454L71.8359 127.798V130H64.832V127.798L66.5186 127.454V125.413L66.6045 118.055L66.54 118.044L62.1143 130H59.1494L54.6592 118.184L54.584 118.194L54.8418 124.897V127.454L56.6572 127.798V130H49.6426ZM70.6221 130V127.798L71.7178 127.637L76.3799 114.359H80.4619L85.1348 127.637L86.2305 127.798V130H80.3867V127.798L81.4072 127.604L80.9346 125.907H75.9072L75.4561 127.604L76.4766 127.798V130H70.6221ZM76.7021 123.265H80.1289L78.6035 118.527L78.4316 117.979H78.3672L78.1846 118.581L76.7021 123.265ZM89.3564 130V127.798L90.9893 127.454V117.281H88.5723L88.4756 118.968H85.6289V114.359H100.163V118.968H97.2842L97.1982 117.281H94.7598V127.454L96.3926 127.798V130H89.3564ZM100.732 130V127.798L102.354 127.454V116.916L100.732 116.572V114.359H108.102V116.572L106.125 116.916V127.11H109.842L109.928 124.93H112.807V130H100.732ZM113.247 130V127.798L114.343 127.637L119.005 114.359H123.087L127.76 127.637L128.855 127.798V130H123.012V127.798L124.032 127.604L123.56 125.907H118.532L118.081 127.604L119.102 127.798V130H113.247ZM119.327 123.265H122.754L121.229 118.527L121.057 117.979H120.992L120.81 118.581L119.327 123.265ZM129.543 130V127.798L131.165 127.454V116.916L129.543 116.572V114.359H136.622C138.591 114.359 140.128 114.721 141.23 115.444C142.333 116.168 142.885 117.245 142.885 118.678C142.885 119.415 142.709 120.078 142.358 120.665C142.007 121.245 141.467 121.686 140.736 121.986C141.674 122.187 142.355 122.599 142.777 123.222C143.2 123.838 143.411 124.55 143.411 125.359C143.411 126.892 142.899 128.049 141.875 128.829C140.851 129.61 139.365 130 137.417 130H129.543ZM134.936 120.848H136.461C138.23 120.848 139.114 120.268 139.114 119.107C139.114 118.456 138.907 117.983 138.491 117.689C138.083 117.389 137.46 117.238 136.622 117.238H134.936V120.848ZM134.936 127.132H137.417C138.914 127.132 139.662 126.537 139.662 125.349C139.662 124.675 139.497 124.174 139.168 123.845C138.846 123.508 138.323 123.34 137.6 123.34H134.936V127.132Z" fill="#0BCEB2"/>
</svg>
